<svg width="51" height="59" viewBox="0 0 51 59" fill="none" xmlns="http://www.w3.org/2000/svg">
<path d="M23.5959 7.38822V0.439941M48.7834 8.02819C49.0248 8.65329 49.0248 9.34587 48.7834 9.97097C48.2806 11.3195 35.6643 21.5361 30.7502 25.7188C35.9614 21.2847 38.201 21.9932 38.9781 24.1188C40.1894 27.2958 33.4471 31.4557 33.4471 31.4557C33.4471 31.4557 39.6182 26.2445 41.4696 29.8101C42.9095 32.5756 36.3956 37.2383 36.3956 37.2383C38.9783 34.8384 41.2183 35.2041 42.224 37.5126C44.5096 42.7009 32.4189 53.0547 21.7908 56.666C19.9121 57.3524 17.9131 57.6487 15.916 57.5369C13.919 57.425 11.9655 56.9074 10.1752 56.0154C8.38492 55.1235 6.79512 53.876 5.50301 52.3491C4.2109 50.8223 3.2435 49.0481 2.65995 47.135C-0.0827882 37.444 6.33994 32.3928 6.24851 24.2788C6.06808 20.7346 5.05809 17.2821 3.29998 14.1993C1.97433 10.8394 6.27128 10.0167 9.58541 12.5308C13.9509 15.845 17.2648 24.2788 17.2648 24.2788L44.6921 6.93107C45.0013 6.6406 45.3799 6.43386 45.7914 6.33051C46.2028 6.22716 46.6338 6.23061 47.0435 6.34048C47.4533 6.45036 47.8283 6.66306 48.1328 6.95841C48.4373 7.25376 48.6611 7.62199 48.7834 8.02819V8.02819ZM28.4188 9.331L32.99 4.75978L28.4188 9.331ZM19.0247 9.331L14.4535 4.75978L19.0247 9.331Z" stroke="#1F2147" stroke-width="2.5" stroke-linejoin="round"/>
</svg>
