<svg width="68" height="144" viewBox="0 0 68 144" fill="none" xmlns="http://www.w3.org/2000/svg">
<path d="M43.9518 11.0019C47.7499 -0.62942 62.2575 0.00616942 62.2575 0.00616942C56.8982 15.3239 43.9518 11.0019 43.9518 11.0019ZM37.7069 4.00131C37.7069 4.00131 24.5415 16.9038 31.2337 23.5321C37.926 30.1604 50.2059 18.6471 50.2059 18.6471C48.3686 17.5779 46.3248 16.907 44.2085 16.6785C42.0922 16.4501 39.9512 16.6692 37.926 17.3215C37.926 17.3215 40.6103 9.99401 37.7069 4.00131ZM29.9008 132.282C29.9008 132.282 45.3396 142.369 50.4707 134.461C55.6017 126.552 41.7059 117.046 41.7059 117.046C41.0407 119.056 40.8106 121.183 41.0309 123.288C41.2512 125.393 41.9168 127.427 42.9841 129.258C42.9841 129.258 35.187 128.196 29.9008 132.282ZM49.1468 142.614C49.1468 142.614 65.0239 147.372 67.4068 139.255C69.7898 131.137 55.3552 126.543 55.3552 126.543C55.3004 128.443 55.6503 130.333 56.382 132.089C57.1137 133.844 58.2106 135.426 59.6007 136.731C59.6007 136.731 52.6619 137.757 49.1468 142.614ZM21.8207 19.1283C21.8207 19.1283 9.68693 35.6355 18.2509 41.7463C26.8148 47.857 38.2091 32.9842 38.2091 32.9842C36.0024 32.1436 33.6424 31.7746 31.2828 31.9013C28.9232 32.0281 26.6169 32.6476 24.5141 33.7197C24.5141 33.7197 26.0936 25.2209 21.8207 19.1556V19.1283ZM13.1655 113.332C13.1655 113.332 25.354 129.794 33.7901 123.51C42.2263 117.227 31.3798 101.955 31.3798 101.955C29.9034 103.797 28.8351 105.929 28.2451 108.21C27.6551 110.492 27.5566 112.871 27.9561 115.193C27.9561 115.193 20.2686 111.098 13.1655 113.332ZM1.02256 90.0874C1.02256 90.0874 9.93343 111.634 21.0081 106.994C32.0828 102.354 24.3132 82.4785 24.3132 82.4785C22.1705 84.1132 20.3992 86.1795 19.1154 88.5423C17.8315 90.905 17.064 93.5109 16.8631 96.1891C16.8631 96.1891 9.4952 89.5427 1.02256 90.0874ZM0 63.0567C0 63.0567 0.575198 86.9186 12.8733 86.5191C25.1714 86.1195 25.0801 64.2825 25.0801 64.2825C22.4283 65.0647 19.9725 66.3952 17.8737 68.1868C15.7748 69.9784 14.0801 72.1907 12.9007 74.6789C12.9007 74.6789 8.29918 65.6445 0 63.0567ZM7.41356 36.2439C7.41356 36.2439 -1.60688 60.0513 10.7004 64.5458C23.0076 69.0403 31.6994 47.4303 31.6994 47.4303C28.7646 47.1513 25.8038 47.4924 23.0109 48.4313C20.218 49.3702 17.6563 50.8856 15.4936 52.8782C15.4936 52.8782 14.5624 42.1004 7.41356 36.2439Z" fill="#B0CEE7"/>
</svg>
