<svg width="68" height="144" viewBox="0 0 68 144" fill="none" xmlns="http://www.w3.org/2000/svg">
<path d="M23.7206 11.0019C19.9225 -0.62942 5.41493 0.00616942 5.41493 0.00616942C10.7742 15.3239 23.7206 11.0019 23.7206 11.0019ZM29.9655 4.00131C29.9655 4.00131 43.131 16.9038 36.4387 23.5321C29.7464 30.1604 17.4666 18.6471 17.4666 18.6471C19.3038 17.5779 21.3477 16.907 23.464 16.6785C25.5803 16.4501 27.7212 16.6692 29.7464 17.3215C29.7464 17.3215 27.0622 9.99401 29.9655 4.00131ZM37.7717 132.282C37.7717 132.282 22.3328 142.369 17.2018 134.461C12.0707 126.552 25.9666 117.046 25.9666 117.046C26.6318 119.056 26.8618 121.183 26.6415 123.288C26.4212 125.393 25.7556 127.427 24.6884 129.258C24.6884 129.258 32.4854 128.196 37.7717 132.282ZM18.5256 142.614C18.5256 142.614 2.64856 147.372 0.265625 139.255C-2.11731 131.137 12.3172 126.543 12.3172 126.543C12.3721 128.443 12.0221 130.333 11.2905 132.089C10.5588 133.844 9.46185 135.426 8.07176 136.731C8.07176 136.731 15.0106 137.757 18.5256 142.614ZM45.8517 19.1283C45.8517 19.1283 57.9855 35.6355 49.4216 41.7463C40.8576 47.857 29.4634 32.9842 29.4634 32.9842C31.6701 32.1436 34.03 31.7746 36.3896 31.9013C38.7492 32.0281 41.0555 32.6476 43.1584 33.7197C43.1584 33.7197 41.5789 25.2209 45.8517 19.1556V19.1283ZM54.507 113.332C54.507 113.332 42.3184 129.794 33.8823 123.51C25.4462 117.227 36.2926 101.955 36.2926 101.955C37.7691 103.797 38.8373 105.929 39.4274 108.21C40.0174 110.492 40.1159 112.871 39.7164 115.193C39.7164 115.193 47.4039 111.098 54.507 113.332ZM66.6499 90.0874C66.6499 90.0874 57.739 111.634 46.6643 106.994C35.5896 102.354 43.3592 82.4785 43.3592 82.4785C45.5019 84.1132 47.2732 86.1795 48.5571 88.5423C49.841 90.905 50.6085 93.5109 50.8093 96.1891C50.8093 96.1891 58.1773 89.5427 66.6499 90.0874ZM67.6725 63.0567C67.6725 63.0567 67.0973 86.9186 54.7991 86.5191C42.501 86.1195 42.5923 64.2825 42.5923 64.2825C45.2441 65.0647 47.6999 66.3952 49.7988 68.1868C51.8977 69.9784 53.5923 72.1907 54.7718 74.6789C54.7718 74.6789 59.3733 65.6445 67.6725 63.0567ZM60.2589 36.2439C60.2589 36.2439 69.2793 60.0513 56.9721 64.5458C44.6648 69.0403 35.9731 47.4303 35.9731 47.4303C38.9078 47.1513 41.8687 47.4924 44.6616 48.4313C47.4544 49.3702 50.0162 50.8856 52.1788 52.8782C52.1788 52.8782 53.1101 42.1004 60.2589 36.2439Z" fill="#B0CEE7"/>
</svg>
