<svg width="57" height="58" viewBox="0 0 57 58" fill="none" xmlns="http://www.w3.org/2000/svg">
<path d="M28.1316 55.8464C42.9584 55.8464 54.978 43.8268 54.978 29C54.978 14.1731 42.9584 2.15356 28.1316 2.15356C13.3047 2.15356 1.28516 14.1731 1.28516 29C1.28516 43.8268 13.3047 55.8464 28.1316 55.8464Z" stroke="#1F2147" stroke-width="2.5" stroke-linejoin="round"/>
<path d="M28.132 34.6696C33.4715 34.6696 37.8 30.341 37.8 25.0015C37.8 19.6619 33.4715 15.3334 28.132 15.3334C22.7924 15.3334 18.4639 19.6619 18.4639 25.0015C18.4639 30.341 22.7924 34.6696 28.132 34.6696Z" stroke="#1F2147" stroke-width="2.5" stroke-linejoin="round"/>
<path d="M7.14551 45.7127C9.6604 42.5644 12.8521 40.0225 16.4832 38.2757C20.1143 36.5289 24.0919 35.6218 28.1213 35.6218C32.1508 35.6218 36.1288 36.5289 39.76 38.2757C43.3911 40.0225 46.5822 42.5644 49.0971 45.7127" stroke="#1F2147" stroke-width="2.5" stroke-linejoin="round"/>
</svg>
