<svg width="56" height="56" viewBox="0 0 56 56" fill="none" xmlns="http://www.w3.org/2000/svg">
<path d="M1.96387 4.8741V42.4498C1.96386 42.8313 2.03933 43.2091 2.18595 43.5614C2.33257 43.9136 2.54743 44.2333 2.81815 44.5021C3.08888 44.771 3.41014 44.9836 3.76338 45.1277C4.11663 45.2718 4.49492 45.3446 4.87643 45.3419H10.64V54.0179L19.316 45.3419H51.1078C51.4876 45.3419 51.8637 45.267 52.2146 45.1217C52.5654 44.9764 52.8842 44.7634 53.1528 44.4949C53.4213 44.2263 53.6343 43.9075 53.7797 43.5566C53.925 43.2057 53.9998 42.8296 53.9998 42.4498V4.8741C53.9998 4.49432 53.925 4.11819 53.7797 3.76731C53.6343 3.41644 53.4213 3.09758 53.1528 2.82903C52.8842 2.56048 52.5654 2.34755 52.2146 2.20221C51.8637 2.05687 51.4876 1.98201 51.1078 1.98201H4.87643C4.49492 1.9793 4.11663 2.05208 3.76338 2.1962C3.41014 2.34033 3.08888 2.55295 2.81815 2.82177C2.54743 3.09059 2.33257 3.41034 2.18595 3.76256C2.03933 4.11478 1.96386 4.49258 1.96387 4.8741V4.8741Z" stroke="#1F2147" stroke-width="2.5" stroke-linejoin="round"/>
<path d="M10.6401 10.6581H45.3444" stroke="#1F2147" stroke-width="2.5" stroke-linejoin="round"/>
<path d="M10.6401 19.3342H45.3444" stroke="#1F2147" stroke-width="2.5" stroke-linejoin="round"/>
<path d="M10.6401 27.8052H27.9923" stroke="#1F2147" stroke-width="2.5" stroke-linejoin="round"/>
</svg>
