<svg width="21" height="21" viewBox="0 0 21 21" fill="none" xmlns="http://www.w3.org/2000/svg">
<path d="M9.14746 0.552734C9.51599 -0.184278 10.568 -0.184258 10.9365 0.552734L19.9775 18.6348C20.3097 19.2996 19.8262 20.0819 19.083 20.082H1.00098C0.257852 20.0819 -0.225626 19.2995 0.106445 18.6348L9.14746 0.552734ZM9.8623 15.6104C9.61955 15.6104 9.41117 15.6972 9.2373 15.8711C9.06345 16.045 8.97656 16.2533 8.97656 16.4961C8.97666 16.7386 9.0636 16.9464 9.2373 17.1201C9.41117 17.294 9.61955 17.3818 9.8623 17.3818C10.0261 17.3818 10.1736 17.3422 10.3047 17.2637C10.4392 17.1817 10.5463 17.073 10.625 16.9385C10.7069 16.8042 10.748 16.6566 10.748 16.4961C10.748 16.2535 10.6609 16.0449 10.4873 15.8711C10.3135 15.6973 10.1049 15.6104 9.8623 15.6104ZM9.19238 7.22559L9.29102 14.4688H10.4326L10.5312 7.22559H9.19238Z" fill="#1F2147"/>
</svg>
