<svg width="47" height="87" viewBox="0 0 47 87" fill="none" xmlns="http://www.w3.org/2000/svg">
<g clip-path="url(#clip0_2010_57)">
<path fill-rule="evenodd" clip-rule="evenodd" d="M23.4942 86.9831C23.2243 85.5953 22.277 84.0967 19.2155 82.8988C15.5711 81.4744 11.9084 83.0205 6.91669 83.0205C4.19262 83.0205 -0.00146484 81.1092 -0.00146484 75.7905V30.8936H46.9949V75.7868C46.9949 81.1056 42.8008 83.0169 40.0767 83.0169C35.085 83.0169 31.4223 81.4744 27.7779 82.8951C24.7041 84.0979 23.7617 85.6038 23.4955 86.9965L23.4942 86.9831Z" fill="#967039"/>
<path fill-rule="evenodd" clip-rule="evenodd" d="M23.4943 86.4217C23.1004 85.1446 22.0415 83.8104 19.2671 82.7257C17.4265 82.0074 15.5859 82.0342 13.5797 82.2387C11.5943 82.4457 9.43958 82.8304 6.95356 82.8304C4.28348 82.8304 0.175293 80.9544 0.175293 75.7404V31.0845H46.817V75.744C46.817 80.9581 42.7088 82.834 40.0387 82.834C37.5539 82.834 35.3992 82.4493 33.4126 82.2424C31.4015 82.0342 29.5609 82.0074 27.7252 82.7293C24.9533 83.8104 23.8931 85.1446 23.4943 86.4217Z" fill="#EC1C24"/>
<path fill-rule="evenodd" clip-rule="evenodd" d="M14.9578 56.9586L14.9701 56.9757C14.9861 57.0004 15.0001 57.0265 15.0118 57.0536L15.0474 57.0049C15.0559 56.9939 15.0682 56.9781 15.0817 56.9586H14.959H14.9578ZM14.7246 56.7152L14.6989 56.7358C14.6345 56.7855 14.5726 56.8383 14.5136 56.8941C14.5651 56.8844 14.613 56.8722 14.6449 56.8649L14.7246 56.7152ZM29.1941 57.0913C29.2573 57.0557 29.3317 57.0451 29.4025 57.0615C29.4732 57.078 29.5351 57.1204 29.5757 57.1802C29.6158 57.2406 29.6318 57.3137 29.6207 57.3852C29.6096 57.4567 29.5722 57.5216 29.5156 57.5673L29.4444 57.6343C29.4174 57.6586 29.3917 57.6842 29.3659 57.7097C29.5367 57.6468 29.7042 57.5753 29.8678 57.4955C30.1647 57.3567 30.5684 57.1571 30.9009 57.1692L31.0973 57.1765L31.1586 57.3616C31.174 57.4183 31.1746 57.478 31.1604 57.535C31.1463 57.5921 31.1178 57.6446 31.0776 57.6878C31.6482 57.5819 32.3845 57.4955 32.7894 57.6964L32.9452 57.7743V57.9471C32.9457 58.0007 32.9365 58.0538 32.9182 58.1042L34.0471 58.081L34.0164 58.1724H34.3465C34.2901 58.3647 34.2729 58.5948 34.1097 58.7275H34.1306C34.5478 58.7372 34.9674 58.7628 35.2165 59.1499L35.2312 59.173L35.2411 59.1986C35.5736 60.041 36.3147 60.6996 36.981 61.2864L37.0068 61.3083L37.0264 61.3363C37.5062 62.0278 37.6792 63.3864 37.878 64.2179L37.9553 64.5417L37.6203 64.5636C37.4561 64.5755 37.2919 64.5408 37.1467 64.4638C37.0923 64.4342 37.0409 64.3996 36.9933 64.3603C37.2866 64.7559 37.4988 65.1638 37.2043 65.6665C37.0658 65.8815 36.9977 66.1336 37.0092 66.3884C37.0227 66.6137 37.0939 66.8316 37.1111 67.0568C37.1296 67.2597 37.0949 67.4639 37.0105 67.6496C36.9914 67.6931 36.9633 67.732 36.928 67.7639C36.8926 67.7958 36.8509 67.8199 36.8056 67.8347C36.7466 67.8523 36.6842 67.8549 36.6239 67.8424C36.5637 67.8298 36.5076 67.8025 36.4607 67.7629C36.5209 67.9954 36.6031 68.2182 36.6853 68.4495C36.8779 68.9985 36.9847 69.4562 36.9086 70.0442L36.8608 70.4094L36.5196 70.2707L36.4792 70.2548C36.5755 70.5285 36.6924 70.7947 36.8289 71.051C37.1111 71.6207 37.6338 72.3901 37.4706 73.0475L37.4485 73.1303L37.3847 73.1887C36.5945 73.8936 35.6214 74.484 34.8251 75.1804C34.2619 75.5139 32.0703 75.7343 31.6347 75.0257C31.4838 74.7823 31.663 74.3793 32.0237 74.0299C32.1844 73.8801 32.3609 73.7478 32.5501 73.6355C32.7587 73.504 33.344 73.2021 33.441 72.9818C33.4817 72.8843 33.5098 72.782 33.5244 72.6774C33.4196 72.2478 33.2201 71.8466 32.9403 71.5027L32.7734 72.6068L32.3918 72.3146C31.9366 71.9665 31.5439 70.6834 31.4102 70.0637C31.1954 70.8112 30.9022 70.1855 30.7574 69.8775C30.6825 69.7168 30.6101 69.5548 30.5341 69.3905C30.5107 69.3418 30.4653 69.2469 30.4114 69.147V69.1872C30.4114 69.4185 30.4359 69.8373 30.1205 69.8811C30.1978 70.0442 30.1623 70.2609 30.1205 70.4301C30.1009 70.5239 30.0641 70.6371 30.0457 70.732L30.2101 71.3882C30.4555 72.3621 30.5095 73.4651 29.5549 74.0908C29.1352 74.3671 28.4149 74.6058 27.9302 74.7531C27.5146 74.886 27.0892 74.9866 26.6578 75.0537C26.2443 75.0769 24.6123 75.0537 24.508 74.2649V74.2357C24.4896 73.5052 25.6234 73.1546 26.1706 72.8844C26.4332 72.7553 27.0811 72.4522 27.1707 72.1539C27.1835 72.1084 27.1861 72.0606 27.1781 72.014C27.1754 71.9961 27.1709 71.9785 27.1646 71.9616C27.1376 71.891 27.0971 71.8204 27.0676 71.7498C27.0117 71.6211 26.9753 71.4849 26.9596 71.3456C26.9523 71.2799 26.9425 71.1301 26.929 70.9926C26.8997 71.0144 26.8663 71.0301 26.8308 71.0388C26.7572 71.0542 26.6806 71.0441 26.6136 71.0102C26.5466 70.9763 26.4933 70.9207 26.4627 70.8526C26.4295 70.7929 26.4001 70.7308 26.3731 70.6663C26.2921 70.4813 26.2209 70.2901 26.1522 70.1014C26.0565 69.8434 25.9719 69.5792 25.8761 69.3223C25.8287 69.1931 25.809 69.0554 25.8185 68.9182L25.7915 68.9096C25.562 68.8317 25.4859 68.587 25.4234 68.3776C25.3792 68.5602 25.3007 68.7538 25.0798 68.7611C25.0197 68.765 24.9599 68.7497 24.9092 68.7173C24.7711 68.623 24.6417 68.5167 24.5227 68.3996C24.4491 68.5895 24.3534 68.783 24.1006 68.7575C23.9456 68.7436 23.7895 68.7481 23.6355 68.7709C23.4736 68.7903 23.2601 68.8658 23.1079 68.7903C22.9754 68.7246 22.8551 68.3521 22.7606 68.4714L22.568 68.7149H22.5091C22.5133 68.7724 22.5133 68.8302 22.5091 68.8877L22.4711 69.2639L22.2502 69.1738C22.2719 69.2944 22.2838 69.4165 22.2858 69.539L22.2956 70.1623L22.0342 69.9408L21.9901 71.2994L21.6011 71.6877C21.5588 71.8277 21.5409 71.9739 21.5483 72.1199C21.5483 72.4973 21.5986 72.9915 21.2219 73.2155C21.1628 73.2541 21.0949 73.2771 21.0244 73.2825V73.4359H20.9434C20.9434 73.4651 20.9434 73.4906 20.9372 73.5113C20.925 73.6465 20.9139 73.7804 20.8967 73.9155C20.8489 74.3002 20.7188 74.8724 20.217 74.8529C18.988 74.8063 17.7619 75.0016 16.6094 75.4275C16.5431 75.4534 16.4693 75.4534 16.403 75.4274C16.3367 75.4014 16.2828 75.3514 16.2523 75.2875C16.2426 75.269 16.2352 75.2493 16.2302 75.229C16.0609 75.2802 15.8989 75.2765 15.7897 75.1463C15.7437 75.0837 15.7188 75.0083 15.7188 74.9308C15.7188 74.8533 15.7437 74.7779 15.7897 74.7153H15.7775L15.51 74.6131L15.6167 74.3489C15.6448 74.2778 15.6828 74.211 15.7296 74.1505C16.0057 73.7852 16.5468 73.6745 16.9665 73.5539C17.4217 73.4237 17.8831 73.2861 17.8831 72.7334V72.4461H17.9923C18.0128 72.2961 17.9951 72.1433 17.9408 72.0018L17.8316 71.9945L17.7542 71.8825C17.526 71.5587 17.6855 71.0595 17.6144 70.922C17.6041 70.9184 17.5933 70.9164 17.5825 70.9159L17.391 70.8952L17.3395 70.7126C17.3128 70.5925 17.2968 70.4703 17.2916 70.3474C17.2782 70.183 17.2671 70.0175 17.2499 69.8531C17.2499 69.8044 17.2352 69.7095 17.2205 69.6096C17.208 69.6183 17.1949 69.626 17.1812 69.6328C16.9959 69.7289 16.8229 69.6328 16.6904 69.4976L16.6327 69.4416L16.6143 69.3625C16.5477 69.0818 16.457 68.8073 16.3431 68.542L16.272 68.3837L16.1885 68.2535C16.155 68.5205 16.0565 68.7753 15.9014 68.9961C15.8055 69.1208 15.6988 69.2369 15.5824 69.343C15.4388 69.4757 15.2277 69.6388 15.0326 69.455C15.0105 69.4346 14.9919 69.4108 14.9774 69.3844C14.6461 69.6035 13.4473 69.9554 13.905 69.2554L13.2105 69.8641C13.1664 69.8993 13.1132 69.9215 13.057 69.9282C13.0008 69.9348 12.9439 69.9257 12.8926 69.9018C12.8413 69.8776 12.7985 69.8386 12.7699 69.7898L12.7245 69.8446C12.5834 70.6456 11.8116 70.8282 11.7429 71.4369L11.7355 71.4941L11.7073 71.5453C11.6251 71.6877 11.6104 71.8155 11.4877 71.9506C11.3644 72.0843 11.1975 72.1705 11.0165 72.1941C10.0839 72.356 9.95016 72.3013 9.52683 71.471C9.42486 71.2258 9.40214 70.9553 9.46179 70.6967L9.48142 70.5933L9.5575 70.5348C9.58327 70.4861 9.61517 70.2767 9.64217 70.183C9.68807 70.0095 9.75438 69.842 9.83973 69.6839C9.99924 69.3747 10.2213 69.0752 10.3232 68.7404V68.71C10.3964 68.578 10.481 68.4525 10.576 68.335C10.5917 68.3138 10.6029 68.2895 10.6089 68.2637C10.6148 68.238 10.6153 68.2113 10.6103 68.1853L10.5944 68.0636L10.6655 67.9698C10.7869 67.8029 10.8917 67.6248 10.9784 67.4378C11.2337 66.9302 11.4693 66.453 12.003 66.201C12.2305 66.0115 12.4864 65.8583 12.7613 65.7469C13.012 65.6495 13.2504 65.5237 13.4718 65.3719L13.4829 65.3634L13.4951 65.3549C13.7504 65.1893 14.0596 65.1017 14.2792 64.8947L14.4596 64.7255L14.3369 64.3396C14.2877 64.1464 14.2818 63.9448 14.3197 63.7492C14.3438 63.6166 14.3561 63.4822 14.3565 63.3474C14.1676 63.4813 13.9381 63.5909 13.727 63.4777C13.5405 63.3742 13.5049 63.1478 13.4276 62.9384C13.3896 62.97 13.3503 63.0017 13.3123 63.0309C13.1761 63.1307 13.008 63.2001 12.8485 63.093C12.7923 63.0586 12.7492 63.0069 12.7258 62.9457C12.6954 63.012 12.6515 63.0714 12.5968 63.12C12.5421 63.1687 12.4778 63.2055 12.408 63.2281L12.2214 63.2926L12.0987 63.1405C12.0188 63.0324 11.9655 62.9074 11.9429 62.7753C11.8977 62.834 11.8391 62.8811 11.7719 62.9129C11.7047 62.9447 11.6308 62.9601 11.5564 62.9579H11.3466L11.284 62.7619C11.2747 62.7297 11.2602 62.6993 11.241 62.6718C11.0643 62.4088 10.4803 62.3066 10.1894 62.2627C9.89862 62.2189 9.56855 62.1836 9.26423 62.1215C8.61389 61.9888 8.37462 61.7295 8.09608 61.3461L7.90343 61.1026C7.73164 60.6595 7.78808 60.1409 7.7071 60.0422L7.6936 60.0349L7.51568 59.9643V59.7744C7.51083 59.716 7.50056 59.6581 7.485 59.6016C7.46419 59.5063 7.46169 59.408 7.47764 59.3118L7.50463 59.1682L7.63838 59.1073C8.26296 58.8212 9.11085 58.6106 9.56854 58.0896L9.69125 57.9544L9.73911 57.9691C9.84255 57.8221 9.9372 57.6693 10.0226 57.5113C10.1269 57.3299 10.3379 56.9148 10.495 56.7906H10.5023L10.5122 56.7845C10.8595 56.5254 11.229 56.2969 11.6165 56.1016C11.5929 56.0821 11.5708 56.0609 11.5502 56.0383C11.2901 55.7498 11.3821 55.2847 11.5625 54.9804C11.7294 54.6967 12.0533 54.323 12.3994 54.323H12.4288L12.4583 54.3291C12.5454 54.3473 12.7834 54.5531 12.9957 54.6079C13.1687 54.6529 13.3724 54.7296 13.3638 54.9463C13.77 54.7028 14.2326 54.6493 14.6915 54.9901C15.0596 55.2932 15.0474 55.992 14.8596 56.451C14.917 56.3709 14.9875 56.301 15.0682 56.244C15.3946 56.0139 15.7137 56.0468 16.0634 55.9397L16.4315 55.8277V56.2075C16.4329 56.2375 16.4291 56.2676 16.4204 56.2964C16.4204 56.3134 16.4106 56.3292 16.4057 56.3451C16.5137 56.3451 16.6229 56.3353 16.7346 56.3256C16.9591 56.3061 17.2708 56.2477 17.4193 56.4668C17.4552 56.5243 17.475 56.5903 17.4765 56.658C17.478 56.7256 17.4612 56.7925 17.4279 56.8515C17.5579 56.8101 17.6733 56.7663 17.7322 56.7444C18.0248 56.6318 18.3089 56.4988 18.5825 56.3463C19.1519 55.8228 19.8096 55.7376 20.5679 55.7924C21.065 55.8509 21.5571 55.9453 22.0404 56.0748C22.73 56.2392 23.4171 56.4193 24.103 56.5995C24.8835 56.8052 25.6639 57.0158 26.448 57.2082C26.6627 57.2593 27.4627 57.4626 27.6873 57.4517C27.8913 57.3608 28.1089 57.3036 28.3315 57.2824C28.627 57.2615 28.9177 57.1971 29.1941 57.0913Z" fill="#231F20"/>
<path fill-rule="evenodd" clip-rule="evenodd" d="M15.2952 66.3448C15.2228 66.6516 14.8731 66.8695 15.0928 67.2189C15.7296 67.0728 15.6278 66.9121 15.5603 67.4526C15.5603 67.4757 15.2915 68.0783 15.4719 68.0783C16.5677 68.0783 15.2057 69.3566 15.2192 69.2349C15.2361 69.1065 15.2047 68.9764 15.1308 68.8696C14.8523 69.2044 14.4117 69.3359 14.0154 69.4528C14.0412 69.4223 14.2608 68.9451 14.1038 68.9719L13.8387 69.0157L13.0313 69.6244C12.8767 69.7462 13.3761 68.5568 12.4448 69.7121C12.3564 70.4839 11.538 70.6166 11.4496 71.3884C11.3269 71.5929 11.3269 71.8254 11.0386 71.84C11.1269 71.6501 10.8803 71.3981 10.8214 71.2667C10.6152 71.3105 10.6655 71.672 10.5931 71.8461C10.4164 71.7597 10.5931 71.1948 10.1919 71.3592C10.0017 71.4809 10.1919 71.6769 10.0054 71.7646C10.0348 71.5308 9.63727 71.1924 9.72807 70.7408C9.86059 70.6385 9.85078 70.406 9.90477 70.2453C10.0373 69.7206 10.4214 69.3371 10.5833 68.8124C10.6864 68.5799 10.9355 68.463 10.8913 68.1429C11.3318 67.5744 11.446 66.7453 12.165 66.4385C12.5478 66.0587 13.2546 65.9102 13.6522 65.5864C14.078 65.31 14.3713 65.1907 14.7676 64.9144C15.1873 65.086 14.9026 65.601 14.9394 65.9065C14.959 66.0721 14.7418 66.4203 15.2952 66.3411M12.5736 62.0158C12.8031 62.0548 13.0644 62.0535 13.1957 62.28C13.2301 62.3408 13.3184 62.3287 13.3184 62.2374C13.3184 61.7675 14.0363 62.4078 14.0424 61.7504C14.0424 61.4546 14.2571 61.5191 14.4976 61.5191C14.7381 61.5191 14.8658 61.429 14.9492 61.1782C14.7109 61.2748 14.4478 61.2932 14.1982 61.2306C14.0314 61.2038 13.7958 61.1088 13.7958 61.3913C13.7958 61.5422 13.8706 61.7833 13.7958 61.8295C13.7306 61.8393 13.6641 61.825 13.6089 61.7893C13.5537 61.7536 13.5137 61.699 13.4964 61.636C13.4497 61.5142 13.2657 61.3475 13.2203 61.5215C13.1651 61.7358 13.1602 61.9038 12.7859 61.8088C12.7503 61.7991 12.5675 61.6871 12.5098 61.6506C12.2276 61.4972 12.1061 61.9342 12.5736 62.0158ZM10.9895 58.78C11.0864 59.2572 11.1944 59.1452 10.2974 58.9322C10.1195 58.892 10.6373 57.7428 10.9858 58.78H10.9895ZM27.7891 57.716C28.437 57.4385 28.4027 57.6758 29.2984 57.3508C29.5107 57.2473 28.8002 57.7087 28.9242 58.0106C29.3598 58.2273 30.3463 57.4299 30.8875 57.4494C30.9022 57.4908 30.4776 57.9011 30.6997 58.052C31.2543 57.9303 32.2446 57.7404 32.663 57.9461C32.663 58.1677 32.2949 58.1336 32.3931 58.3965L33.8103 58.3649C33.7772 58.4659 33.933 58.4477 33.9772 58.4477C33.8643 58.6157 33.4765 58.651 33.4054 58.8494C33.8348 59.1659 34.6533 58.8007 34.9711 59.295C35.3184 60.1751 36.0534 60.8435 36.7872 61.4862C37.2166 62.1047 37.4154 63.5168 37.5958 64.274C36.9589 64.3142 36.8056 63.462 36.4178 63.0494C35.6816 64.0732 37.489 64.6039 36.954 65.5158C36.3969 66.4653 37.0375 66.8853 36.7454 67.5232C36.6473 67.7399 36.219 66.9048 36.1086 67.4417C36.219 68.362 36.7602 68.9403 36.6215 69.9982C36.3859 69.902 36.3994 69.4479 36.1086 69.6269C35.9982 70.6775 37.4093 71.8997 37.1589 72.8955C36.4657 73.5139 35.338 74.3381 34.6312 74.9565C34.0066 75.015 33.3305 74.948 32.7833 75.2C32.7833 74.5025 32.6974 74.9797 32.2838 74.9797C32.4274 74.9091 32.4667 74.7058 32.4924 74.567C32.3697 74.5195 32.0188 74.6522 31.8961 74.7739C32.0703 73.9108 33.441 73.6661 33.6974 73.0891C33.7608 72.9456 33.7966 72.7916 33.8029 72.635C33.7355 72.215 33.2704 71.1741 32.7256 71.0074L32.5624 72.0811C32.1047 71.7317 31.7366 70.8467 31.6728 70.2477C31.7771 69.7291 31.1599 69.3201 31.1599 70.042C30.9721 69.7985 30.123 67.393 30.123 69.1789C30.123 70.8929 29.5021 66.7526 29.0702 66.8415C28.6812 67.309 29.2383 68.1806 29.0285 68.6846C28.8959 69.0035 28.7426 68.3559 28.426 68.2135C28.2468 69.6743 28.2517 68.3498 27.6627 68.4996C27.5069 68.5397 27.3179 68.6213 27.1719 68.6018C26.8173 68.5397 26.6063 67.802 26.4001 68.1295C25.5117 69.5343 25.8823 67.533 25.2356 67.9006C25.1988 67.9213 25.135 68.5093 25.0516 68.4643C24.8246 68.3255 24.843 68.2792 24.6098 68.099C24.2417 67.8178 24.2871 68.4801 24.119 68.4643C23.3288 68.3839 23.1472 68.855 23.065 67.7217C23.265 67.7874 23.0257 65.8469 22.3864 66.0855C22.3361 66.3131 22.6576 67.2956 22.4281 67.2956L22.3054 68.4229C22.1766 68.4229 22.2318 68.7491 22.222 68.8489C22.0993 68.8015 21.9238 67.858 21.8894 67.6803C21.6821 67.5013 21.6919 67.0716 21.5815 67.1117C21.3446 68.0856 21.9827 68.6237 21.9974 69.5331C21.3238 68.9597 21.806 69.6037 21.752 69.8764L21.7103 71.1693L21.363 71.5138C21.1299 71.9642 21.433 72.7519 21.0722 72.9746C20.8734 73.0964 20.7397 72.6545 20.7397 73.1536C20.5814 73.1536 20.7397 74.5889 20.2268 74.5694C18.9614 74.5205 17.6988 74.7216 16.5125 75.1611C16.4327 75.1891 17.0941 74.8859 16.6781 74.6522C16.1714 75.0296 15.6241 75.2024 16.3456 74.4866C16.2229 74.3077 16.0548 74.5146 15.8744 74.4452C16.2008 73.6369 18.1616 74.0727 18.1616 72.7263C18.3162 72.7263 18.369 71.7524 17.9813 71.7232C17.7592 71.4067 18.1334 70.6908 17.6131 70.6361C17.542 70.3926 17.5641 68.8343 17.1972 68.9999C17.0315 69.0681 17.1972 69.583 16.8929 69.2884C16.7395 68.642 16.2965 68.1611 16.2965 67.4319C16.2711 67.4089 16.2397 67.3936 16.2058 67.3875C16.172 67.3814 16.1371 67.385 16.1052 67.3977C16.0733 67.4104 16.0457 67.4318 16.0255 67.4594C16.0053 67.4869 15.9933 67.5196 15.991 67.5537C15.921 67.3102 16.0057 65.9345 15.7051 65.8968C15.337 66.5335 15.5075 65.8177 15.2057 65.5669C15.2474 65.2784 15.159 65.0093 15.2057 64.7147C14.8044 64.7281 15.1787 63.8212 14.624 64.2473C14.4854 63.8066 14.9283 63.1187 14.3602 62.9958C13.6142 63.5874 13.9406 62.9654 13.5148 62.4869C12.592 63.3464 13.3393 62.4516 12.711 62.3652C12.4889 62.4869 12.6141 62.8607 12.3368 62.9568C12.2141 62.8059 12.2399 62.4699 12.0914 62.3238C11.7723 62.269 11.8558 62.6683 11.5785 62.6683C11.2631 61.6664 8.66666 62.14 8.83354 61.4436C9.4164 61.4716 9.87286 61.3061 10.1919 60.8666C10.0115 60.5915 9.7293 60.8666 9.46671 60.8666C9.10595 61.1831 8.57341 60.7619 8.14394 60.9129C7.86294 60.5769 8.23719 59.9304 7.82122 59.7649C7.82122 59.6139 7.75251 59.5031 7.78073 59.3522C8.47279 59.0357 9.29124 58.8433 9.80415 58.2663C9.99066 58.3211 10.5109 57.1438 10.6913 57.0014C11.1699 56.6764 11.8926 56.1018 12.5074 56.2028C12.5528 56.8882 12.9773 56.5425 13.3111 56.4645C13.2829 56.1346 12.8117 55.9277 13.1025 55.5296C13.5319 55.0682 14.0387 54.8223 14.5443 55.1997C14.8559 55.4541 14.748 56.204 14.5443 56.5059C13.9455 56.9625 13.9037 57.3496 14.7529 57.1244C14.8756 57.3118 14.5467 57.7331 15.1676 57.6332C15.148 57.6941 14.9357 57.9461 15.0854 57.9984C15.4535 58.1445 15.2081 58.0058 15.2511 58.343C15.5419 58.6315 15.6535 58.1774 15.8474 58.0812C15.2241 57.8536 16.2094 57.4348 15.8891 57.3386L15.2731 57.1731C15.5775 56.7701 15.4339 56.6776 15.0658 56.6776C15.2744 56.2905 15.802 56.3197 16.1603 56.2101C16.1603 56.3319 15.8695 56.3879 15.8695 56.596C16.9849 56.7628 17.6659 56.2028 16.8401 57.2145C17.2377 57.352 18.4868 56.7397 18.7654 56.5741C18.9703 56.3721 19.2236 56.225 19.5016 56.1468V56.9162C19.5026 56.9766 19.5079 57.0368 19.5175 57.0964C19.5948 57.4798 19.9617 57.8268 20.6121 57.8268H27.4627V57.7051C27.5696 57.7308 27.6807 57.7345 27.7891 57.716ZM12.9098 54.9708C12.7871 55.2253 12.5417 55.3896 12.5785 55.7475C11.2288 56.5145 11.5895 54.7456 12.3515 54.7456C12.7699 54.8345 13.3921 54.9501 12.9098 54.9708ZM27.2983 69.5745C27.3535 69.2482 27.2394 68.8149 27.5167 68.7771C27.945 68.7175 27.7904 69.6293 28.2333 69.6183C28.5217 69.6183 28.4211 68.8879 28.6726 68.9512C29.723 69.2154 28.9769 69.7839 29.8003 69.9519C29.9978 69.9921 29.7389 70.6823 29.7561 70.7493L29.9316 71.4517C30.15 72.3185 30.2273 73.3058 29.3954 73.8524C28.6591 74.3393 25.5645 75.2475 25.9915 74.5402C26.4185 73.8329 25.4442 74.4574 25.2749 74.4099C25.6958 73.5919 24.8332 74.5938 24.7841 74.2237C24.7706 73.7087 25.7436 73.4007 26.2897 73.128C26.9854 72.7847 27.5302 72.4706 27.4505 71.9581C27.4198 71.7573 27.2738 71.6441 27.2333 71.2995C27.1756 70.8126 27.2136 70.1528 26.7547 70.7505C26.6848 70.8418 26.1633 69.2896 26.1326 69.2105C25.9522 68.7345 26.3412 68.3133 26.6234 68.838C26.9707 69.4649 27.2983 69.5842 27.2983 69.5745Z" fill="#DCDCDE"/>
<path fill-rule="evenodd" clip-rule="evenodd" d="M13.5749 56.1406C13.613 56.3999 13.7111 56.6275 13.9615 56.6275C14.1038 56.6275 14.3173 56.3366 14.3639 56.1576C14.4106 55.9787 14.4314 55.7437 14.3345 55.6707C14.2596 55.611 14.0204 55.7924 13.9897 55.6536C13.921 55.3298 13.797 55.4223 13.6829 55.5538C13.4756 55.7973 13.5602 56.0103 13.5749 56.1491M26.8174 48.7937H27.4689V57.8242H20.6183C19.9679 57.8242 19.601 57.4797 19.5237 57.0938C19.5141 57.0342 19.5088 56.974 19.5078 56.9136V48.0194C19.5409 47.6092 19.9299 47.2087 20.687 47.177L26.9032 47.188L26.7609 47.3973C26.6417 47.5967 26.5787 47.8242 26.5787 48.0559C26.5787 48.2877 26.6417 48.5152 26.7609 48.7146L26.8174 48.7937Z" fill="#231F20"/>
<path fill-rule="evenodd" clip-rule="evenodd" d="M22.8686 56.7945H22.2097V56.1407L22.8686 56.7945ZM26.4271 56.1407V56.7945H25.7682L26.4271 56.1407ZM25.7682 49.8237H26.4271V50.4775L25.7682 49.8237ZM23.0687 49.8237H25.5694L26.4283 50.6759V55.9411L25.5694 56.7932H23.0699L22.2109 55.9411V50.6771L23.0687 49.8237ZM22.2097 49.8237H22.8699L22.2097 50.4775V49.8237ZM22.0686 56.9345H26.5719V49.6813H22.0686V56.9345ZM24.346 51.1714H24.5988V51.6705H25.1497V51.9225H24.5988V52.6675H25.6663V52.9183H24.5988V54.2282L25.2123 54.5764V54.8272L24.5988 54.479V55.5101H24.346V54.3341L23.7325 53.986V53.7352L24.346 54.0834V52.9183H23.2785V52.6675H24.346V51.9225H23.7951V51.6705H24.346V51.1714ZM24.7399 51.5305H25.2909V52.0625H24.7399V52.5275H25.8087V53.0595H24.7399V54.1467L25.3534 54.4948V55.0707L24.7399 54.7225V55.6465H24.2037V54.4157L23.5963 54.0639V53.4917L24.2037 53.8399V53.0595H23.1361V52.5275H24.2037V52.0625H23.654V51.5305H24.2037V51.0314H24.7399V51.5305ZM21.314 57.6844H27.3265V48.9338H21.314V57.6844Z" fill="#D8A456"/>
<path fill-rule="evenodd" clip-rule="evenodd" d="M20.7125 47.3172H26.6453C26.5598 47.448 26.5002 47.5939 26.4699 47.7469H21.6046V47.8686H26.4502C26.4322 48.0198 26.4363 48.1727 26.4625 48.3227H21.9678V48.4445H26.4907C26.5228 48.567 26.575 48.6834 26.6453 48.789H20.7125C19.3628 48.789 19.3628 47.3038 20.7125 47.3123" fill="white"/>
<path fill-rule="evenodd" clip-rule="evenodd" d="M22.7376 43.6163L21.794 41.1597L22.0995 41.2339C22.981 41.4518 23.9029 41.4518 24.7843 41.2339L25.0899 41.1597L24.1463 43.6163L26.4691 42.7057L26.393 43.0137C26.1734 43.8882 26.1734 44.8029 26.393 45.6774L26.4691 45.9854L24.2849 45.1332L25.0948 47.1674L24.7843 47.092C23.9027 46.8753 22.9811 46.8753 22.0995 47.092L21.7891 47.1674L22.6002 45.1332L20.416 45.9854L20.4909 45.6774C20.7105 44.8029 20.7105 43.8882 20.4909 43.0137L20.416 42.7057L22.7376 43.6163Z" fill="#231F20"/>
<path fill-rule="evenodd" clip-rule="evenodd" d="M20.6514 42.9747L23.0257 43.9048L22.0601 41.3933C22.9673 41.6173 23.9161 41.6173 24.8234 41.3933L23.8626 43.9048L26.237 42.9747C26.0112 43.8748 26.0112 44.8161 26.237 45.7162L23.9853 44.8373L24.8185 46.9299C23.9112 46.706 22.9624 46.706 22.0551 46.9299L22.8883 44.8373L20.6465 45.7162C20.8723 44.8161 20.8723 43.8748 20.6465 42.9747" fill="#DCDCDE"/>
<path fill-rule="evenodd" clip-rule="evenodd" d="M19.6489 56.7604V56.9199C19.6502 56.9713 19.6551 57.0226 19.6636 57.0733C19.7557 57.5128 20.2085 57.682 20.6171 57.682H21.1717V57.1877H20.606C20.3577 57.1925 20.1129 57.1285 19.8992 57.0027C19.8013 56.9393 19.7177 56.8564 19.6538 56.7592M19.6538 56.1505C19.6535 56.2482 19.6601 56.3459 19.6735 56.4427V56.4743C19.6918 56.5603 19.7276 56.6416 19.7787 56.7134C19.8297 56.7852 19.895 56.8459 19.9704 56.8919C20.163 57.0049 20.3836 57.0623 20.6073 57.0575H21.1729V56.5839H20.6073C20.3587 56.5899 20.1136 56.5257 19.9005 56.3989C19.7999 56.3362 19.7141 56.2527 19.6489 56.1542L19.6538 56.1505ZM19.6538 53.3116V55.5954C19.6556 55.6871 19.6633 55.7786 19.6771 55.8693C19.6958 55.9551 19.7318 56.0363 19.7828 56.1081C19.8338 56.1798 19.8989 56.2406 19.9741 56.2869C20.1665 56.4001 20.3873 56.457 20.6109 56.4512H21.1766V53.745H20.6109C20.3624 53.7499 20.1174 53.6854 19.9042 53.5587C19.8024 53.4968 19.7153 53.4137 19.6489 53.3152L19.6538 53.3116ZM19.6538 52.7029C19.6534 52.8006 19.66 52.8983 19.6735 52.9951V53.0279C19.6922 53.1138 19.7281 53.195 19.7791 53.2667C19.8301 53.3384 19.8952 53.3992 19.9704 53.4455C20.163 53.5585 20.3836 53.6158 20.6073 53.6111H21.1729V53.1387H20.6073C20.3587 53.1437 20.1138 53.0791 19.9005 52.9525C19.7997 52.8904 19.7139 52.8074 19.6489 52.709L19.6538 52.7029ZM19.6538 49.7142V52.2707C19.6589 52.3214 19.6667 52.3718 19.6771 52.4217C19.6955 52.5076 19.7313 52.589 19.7824 52.6607C19.8334 52.7325 19.8986 52.7933 19.9741 52.8392C20.1667 52.9522 20.3873 53.0096 20.6109 53.0048H21.1766V50.144H20.6109C20.3625 50.1494 20.1176 50.0852 19.9042 49.9589C19.8032 49.8984 19.7166 49.817 19.6502 49.7203L19.6538 49.7142ZM19.6538 49.1055C19.6531 49.2032 19.6592 49.3009 19.6722 49.3977V49.4294C19.6906 49.5153 19.7264 49.5966 19.7774 49.6684C19.8285 49.7402 19.8937 49.8009 19.9692 49.8469C20.1618 49.9599 20.3823 50.0173 20.606 50.0125H21.1717V49.5365H20.606C20.3575 49.5415 20.1125 49.4769 19.8992 49.3502C19.8001 49.2901 19.7151 49.2096 19.6502 49.1141L19.6538 49.1055ZM19.8784 52.2707H20.0011V50.4118H19.8784V52.2707ZM20.3128 52.3998H20.4355V50.5445H20.3128V52.3998ZM20.7471 52.5215H20.8698V50.6638H20.7471V52.5215ZM19.8747 55.89H19.9974V54.0262H19.8747V55.89ZM20.3091 56.019H20.4318V54.1552H20.3091V56.019ZM20.7435 56.1408H20.8662V54.2745H20.7435V56.1408ZM19.6502 48.5054C19.6494 48.6039 19.6556 48.7023 19.6686 48.8V48.8328C19.6873 48.9187 19.7232 48.9999 19.7742 49.0716C19.8252 49.1433 19.8903 49.2042 19.9655 49.2504C20.1581 49.3634 20.3787 49.4208 20.6023 49.416H21.168V48.9351H20.6858C20.1815 48.9351 19.8281 48.7525 19.6502 48.5054Z" fill="#D8A456"/>
</g>
<defs>
<clipPath id="clip0_2010_57">
<rect width="47" height="87" fill="white"/>
</clipPath>
</defs>
</svg>
