<svg width="47" height="87" viewBox="0 0 47 87" fill="none" xmlns="http://www.w3.org/2000/svg">
<g clip-path="url(#clip0_2009_2)">
<path fill-rule="evenodd" clip-rule="evenodd" d="M23.4942 86.9831C23.2243 85.5953 22.277 84.0967 19.2155 82.8988C15.5711 81.4744 11.9084 83.0205 6.91669 83.0205C4.19262 83.0205 -0.00146484 81.1092 -0.00146484 75.7905V30.8936H46.9949V75.7868C46.9949 81.1056 42.8008 83.0169 40.0767 83.0169C35.085 83.0169 31.4223 81.4744 27.7779 82.8951C24.7041 84.0979 23.7617 85.6038 23.4955 86.9965L23.4942 86.9831Z" fill="#967039"/>
<path fill-rule="evenodd" clip-rule="evenodd" d="M23.4943 86.4217C23.1004 85.1446 22.0415 83.8104 19.2671 82.7257C17.4265 82.0074 15.5859 82.0342 13.5797 82.2387C11.5943 82.4457 9.43958 82.8304 6.95356 82.8304C4.28348 82.8304 0.175293 80.9544 0.175293 75.7404V31.0845H46.817V75.744C46.817 80.9581 42.7088 82.834 40.0387 82.834C37.5539 82.834 35.3992 82.4493 33.4126 82.2424C31.4015 82.0342 29.5609 82.0074 27.7252 82.7293C24.9533 83.8104 23.8931 85.1446 23.4943 86.4217Z" fill="#EC1C24"/>
<path fill-rule="evenodd" clip-rule="evenodd" d="M14.9578 56.9586L14.9701 56.9757C14.9861 57.0004 15.0001 57.0265 15.0118 57.0536L15.0474 57.0049C15.0559 56.9939 15.0682 56.9781 15.0817 56.9586H14.959H14.9578ZM14.7246 56.7152L14.6989 56.7358C14.6345 56.7855 14.5726 56.8383 14.5136 56.8941C14.5651 56.8844 14.613 56.8722 14.6449 56.8649L14.7246 56.7152ZM29.1941 57.0913C29.2573 57.0557 29.3317 57.0451 29.4025 57.0615C29.4732 57.078 29.5351 57.1204 29.5757 57.1802C29.6158 57.2406 29.6318 57.3137 29.6207 57.3852C29.6096 57.4567 29.5722 57.5216 29.5156 57.5673L29.4444 57.6343C29.4174 57.6586 29.3917 57.6842 29.3659 57.7097C29.5367 57.6468 29.7042 57.5753 29.8678 57.4955C30.1647 57.3567 30.5684 57.1571 30.9009 57.1692L31.0973 57.1765L31.1586 57.3616C31.174 57.4183 31.1746 57.478 31.1604 57.535C31.1463 57.5921 31.1178 57.6446 31.0776 57.6878C31.6482 57.5819 32.3845 57.4955 32.7894 57.6964L32.9452 57.7743V57.9471C32.9457 58.0007 32.9365 58.0538 32.9182 58.1042L34.0471 58.081L34.0164 58.1724H34.3465C34.2901 58.3647 34.2729 58.5948 34.1097 58.7275H34.1306C34.5478 58.7372 34.9674 58.7628 35.2165 59.1499L35.2312 59.173L35.2411 59.1986C35.5736 60.041 36.3147 60.6996 36.981 61.2864L37.0068 61.3083L37.0264 61.3363C37.5062 62.0278 37.6792 63.3864 37.878 64.2179L37.9553 64.5417L37.6203 64.5636C37.4561 64.5755 37.2919 64.5408 37.1467 64.4638C37.0923 64.4342 37.0409 64.3996 36.9933 64.3603C37.2866 64.7559 37.4988 65.1638 37.2043 65.6665C37.0658 65.8815 36.9977 66.1336 37.0092 66.3884C37.0227 66.6137 37.0939 66.8316 37.1111 67.0568C37.1296 67.2597 37.0949 67.4639 37.0105 67.6496C36.9914 67.6931 36.9633 67.732 36.928 67.7639C36.8926 67.7958 36.8509 67.8199 36.8056 67.8347C36.7466 67.8523 36.6842 67.8549 36.6239 67.8424C36.5637 67.8298 36.5076 67.8025 36.4607 67.7629C36.5209 67.9954 36.6031 68.2182 36.6853 68.4495C36.8779 68.9985 36.9847 69.4562 36.9086 70.0442L36.8608 70.4094L36.5196 70.2707L36.4792 70.2548C36.5755 70.5285 36.6924 70.7947 36.8289 71.051C37.1111 71.6207 37.6338 72.3901 37.4706 73.0475L37.4485 73.1303L37.3847 73.1887C36.5945 73.8936 35.6214 74.484 34.8251 75.1804C34.2619 75.5139 32.0703 75.7343 31.6347 75.0257C31.4838 74.7823 31.663 74.3793 32.0237 74.0299C32.1844 73.8801 32.3609 73.7478 32.5501 73.6355C32.7587 73.504 33.344 73.2021 33.441 72.9818C33.4817 72.8843 33.5098 72.782 33.5244 72.6774C33.4196 72.2478 33.2201 71.8466 32.9403 71.5027L32.7734 72.6068L32.3918 72.3146C31.9366 71.9665 31.5439 70.6834 31.4102 70.0637C31.1954 70.8112 30.9022 70.1855 30.7574 69.8775C30.6825 69.7168 30.6101 69.5548 30.5341 69.3905C30.5107 69.3418 30.4653 69.2469 30.4114 69.147V69.1872C30.4114 69.4185 30.4359 69.8373 30.1205 69.8811C30.1978 70.0442 30.1623 70.2609 30.1205 70.4301C30.1009 70.5239 30.0641 70.6371 30.0457 70.732L30.2101 71.3882C30.4555 72.3621 30.5095 73.4651 29.5549 74.0908C29.1352 74.3671 28.4149 74.6058 27.9302 74.7531C27.5146 74.886 27.0892 74.9866 26.6578 75.0537C26.2443 75.0769 24.6123 75.0537 24.508 74.2649V74.2357C24.4896 73.5052 25.6234 73.1546 26.1706 72.8844C26.4332 72.7553 27.0811 72.4522 27.1707 72.1539C27.1835 72.1084 27.1861 72.0606 27.1781 72.014C27.1754 71.9961 27.1709 71.9785 27.1646 71.9616C27.1376 71.891 27.0971 71.8204 27.0676 71.7498C27.0117 71.6211 26.9753 71.4849 26.9596 71.3456C26.9523 71.2799 26.9425 71.1301 26.929 70.9926C26.8997 71.0144 26.8663 71.0301 26.8308 71.0388C26.7572 71.0542 26.6806 71.0441 26.6136 71.0102C26.5466 70.9763 26.4933 70.9207 26.4627 70.8526C26.4295 70.7929 26.4001 70.7308 26.3731 70.6663C26.2921 70.4813 26.2209 70.2901 26.1522 70.1014C26.0565 69.8434 25.9719 69.5792 25.8761 69.3223C25.8287 69.1931 25.809 69.0554 25.8185 68.9182L25.7915 68.9096C25.562 68.8317 25.4859 68.587 25.4234 68.3776C25.3792 68.5602 25.3007 68.7538 25.0798 68.7611C25.0197 68.765 24.9599 68.7497 24.9092 68.7173C24.7711 68.623 24.6417 68.5167 24.5227 68.3996C24.4491 68.5895 24.3534 68.783 24.1006 68.7575C23.9456 68.7436 23.7895 68.7481 23.6355 68.7709C23.4736 68.7903 23.2601 68.8658 23.1079 68.7903C22.9754 68.7246 22.8551 68.3521 22.7606 68.4714L22.568 68.7149H22.5091C22.5133 68.7724 22.5133 68.8302 22.5091 68.8877L22.4711 69.2639L22.2502 69.1738C22.2719 69.2944 22.2838 69.4165 22.2858 69.539L22.2956 70.1623L22.0342 69.9408L21.9901 71.2994L21.6011 71.6877C21.5588 71.8277 21.5409 71.9739 21.5483 72.1199C21.5483 72.4973 21.5986 72.9915 21.2219 73.2155C21.1628 73.2541 21.0949 73.2771 21.0244 73.2825V73.4359H20.9434C20.9434 73.4651 20.9434 73.4906 20.9372 73.5113C20.925 73.6465 20.9139 73.7804 20.8967 73.9155C20.8489 74.3002 20.7188 74.8724 20.217 74.8529C18.988 74.8063 17.7619 75.0016 16.6094 75.4275C16.5431 75.4534 16.4693 75.4534 16.403 75.4274C16.3367 75.4014 16.2828 75.3514 16.2523 75.2875C16.2426 75.269 16.2352 75.2493 16.2302 75.229C16.0609 75.2802 15.8989 75.2765 15.7897 75.1463C15.7437 75.0837 15.7188 75.0083 15.7188 74.9308C15.7188 74.8533 15.7437 74.7779 15.7897 74.7153H15.7775L15.51 74.6131L15.6167 74.3489C15.6448 74.2778 15.6828 74.211 15.7296 74.1505C16.0057 73.7852 16.5468 73.6745 16.9665 73.5539C17.4217 73.4237 17.8831 73.2861 17.8831 72.7334V72.4461H17.9923C18.0128 72.2961 17.9951 72.1433 17.9408 72.0018L17.8316 71.9945L17.7542 71.8825C17.526 71.5587 17.6855 71.0595 17.6144 70.922C17.6041 70.9184 17.5933 70.9164 17.5825 70.9159L17.391 70.8952L17.3395 70.7126C17.3128 70.5925 17.2968 70.4703 17.2916 70.3474C17.2782 70.183 17.2671 70.0175 17.2499 69.8531C17.2499 69.8044 17.2352 69.7095 17.2205 69.6096C17.208 69.6183 17.1949 69.626 17.1812 69.6328C16.9959 69.7289 16.8229 69.6328 16.6904 69.4976L16.6327 69.4416L16.6143 69.3625C16.5477 69.0818 16.457 68.8073 16.3431 68.542L16.272 68.3837L16.1885 68.2535C16.155 68.5205 16.0565 68.7753 15.9014 68.9961C15.8055 69.1208 15.6988 69.2369 15.5824 69.343C15.4388 69.4757 15.2277 69.6388 15.0326 69.455C15.0105 69.4346 14.9919 69.4108 14.9774 69.3844C14.6461 69.6035 13.4473 69.9554 13.905 69.2554L13.2105 69.8641C13.1664 69.8993 13.1132 69.9215 13.057 69.9282C13.0008 69.9348 12.9439 69.9257 12.8926 69.9018C12.8413 69.8776 12.7985 69.8386 12.7699 69.7898L12.7245 69.8446C12.5834 70.6456 11.8116 70.8282 11.7429 71.4369L11.7355 71.4941L11.7073 71.5453C11.6251 71.6877 11.6104 71.8155 11.4877 71.9506C11.3644 72.0843 11.1975 72.1705 11.0165 72.1941C10.0839 72.356 9.95016 72.3013 9.52683 71.471C9.42486 71.2258 9.40214 70.9553 9.46179 70.6967L9.48142 70.5933L9.5575 70.5348C9.58327 70.4861 9.61517 70.2767 9.64217 70.183C9.68807 70.0095 9.75438 69.842 9.83973 69.6839C9.99924 69.3747 10.2213 69.0752 10.3232 68.7404V68.71C10.3964 68.578 10.481 68.4525 10.576 68.335C10.5917 68.3138 10.6029 68.2895 10.6089 68.2637C10.6148 68.238 10.6153 68.2113 10.6103 68.1853L10.5944 68.0636L10.6655 67.9698C10.7869 67.8029 10.8917 67.6248 10.9784 67.4378C11.2337 66.9302 11.4693 66.453 12.003 66.201C12.2305 66.0115 12.4864 65.8583 12.7613 65.7469C13.012 65.6495 13.2504 65.5237 13.4718 65.3719L13.4829 65.3634L13.4951 65.3549C13.7504 65.1893 14.0596 65.1017 14.2792 64.8947L14.4596 64.7255L14.3369 64.3396C14.2877 64.1464 14.2818 63.9448 14.3197 63.7492C14.3438 63.6166 14.3561 63.4822 14.3565 63.3474C14.1676 63.4813 13.9381 63.5909 13.727 63.4777C13.5405 63.3742 13.5049 63.1478 13.4276 62.9384C13.3896 62.97 13.3503 63.0017 13.3123 63.0309C13.1761 63.1307 13.008 63.2001 12.8485 63.093C12.7923 63.0586 12.7492 63.0069 12.7258 62.9457C12.6954 63.012 12.6515 63.0714 12.5968 63.12C12.5421 63.1687 12.4778 63.2055 12.408 63.2281L12.2214 63.2926L12.0987 63.1405C12.0188 63.0324 11.9655 62.9074 11.9429 62.7753C11.8977 62.834 11.8391 62.8811 11.7719 62.9129C11.7047 62.9447 11.6308 62.9601 11.5564 62.9579H11.3466L11.284 62.7619C11.2747 62.7297 11.2602 62.6993 11.241 62.6718C11.0643 62.4088 10.4803 62.3066 10.1894 62.2627C9.89862 62.2189 9.56855 62.1836 9.26423 62.1215C8.61389 61.9888 8.37462 61.7295 8.09608 61.3461L7.90343 61.1026C7.73164 60.6595 7.78808 60.1409 7.7071 60.0422L7.6936 60.0349L7.51568 59.9643V59.7744C7.51083 59.716 7.50056 59.6581 7.485 59.6016C7.46419 59.5063 7.46169 59.408 7.47764 59.3118L7.50463 59.1682L7.63838 59.1073C8.26296 58.8212 9.11085 58.6106 9.56854 58.0896L9.69125 57.9544L9.73911 57.9691C9.84255 57.8221 9.9372 57.6693 10.0226 57.5113C10.1269 57.3299 10.3379 56.9148 10.495 56.7906H10.5023L10.5122 56.7845C10.8595 56.5254 11.229 56.2969 11.6165 56.1016C11.5929 56.0821 11.5708 56.0609 11.5502 56.0383C11.2901 55.7498 11.3821 55.2847 11.5625 54.9804C11.7294 54.6967 12.0533 54.323 12.3994 54.323H12.4288L12.4583 54.3291C12.5454 54.3473 12.7834 54.5531 12.9957 54.6079C13.1687 54.6529 13.3724 54.7296 13.3638 54.9463C13.77 54.7028 14.2326 54.6493 14.6915 54.9901C15.0596 55.2932 15.0474 55.992 14.8596 56.451C14.917 56.3709 14.9875 56.301 15.0682 56.244C15.3946 56.0139 15.7137 56.0468 16.0634 55.9397L16.4315 55.8277V56.2075C16.4329 56.2375 16.4291 56.2676 16.4204 56.2964C16.4204 56.3134 16.4106 56.3292 16.4057 56.3451C16.5137 56.3451 16.6229 56.3353 16.7346 56.3256C16.9591 56.3061 17.2708 56.2477 17.4193 56.4668C17.4552 56.5243 17.475 56.5903 17.4765 56.658C17.478 56.7256 17.4612 56.7925 17.4279 56.8515C17.5579 56.8101 17.6733 56.7663 17.7322 56.7444C18.0248 56.6318 18.3089 56.4988 18.5825 56.3463C19.1519 55.8228 19.8096 55.7376 20.5679 55.7924C21.065 55.8509 21.5571 55.9453 22.0404 56.0748C22.73 56.2392 23.4171 56.4193 24.103 56.5995C24.8835 56.8052 25.6639 57.0158 26.448 57.2082C26.6627 57.2593 27.4627 57.4626 27.6873 57.4517C27.8913 57.3608 28.1089 57.3036 28.3315 57.2824C28.627 57.2615 28.9177 57.1971 29.1941 57.0913Z" fill="#231F20"/>
<path fill-rule="evenodd" clip-rule="evenodd" d="M15.2952 66.3448C15.2228 66.6516 14.8731 66.8695 15.0928 67.2189C15.7296 67.0728 15.6278 66.9121 15.5603 67.4526C15.5603 67.4757 15.2915 68.0783 15.4719 68.0783C16.5677 68.0783 15.2057 69.3566 15.2192 69.2349C15.2361 69.1065 15.2047 68.9764 15.1308 68.8696C14.8523 69.2044 14.4117 69.3359 14.0154 69.4528C14.0412 69.4223 14.2608 68.9451 14.1038 68.9719L13.8387 69.0157L13.0313 69.6244C12.8767 69.7462 13.3761 68.5568 12.4448 69.7121C12.3564 70.4839 11.538 70.6166 11.4496 71.3884C11.3269 71.5929 11.3269 71.8254 11.0386 71.84C11.1269 71.6501 10.8803 71.3981 10.8214 71.2667C10.6152 71.3105 10.6655 71.672 10.5931 71.8461C10.4164 71.7597 10.5931 71.1948 10.1919 71.3592C10.0017 71.4809 10.1919 71.6769 10.0054 71.7646C10.0348 71.5308 9.63727 71.1924 9.72807 70.7408C9.86059 70.6385 9.85078 70.406 9.90477 70.2453C10.0373 69.7206 10.4214 69.3371 10.5833 68.8124C10.6864 68.5799 10.9355 68.463 10.8913 68.1429C11.3318 67.5744 11.446 66.7453 12.165 66.4385C12.5478 66.0587 13.2546 65.9102 13.6522 65.5864C14.078 65.31 14.3713 65.1907 14.7676 64.9144C15.1873 65.086 14.9026 65.601 14.9394 65.9065C14.959 66.0721 14.7418 66.4203 15.2952 66.3411M12.5736 62.0158C12.8031 62.0548 13.0644 62.0535 13.1957 62.28C13.2301 62.3408 13.3184 62.3287 13.3184 62.2374C13.3184 61.7675 14.0363 62.4078 14.0424 61.7504C14.0424 61.4546 14.2571 61.5191 14.4976 61.5191C14.7381 61.5191 14.8658 61.429 14.9492 61.1782C14.7109 61.2748 14.4478 61.2932 14.1982 61.2306C14.0314 61.2038 13.7958 61.1088 13.7958 61.3913C13.7958 61.5422 13.8706 61.7833 13.7958 61.8295C13.7306 61.8393 13.6641 61.825 13.6089 61.7893C13.5537 61.7536 13.5137 61.699 13.4964 61.636C13.4497 61.5142 13.2657 61.3475 13.2203 61.5215C13.1651 61.7358 13.1602 61.9038 12.7859 61.8088C12.7503 61.7991 12.5675 61.6871 12.5098 61.6506C12.2276 61.4972 12.1061 61.9342 12.5736 62.0158ZM10.9895 58.78C11.0864 59.2572 11.1944 59.1452 10.2974 58.9322C10.1195 58.892 10.6373 57.7428 10.9858 58.78H10.9895ZM27.7891 57.716C28.437 57.4385 28.4027 57.6758 29.2984 57.3508C29.5107 57.2473 28.8002 57.7087 28.9242 58.0106C29.3598 58.2273 30.3463 57.4299 30.8875 57.4494C30.9022 57.4908 30.4776 57.9011 30.6997 58.052C31.2543 57.9303 32.2446 57.7404 32.663 57.9461C32.663 58.1677 32.2949 58.1336 32.3931 58.3965L33.8103 58.3649C33.7772 58.4659 33.933 58.4477 33.9772 58.4477C33.8643 58.6157 33.4765 58.651 33.4054 58.8494C33.8348 59.1659 34.6533 58.8007 34.9711 59.295C35.3184 60.1751 36.0534 60.8435 36.7872 61.4862C37.2166 62.1047 37.4154 63.5168 37.5958 64.274C36.9589 64.3142 36.8056 63.462 36.4178 63.0494C35.6816 64.0732 37.489 64.6039 36.954 65.5158C36.3969 66.4653 37.0375 66.8853 36.7454 67.5232C36.6473 67.7399 36.219 66.9048 36.1086 67.4417C36.219 68.362 36.7602 68.9403 36.6215 69.9982C36.3859 69.902 36.3994 69.4479 36.1086 69.6269C35.9982 70.6775 37.4093 71.8997 37.1589 72.8955C36.4657 73.5139 35.338 74.3381 34.6312 74.9565C34.0066 75.015 33.3305 74.948 32.7833 75.2C32.7833 74.5025 32.6974 74.9797 32.2838 74.9797C32.4274 74.9091 32.4667 74.7058 32.4924 74.567C32.3697 74.5195 32.0188 74.6522 31.8961 74.7739C32.0703 73.9108 33.441 73.6661 33.6974 73.0891C33.7608 72.9456 33.7966 72.7916 33.8029 72.635C33.7355 72.215 33.2704 71.1741 32.7256 71.0074L32.5624 72.0811C32.1047 71.7317 31.7366 70.8467 31.6728 70.2477C31.7771 69.7291 31.1599 69.3201 31.1599 70.042C30.9721 69.7985 30.123 67.393 30.123 69.1789C30.123 70.8929 29.5021 66.7526 29.0702 66.8415C28.6812 67.309 29.2383 68.1806 29.0285 68.6846C28.8959 69.0035 28.7426 68.3559 28.426 68.2135C28.2468 69.6743 28.2517 68.3498 27.6627 68.4996C27.5069 68.5397 27.3179 68.6213 27.1719 68.6018C26.8173 68.5397 26.6063 67.802 26.4001 68.1295C25.5117 69.5343 25.8823 67.533 25.2356 67.9006C25.1988 67.9213 25.135 68.5093 25.0516 68.4643C24.8246 68.3255 24.843 68.2792 24.6098 68.099C24.2417 67.8178 24.2871 68.4801 24.119 68.4643C23.3288 68.3839 23.1472 68.855 23.065 67.7217C23.265 67.7874 23.0257 65.8469 22.3864 66.0855C22.3361 66.3131 22.6576 67.2956 22.4281 67.2956L22.3054 68.4229C22.1766 68.4229 22.2318 68.7491 22.222 68.8489C22.0993 68.8015 21.9238 67.858 21.8894 67.6803C21.6821 67.5013 21.6919 67.0716 21.5815 67.1117C21.3446 68.0856 21.9827 68.6237 21.9974 69.5331C21.3238 68.9597 21.806 69.6037 21.752 69.8764L21.7103 71.1693L21.363 71.5138C21.1299 71.9642 21.433 72.7519 21.0722 72.9746C20.8734 73.0964 20.7397 72.6545 20.7397 73.1536C20.5814 73.1536 20.7397 74.5889 20.2268 74.5694C18.9614 74.5205 17.6988 74.7216 16.5125 75.1611C16.4327 75.1891 17.0941 74.8859 16.6781 74.6522C16.1714 75.0296 15.6241 75.2024 16.3456 74.4866C16.2229 74.3077 16.0548 74.5146 15.8744 74.4452C16.2008 73.6369 18.1616 74.0727 18.1616 72.7263C18.3162 72.7263 18.369 71.7524 17.9813 71.7232C17.7592 71.4067 18.1334 70.6908 17.6131 70.6361C17.542 70.3926 17.5641 68.8343 17.1972 68.9999C17.0315 69.0681 17.1972 69.583 16.8929 69.2884C16.7395 68.642 16.2965 68.1611 16.2965 67.4319C16.2711 67.4089 16.2397 67.3936 16.2058 67.3875C16.172 67.3814 16.1371 67.385 16.1052 67.3977C16.0733 67.4104 16.0457 67.4318 16.0255 67.4594C16.0053 67.4869 15.9933 67.5196 15.991 67.5537C15.921 67.3102 16.0057 65.9345 15.7051 65.8968C15.337 66.5335 15.5075 65.8177 15.2057 65.5669C15.2474 65.2784 15.159 65.0093 15.2057 64.7147C14.8044 64.7281 15.1787 63.8212 14.624 64.2473C14.4854 63.8066 14.9283 63.1187 14.3602 62.9958C13.6142 63.5874 13.9406 62.9654 13.5148 62.4869C12.592 63.3464 13.3393 62.4516 12.711 62.3652C12.4889 62.4869 12.6141 62.8607 12.3368 62.9568C12.2141 62.8059 12.2399 62.4699 12.0914 62.3238C11.7723 62.269 11.8558 62.6683 11.5785 62.6683C11.2631 61.6664 8.66666 62.14 8.83354 61.4436C9.4164 61.4716 9.87286 61.3061 10.1919 60.8666C10.0115 60.5915 9.7293 60.8666 9.46671 60.8666C9.10595 61.1831 8.57341 60.7619 8.14394 60.9129C7.86294 60.5769 8.23719 59.9304 7.82122 59.7649C7.82122 59.6139 7.75251 59.5031 7.78073 59.3522C8.47279 59.0357 9.29124 58.8433 9.80415 58.2663C9.99066 58.3211 10.5109 57.1438 10.6913 57.0014C11.1699 56.6764 11.8926 56.1018 12.5074 56.2028C12.5528 56.8882 12.9773 56.5425 13.3111 56.4645C13.2829 56.1346 12.8117 55.9277 13.1025 55.5296C13.5319 55.0682 14.0387 54.8223 14.5443 55.1997C14.8559 55.4541 14.748 56.204 14.5443 56.5059C13.9455 56.9625 13.9037 57.3496 14.7529 57.1244C14.8756 57.3118 14.5467 57.7331 15.1676 57.6332C15.148 57.6941 14.9357 57.9461 15.0854 57.9984C15.4535 58.1445 15.2081 58.0058 15.2511 58.343C15.5419 58.6315 15.6535 58.1774 15.8474 58.0812C15.2241 57.8536 16.2094 57.4348 15.8891 57.3386L15.2731 57.1731C15.5775 56.7701 15.4339 56.6776 15.0658 56.6776C15.2744 56.2905 15.802 56.3197 16.1603 56.2101C16.1603 56.3319 15.8695 56.3879 15.8695 56.596C16.9849 56.7628 17.6659 56.2028 16.8401 57.2145C17.2377 57.352 18.4868 56.7397 18.7654 56.5741C18.9703 56.3721 19.2236 56.225 19.5016 56.1468V56.9162C19.5026 56.9766 19.5079 57.0368 19.5175 57.0964C19.5948 57.4798 19.9617 57.8268 20.6121 57.8268H27.4627V57.7051C27.5696 57.7308 27.6807 57.7345 27.7891 57.716ZM12.9098 54.9708C12.7871 55.2253 12.5417 55.3896 12.5785 55.7475C11.2288 56.5145 11.5895 54.7456 12.3515 54.7456C12.7699 54.8345 13.3921 54.9501 12.9098 54.9708ZM27.2983 69.5745C27.3535 69.2482 27.2394 68.8149 27.5167 68.7771C27.945 68.7175 27.7904 69.6293 28.2333 69.6183C28.5217 69.6183 28.4211 68.8879 28.6726 68.9512C29.723 69.2154 28.9769 69.7839 29.8003 69.9519C29.9978 69.9921 29.7389 70.6823 29.7561 70.7493L29.9316 71.4517C30.15 72.3185 30.2273 73.3058 29.3954 73.8524C28.6591 74.3393 25.5645 75.2475 25.9915 74.5402C26.4185 73.8329 25.4442 74.4574 25.2749 74.4099C25.6958 73.5919 24.8332 74.5938 24.7841 74.2237C24.7706 73.7087 25.7436 73.4007 26.2897 73.128C26.9854 72.7847 27.5302 72.4706 27.4505 71.9581C27.4198 71.7573 27.2738 71.6441 27.2333 71.2995C27.1756 70.8126 27.2136 70.1528 26.7547 70.7505C26.6848 70.8418 26.1633 69.2896 26.1326 69.2105C25.9522 68.7345 26.3412 68.3133 26.6234 68.838C26.9707 69.4649 27.2983 69.5842 27.2983 69.5745Z" fill="#DCDCDE"/>
<path fill-rule="evenodd" clip-rule="evenodd" d="M13.5749 56.1406C13.613 56.3999 13.7111 56.6275 13.9615 56.6275C14.1038 56.6275 14.3173 56.3366 14.3639 56.1576C14.4106 55.9787 14.4314 55.7437 14.3345 55.6707C14.2596 55.611 14.0204 55.7924 13.9897 55.6536C13.921 55.3298 13.797 55.4223 13.6829 55.5538C13.4756 55.7973 13.5602 56.0103 13.5749 56.1491M26.8174 48.7937H27.4689V57.8242H20.6183C19.9679 57.8242 19.601 57.4797 19.5237 57.0938C19.5141 57.0342 19.5088 56.974 19.5078 56.9136V48.0194C19.5409 47.6092 19.9299 47.2087 20.687 47.177L26.9032 47.188L26.7609 47.3973C26.6417 47.5967 26.5787 47.8242 26.5787 48.0559C26.5787 48.2877 26.6417 48.5152 26.7609 48.7146L26.8174 48.7937Z" fill="#231F20"/>
<path fill-rule="evenodd" clip-rule="evenodd" d="M22.8686 56.7945H22.2097V56.1407L22.8686 56.7945ZM26.4271 56.1407V56.7945H25.7682L26.4271 56.1407ZM25.7682 49.8237H26.4271V50.4775L25.7682 49.8237ZM23.0687 49.8237H25.5694L26.4283 50.6759V55.9411L25.5694 56.7932H23.0699L22.2109 55.9411V50.6771L23.0687 49.8237ZM22.2097 49.8237H22.8699L22.2097 50.4775V49.8237ZM22.0686 56.9345H26.5719V49.6813H22.0686V56.9345ZM24.346 51.1714H24.5988V51.6705H25.1497V51.9225H24.5988V52.6675H25.6663V52.9183H24.5988V54.2282L25.2123 54.5764V54.8272L24.5988 54.479V55.5101H24.346V54.3341L23.7325 53.986V53.7352L24.346 54.0834V52.9183H23.2785V52.6675H24.346V51.9225H23.7951V51.6705H24.346V51.1714ZM24.7399 51.5305H25.2909V52.0625H24.7399V52.5275H25.8087V53.0595H24.7399V54.1467L25.3534 54.4948V55.0707L24.7399 54.7225V55.6465H24.2037V54.4157L23.5963 54.0639V53.4917L24.2037 53.8399V53.0595H23.1361V52.5275H24.2037V52.0625H23.654V51.5305H24.2037V51.0314H24.7399V51.5305ZM21.314 57.6844H27.3265V48.9338H21.314V57.6844Z" fill="#D8A456"/>
<path fill-rule="evenodd" clip-rule="evenodd" d="M20.7125 47.3172H26.6453C26.5598 47.448 26.5002 47.5939 26.4699 47.7469H21.6046V47.8686H26.4502C26.4322 48.0198 26.4363 48.1727 26.4625 48.3227H21.9678V48.4445H26.4907C26.5228 48.567 26.575 48.6834 26.6453 48.789H20.7125C19.3628 48.789 19.3628 47.3038 20.7125 47.3123" fill="white"/>
<path fill-rule="evenodd" clip-rule="evenodd" d="M22.7376 43.6163L21.794 41.1597L22.0995 41.2339C22.981 41.4518 23.9029 41.4518 24.7843 41.2339L25.0899 41.1597L24.1463 43.6163L26.4691 42.7057L26.393 43.0137C26.1734 43.8882 26.1734 44.8029 26.393 45.6774L26.4691 45.9854L24.2849 45.1332L25.0948 47.1674L24.7843 47.092C23.9027 46.8753 22.9811 46.8753 22.0995 47.092L21.7891 47.1674L22.6002 45.1332L20.416 45.9854L20.4909 45.6774C20.7105 44.8029 20.7105 43.8882 20.4909 43.0137L20.416 42.7057L22.7376 43.6163Z" fill="#231F20"/>
<path fill-rule="evenodd" clip-rule="evenodd" d="M20.6514 42.9747L23.0257 43.9048L22.0601 41.3933C22.9673 41.6173 23.9161 41.6173 24.8234 41.3933L23.8626 43.9048L26.237 42.9747C26.0112 43.8748 26.0112 44.8161 26.237 45.7162L23.9853 44.8373L24.8185 46.9299C23.9112 46.706 22.9624 46.706 22.0551 46.9299L22.8883 44.8373L20.6465 45.7162C20.8723 44.8161 20.8723 43.8748 20.6465 42.9747" fill="#DCDCDE"/>
<path fill-rule="evenodd" clip-rule="evenodd" d="M19.6489 56.7604V56.9199C19.6502 56.9713 19.6551 57.0226 19.6636 57.0733C19.7557 57.5128 20.2085 57.682 20.6171 57.682H21.1717V57.1877H20.606C20.3577 57.1925 20.1129 57.1285 19.8992 57.0027C19.8013 56.9393 19.7177 56.8564 19.6538 56.7592M19.6538 56.1505C19.6535 56.2482 19.6601 56.3459 19.6735 56.4427V56.4743C19.6918 56.5603 19.7276 56.6416 19.7787 56.7134C19.8297 56.7852 19.895 56.8459 19.9704 56.8919C20.163 57.0049 20.3836 57.0623 20.6073 57.0575H21.1729V56.5839H20.6073C20.3587 56.5899 20.1136 56.5257 19.9005 56.3989C19.7999 56.3362 19.7141 56.2527 19.6489 56.1542L19.6538 56.1505ZM19.6538 53.3116V55.5954C19.6556 55.6871 19.6633 55.7786 19.6771 55.8693C19.6958 55.9551 19.7318 56.0363 19.7828 56.1081C19.8338 56.1798 19.8989 56.2406 19.9741 56.2869C20.1665 56.4001 20.3873 56.457 20.6109 56.4512H21.1766V53.745H20.6109C20.3624 53.7499 20.1174 53.6854 19.9042 53.5587C19.8024 53.4968 19.7153 53.4137 19.6489 53.3152L19.6538 53.3116ZM19.6538 52.7029C19.6534 52.8006 19.66 52.8983 19.6735 52.9951V53.0279C19.6922 53.1138 19.7281 53.195 19.7791 53.2667C19.8301 53.3384 19.8952 53.3992 19.9704 53.4455C20.163 53.5585 20.3836 53.6158 20.6073 53.6111H21.1729V53.1387H20.6073C20.3587 53.1437 20.1138 53.0791 19.9005 52.9525C19.7997 52.8904 19.7139 52.8074 19.6489 52.709L19.6538 52.7029ZM19.6538 49.7142V52.2707C19.6589 52.3214 19.6667 52.3718 19.6771 52.4217C19.6955 52.5076 19.7313 52.589 19.7824 52.6607C19.8334 52.7325 19.8986 52.7933 19.9741 52.8392C20.1667 52.9522 20.3873 53.0096 20.6109 53.0048H21.1766V50.144H20.6109C20.3625 50.1494 20.1176 50.0852 19.9042 49.9589C19.8032 49.8984 19.7166 49.817 19.6502 49.7203L19.6538 49.7142ZM19.6538 49.1055C19.6531 49.2032 19.6592 49.3009 19.6722 49.3977V49.4294C19.6906 49.5153 19.7264 49.5966 19.7774 49.6684C19.8285 49.7402 19.8937 49.8009 19.9692 49.8469C20.1618 49.9599 20.3823 50.0173 20.606 50.0125H21.1717V49.5365H20.606C20.3575 49.5415 20.1125 49.4769 19.8992 49.3502C19.8001 49.2901 19.7151 49.2096 19.6502 49.1141L19.6538 49.1055ZM19.8784 52.2707H20.0011V50.4118H19.8784V52.2707ZM20.3128 52.3998H20.4355V50.5445H20.3128V52.3998ZM20.7471 52.5215H20.8698V50.6638H20.7471V52.5215ZM19.8747 55.89H19.9974V54.0262H19.8747V55.89ZM20.3091 56.019H20.4318V54.1552H20.3091V56.019ZM20.7435 56.1408H20.8662V54.2745H20.7435V56.1408ZM19.6502 48.5054C19.6494 48.6039 19.6556 48.7023 19.6686 48.8V48.8328C19.6873 48.9187 19.7232 48.9999 19.7742 49.0716C19.8252 49.1433 19.8903 49.2042 19.9655 49.2504C20.1581 49.3634 20.3787 49.4208 20.6023 49.416H21.168V48.9351H20.6858C20.1815 48.9351 19.8281 48.7525 19.6502 48.5054Z" fill="#D8A456"/>
<path fill-rule="evenodd" clip-rule="evenodd" d="M36.4374 19.6278C36.6121 19.659 36.785 19.6997 36.9552 19.7495C37.0675 19.7822 37.1761 19.8262 37.2792 19.881C37.9111 20.2134 38.1909 20.8306 37.2865 21.0436C36.8718 21.1359 36.4821 21.3161 36.1442 21.572C35.5306 22.0407 35.0533 22.7394 34.6987 23.4163C34.3207 24.1699 33.9963 24.9489 33.7281 25.7476C33.371 26.7531 33.0483 27.8025 32.6237 28.7801C32.418 29.2826 32.0381 29.6958 31.5525 29.9451C30.7623 30.3675 29.6739 30.4783 28.7916 30.5124C25.2601 30.6463 21.7266 30.6463 18.1911 30.5124C17.31 30.4783 16.2216 30.3675 15.4314 29.9451C14.9456 29.6961 14.5656 29.2829 14.3602 28.7801C13.9307 27.8062 13.6092 26.7531 13.2558 25.7476C12.988 24.949 12.6641 24.17 12.2865 23.4163C11.9306 22.7394 11.4594 22.0407 10.8398 21.572C10.5024 21.316 10.1131 21.1357 9.6986 21.0436C9.46546 20.9888 9.15501 20.8707 9.12434 20.5944C9.08016 20.1878 9.69246 19.8469 10.0287 19.7495C10.199 19.6998 10.3718 19.6592 10.5465 19.6278C9.71455 18.0209 9.22618 16.2191 9.36607 14.3992C9.48877 12.7837 10.1133 11.2522 11.2619 10.0872C12.4705 8.86008 14.0841 8.22096 15.7958 8.1394C17.4757 8.05418 19.1347 8.49365 20.6513 9.20217V9.0646C20.6503 8.44223 20.8562 7.83689 21.2371 7.34236C21.618 6.84783 22.1526 6.49171 22.7582 6.32915V5.02656H21.6894L20.7765 6.42898H20.0182V2.16815H20.7765L21.6894 3.57179H22.7582V2.00502L20.9937 0.875295V0H25.9939V0.875295L24.2306 2.00502V3.5657H25.2982L26.2111 2.16207H26.9707V6.42898H26.2111L25.2982 5.02656H24.2306V6.32915C24.8364 6.4904 25.3716 6.84536 25.7534 7.33903C26.1352 7.83269 26.3422 8.4375 26.3424 9.05974V9.1973C27.8591 8.48878 29.5193 8.04931 31.1991 8.13453C32.917 8.22096 34.5232 8.86495 35.7392 10.0823C36.8878 11.2474 37.5099 12.7788 37.6338 14.3943C37.7737 16.2082 37.2853 18.016 36.4534 19.6229" fill="#231F20"/>
<path fill-rule="evenodd" clip-rule="evenodd" d="M22.3436 16.1643L20.535 9.30189C19.0527 8.61651 17.4317 8.19164 15.7948 8.27442C14.115 8.35964 12.5382 8.98294 11.3541 10.1845C10.2289 11.3276 9.62029 12.8274 9.49881 14.4088C9.36015 16.213 9.85343 18.0098 10.6854 19.6046C10.8543 19.5786 11.0249 19.5639 11.1958 19.5607C7.45453 12.6704 12.6266 6.38505 20.0466 9.5965L21.8295 16.5003C21.9886 16.3707 22.1609 16.2581 22.3436 16.1643ZM36.2916 19.6046C37.1236 18.0098 37.6156 16.213 37.477 14.4088C37.3543 12.8262 36.7469 11.3276 35.6216 10.1845C34.4375 8.98294 32.862 8.35842 31.1821 8.27442C29.544 8.19164 27.9243 8.61651 26.4408 9.30189L24.6321 16.1643C24.8148 16.2589 24.9875 16.3714 25.1475 16.5003L26.9304 9.5965C34.3492 6.38505 39.5212 12.6704 35.7799 19.5607C35.9513 19.564 36.1222 19.5786 36.2916 19.6046Z" fill="#967039"/>
<path fill-rule="evenodd" clip-rule="evenodd" d="M27.8323 6.71997C28.0304 6.71997 28.224 6.77823 28.3886 6.88739C28.5533 6.99654 28.6816 7.15169 28.7574 7.3332C28.8332 7.51472 28.853 7.71445 28.8144 7.90715C28.7757 8.09985 28.6804 8.27685 28.5403 8.41578C28.4003 8.55471 28.2219 8.64932 28.0277 8.68765C27.8334 8.72598 27.6321 8.7063 27.4492 8.63112C27.2662 8.55593 27.1098 8.42861 26.9998 8.26525C26.8898 8.10189 26.8311 7.90982 26.8311 7.71335C26.8311 7.5829 26.857 7.45372 26.9073 7.3332C26.9576 7.21268 27.0313 7.10317 27.1243 7.01093C27.2173 6.91868 27.3277 6.84551 27.4492 6.79559C27.5706 6.74567 27.7008 6.71997 27.8323 6.71997Z" fill="#231F20"/>
<path fill-rule="evenodd" clip-rule="evenodd" d="M27.8321 6.86108C28.002 6.86108 28.168 6.91106 28.3093 7.0047C28.4505 7.09834 28.5606 7.23143 28.6256 7.38714C28.6907 7.54285 28.7077 7.71419 28.6745 7.8795C28.6414 8.0448 28.5596 8.19664 28.4394 8.31582C28.3193 8.435 28.1663 8.51616 27.9997 8.54904C27.833 8.58192 27.6603 8.56505 27.5034 8.50055C27.3464 8.43605 27.2123 8.32682 27.1179 8.18669C27.0235 8.04655 26.9731 7.88179 26.9731 7.71325C26.9731 7.48724 27.0636 7.27049 27.2247 7.11068C27.3858 6.95086 27.6043 6.86108 27.8321 6.86108Z" fill="#ADD4D6"/>
<path fill-rule="evenodd" clip-rule="evenodd" d="M30.847 6.26587C31.045 6.26587 31.2386 6.32413 31.4033 6.43328C31.5679 6.54244 31.6963 6.69758 31.772 6.8791C31.8478 7.06062 31.8677 7.26035 31.829 7.45305C31.7904 7.64575 31.695 7.82275 31.555 7.96168C31.415 8.1006 31.2365 8.19521 31.0423 8.23354C30.8481 8.27187 30.6468 8.2522 30.4638 8.17702C30.2808 8.10183 30.1245 7.9745 30.0144 7.81114C29.9044 7.64778 29.8457 7.45572 29.8457 7.25925C29.846 6.99589 29.9516 6.7434 30.1393 6.55718C30.327 6.37095 30.5815 6.26619 30.847 6.26587Z" fill="#231F20"/>
<path fill-rule="evenodd" clip-rule="evenodd" d="M30.8472 6.40698C31.0171 6.40698 31.1832 6.45696 31.3244 6.5506C31.4657 6.64424 31.5758 6.77733 31.6408 6.93304C31.7058 7.08875 31.7228 7.26009 31.6897 7.4254C31.6565 7.5907 31.5747 7.74254 31.4546 7.86172C31.3345 7.9809 31.1814 8.06206 31.0148 8.09494C30.8482 8.12782 30.6755 8.11095 30.5185 8.04645C30.3616 7.98195 30.2274 7.87272 30.133 7.73259C30.0387 7.59245 29.9883 7.42769 29.9883 7.25915C29.9883 7.03314 30.0788 6.81639 30.2399 6.65658C30.4009 6.49676 30.6194 6.40698 30.8472 6.40698Z" fill="#ADD4D6"/>
<path fill-rule="evenodd" clip-rule="evenodd" d="M34.035 6.92334C34.233 6.92334 34.4266 6.9816 34.5913 7.09076C34.7559 7.19991 34.8842 7.35505 34.96 7.53657C35.0358 7.71809 35.0556 7.91782 35.017 8.11052C34.9784 8.30322 34.883 8.48022 34.743 8.61915C34.603 8.75808 34.4245 8.85269 34.2303 8.89102C34.0361 8.92935 33.8348 8.90967 33.6518 8.83449C33.4688 8.7593 33.3125 8.63198 33.2024 8.46861C33.0924 8.30525 33.0337 8.11319 33.0337 7.91672C33.0337 7.65326 33.1392 7.40059 33.327 7.2143C33.5147 7.028 33.7694 6.92334 34.035 6.92334Z" fill="#231F20"/>
<path fill-rule="evenodd" clip-rule="evenodd" d="M34.0347 7.06323C34.2046 7.06323 34.3707 7.11321 34.5119 7.20685C34.6532 7.30049 34.7633 7.43358 34.8283 7.58929C34.8933 7.745 34.9103 7.91634 34.8772 8.08165C34.844 8.24695 34.7622 8.39879 34.6421 8.51797C34.522 8.63715 34.3689 8.71831 34.2023 8.75119C34.0357 8.78407 33.863 8.7672 33.706 8.7027C33.5491 8.6382 33.4149 8.52897 33.3205 8.38884C33.2262 8.2487 33.1758 8.08394 33.1758 7.9154C33.1758 7.68939 33.2663 7.47264 33.4274 7.31283C33.5884 7.15301 33.8069 7.06323 34.0347 7.06323Z" fill="#ADD4D6"/>
<path fill-rule="evenodd" clip-rule="evenodd" d="M36.6487 8.83447C36.8468 8.83447 37.0404 8.89273 37.205 9.00189C37.3697 9.11104 37.498 9.26619 37.5738 9.4477C37.6496 9.62922 37.6694 9.82896 37.6308 10.0217C37.5921 10.2144 37.4968 10.3914 37.3568 10.5303C37.2167 10.6692 37.0383 10.7638 36.8441 10.8021C36.6498 10.8405 36.4485 10.8208 36.2656 10.7456C36.0826 10.6704 35.9262 10.5431 35.8162 10.3797C35.7062 10.2164 35.6475 10.0243 35.6475 9.82785C35.6475 9.56439 35.753 9.31172 35.9407 9.12543C36.1285 8.93913 36.3832 8.83447 36.6487 8.83447Z" fill="#231F20"/>
<path fill-rule="evenodd" clip-rule="evenodd" d="M36.6485 8.97583C36.8184 8.97583 36.9844 9.02581 37.1257 9.11944C37.2669 9.21308 37.377 9.34617 37.442 9.50189C37.5071 9.6576 37.5241 9.82894 37.4909 9.99424C37.4578 10.1595 37.376 10.3114 37.2559 10.4306C37.1357 10.5497 36.9827 10.6309 36.8161 10.6638C36.6494 10.6967 36.4767 10.6798 36.3198 10.6153C36.1628 10.5508 36.0287 10.4416 35.9343 10.3014C35.8399 10.1613 35.7896 9.99654 35.7896 9.828C35.7896 9.60199 35.88 9.38523 36.0411 9.22542C36.2022 9.06561 36.4207 8.97583 36.6485 8.97583Z" fill="#ADD4D6"/>
<path fill-rule="evenodd" clip-rule="evenodd" d="M38.1859 11.6589C38.3839 11.6589 38.5775 11.7172 38.7421 11.8264C38.9068 11.9355 39.0351 12.0907 39.1109 12.2722C39.1867 12.4537 39.2065 12.6534 39.1679 12.8461C39.1293 13.0388 39.0339 13.2158 38.8939 13.3547C38.7538 13.4937 38.5754 13.5883 38.3812 13.6266C38.187 13.6649 37.9856 13.6453 37.8027 13.5701C37.6197 13.4949 37.4633 13.3676 37.3533 13.2042C37.2433 13.0408 37.1846 12.8488 37.1846 12.6523C37.1849 12.389 37.2905 12.1365 37.4782 11.9502C37.6659 11.764 37.9204 11.6593 38.1859 11.6589Z" fill="#231F20"/>
<path d="M39.0463 12.7383C39.0931 12.2693 38.7479 11.8514 38.2752 11.8049C37.8024 11.7584 37.3812 12.101 37.3343 12.57C37.2875 13.039 37.6327 13.4569 38.1055 13.5034C38.5782 13.5498 38.9994 13.2073 39.0463 12.7383Z" fill="#ADD4D6"/>
<path fill-rule="evenodd" clip-rule="evenodd" d="M38.4647 14.9678C38.6627 14.9678 38.8563 15.026 39.0209 15.1352C39.1856 15.2443 39.3139 15.3995 39.3897 15.581C39.4655 15.7625 39.4853 15.9623 39.4467 16.155C39.4081 16.3477 39.3127 16.5247 39.1727 16.6636C39.0326 16.8025 38.8542 16.8971 38.66 16.9354C38.4658 16.9738 38.2644 16.9541 38.0815 16.8789C37.8985 16.8037 37.7421 16.6764 37.6321 16.513C37.5221 16.3497 37.4634 16.1576 37.4634 15.9612C37.4634 15.6977 37.5689 15.445 37.7566 15.2587C37.9444 15.0724 38.1991 14.9678 38.4647 14.9678Z" fill="#231F20"/>
<path fill-rule="evenodd" clip-rule="evenodd" d="M38.4644 15.1077C38.6343 15.1077 38.8004 15.1576 38.9416 15.2513C39.0829 15.3449 39.193 15.478 39.258 15.6337C39.323 15.7894 39.34 15.9608 39.3068 16.1261C39.2737 16.2914 39.1919 16.4432 39.0718 16.5624C38.9516 16.6816 38.7986 16.7627 38.632 16.7956C38.4654 16.8285 38.2927 16.8116 38.1357 16.7471C37.9788 16.6826 37.8446 16.5734 37.7502 16.4333C37.6558 16.2931 37.6055 16.1284 37.6055 15.9598C37.6055 15.7338 37.696 15.5171 37.857 15.3573C38.0181 15.1974 38.2366 15.1077 38.4644 15.1077Z" fill="#ADD4D6"/>
<path fill-rule="evenodd" clip-rule="evenodd" d="M37.6463 18.105C37.8443 18.105 38.0379 18.1632 38.2026 18.2724C38.3672 18.3816 38.4956 18.5367 38.5714 18.7182C38.6471 18.8997 38.667 19.0995 38.6283 19.2922C38.5897 19.4849 38.4943 19.6619 38.3543 19.8008C38.2143 19.9397 38.0359 20.0343 37.8416 20.0727C37.6474 20.111 37.4461 20.0913 37.2631 20.0161C37.0802 19.9409 36.9238 19.8136 36.8138 19.6503C36.7037 19.4869 36.645 19.2948 36.645 19.0984C36.645 18.9679 36.6709 18.8387 36.7212 18.7182C36.7716 18.5977 36.8453 18.4882 36.9383 18.3959C37.0313 18.3037 37.1416 18.2305 37.2631 18.1806C37.3846 18.1307 37.5148 18.105 37.6463 18.105Z" fill="#231F20"/>
<path fill-rule="evenodd" clip-rule="evenodd" d="M37.646 18.2461C37.8159 18.2461 37.982 18.2961 38.1233 18.3897C38.2645 18.4833 38.3746 18.6164 38.4396 18.7721C38.5046 18.9279 38.5216 19.0992 38.4885 19.2645C38.4553 19.4298 38.3735 19.5817 38.2534 19.7008C38.1333 19.82 37.9802 19.9012 37.8136 19.934C37.647 19.9669 37.4743 19.9501 37.3173 19.8856C37.1604 19.8211 37.0262 19.7118 36.9319 19.5717C36.8375 19.4316 36.7871 19.2668 36.7871 19.0983C36.7871 18.8723 36.8776 18.6555 37.0387 18.4957C37.1998 18.3359 37.4182 18.2461 37.646 18.2461Z" fill="#ADD4D6"/>
<path fill-rule="evenodd" clip-rule="evenodd" d="M19.1492 6.71997C18.9512 6.71997 18.7576 6.77823 18.5929 6.88739C18.4283 6.99654 18.3 7.15169 18.2242 7.3332C18.1484 7.51472 18.1286 7.71445 18.1672 7.90715C18.2058 8.09985 18.3012 8.27685 18.4412 8.41578C18.5812 8.55471 18.7597 8.64932 18.9539 8.68765C19.1481 8.72598 19.3494 8.7063 19.5324 8.63112C19.7154 8.55593 19.8717 8.42861 19.9818 8.26525C20.0918 8.10189 20.1505 7.90982 20.1505 7.71335C20.1502 7.44999 20.0446 7.19751 19.8569 7.01128C19.6692 6.82506 19.4147 6.72029 19.1492 6.71997Z" fill="#231F20"/>
<path fill-rule="evenodd" clip-rule="evenodd" d="M19.1495 6.86108C18.9796 6.86108 18.8135 6.91106 18.6723 7.0047C18.531 7.09834 18.4209 7.23143 18.3559 7.38714C18.2909 7.54285 18.2739 7.71419 18.307 7.8795C18.3402 8.0448 18.422 8.19664 18.5421 8.31582C18.6622 8.435 18.8153 8.51616 18.9819 8.54904C19.1485 8.58192 19.3212 8.56505 19.4782 8.50055C19.6351 8.43605 19.7693 8.32682 19.8636 8.18669C19.958 8.04655 20.0084 7.88179 20.0084 7.71325C20.0084 7.48724 19.9179 7.27049 19.7568 7.11068C19.5957 6.95086 19.3773 6.86108 19.1495 6.86108Z" fill="#ADD4D6"/>
<path fill-rule="evenodd" clip-rule="evenodd" d="M16.1321 6.26587C15.9341 6.26587 15.7405 6.32413 15.5759 6.43328C15.4112 6.54244 15.2829 6.69758 15.2071 6.8791C15.1313 7.06062 15.1115 7.26035 15.1501 7.45305C15.1887 7.64575 15.2841 7.82275 15.4241 7.96168C15.5642 8.1006 15.7426 8.19521 15.9368 8.23354C16.131 8.27187 16.3324 8.2522 16.5153 8.17702C16.6983 8.10183 16.8547 7.9745 16.9647 7.81114C17.0747 7.64778 17.1334 7.45572 17.1334 7.25925C17.1334 6.99579 17.0279 6.74312 16.8402 6.55682C16.6524 6.37053 16.3977 6.26587 16.1321 6.26587Z" fill="#231F20"/>
<path fill-rule="evenodd" clip-rule="evenodd" d="M16.1319 6.40698C15.962 6.40698 15.7959 6.45696 15.6547 6.5506C15.5134 6.64424 15.4033 6.77733 15.3383 6.93304C15.2733 7.08875 15.2563 7.26009 15.2895 7.4254C15.3226 7.5907 15.4044 7.74254 15.5245 7.86172C15.6447 7.9809 15.7977 8.06206 15.9643 8.09494C16.1309 8.12782 16.3036 8.11095 16.4606 8.04645C16.6175 7.98195 16.7517 7.87272 16.8461 7.73259C16.9405 7.59245 16.9908 7.42769 16.9908 7.25915C16.9908 7.03314 16.9003 6.81639 16.7393 6.65658C16.5782 6.49676 16.3597 6.40698 16.1319 6.40698Z" fill="#ADD4D6"/>
<path fill-rule="evenodd" clip-rule="evenodd" d="M12.9417 6.92334C12.7437 6.92334 12.5501 6.9816 12.3854 7.09076C12.2208 7.19991 12.0924 7.35505 12.0166 7.53657C11.9409 7.71809 11.921 7.91782 11.9597 8.11052C11.9983 8.30322 12.0937 8.48022 12.2337 8.61915C12.3737 8.75808 12.5521 8.85269 12.7464 8.89102C12.9406 8.92935 13.1419 8.90967 13.3249 8.83449C13.5078 8.7593 13.6642 8.63198 13.7742 8.46861C13.8843 8.30525 13.943 8.11319 13.943 7.91672C13.943 7.65326 13.8375 7.40059 13.6497 7.2143C13.4619 7.028 13.2073 6.92334 12.9417 6.92334Z" fill="#231F20"/>
<path fill-rule="evenodd" clip-rule="evenodd" d="M12.9419 7.06323C12.7721 7.06323 12.606 7.11321 12.4647 7.20685C12.3235 7.30049 12.2134 7.43358 12.1484 7.58929C12.0834 7.745 12.0664 7.91634 12.0995 8.08165C12.1327 8.24695 12.2145 8.39879 12.3346 8.51797C12.4547 8.63715 12.6078 8.71831 12.7744 8.75119C12.941 8.78407 13.1137 8.7672 13.2707 8.7027C13.4276 8.6382 13.5617 8.52897 13.6561 8.38884C13.7505 8.2487 13.8009 8.08394 13.8009 7.9154C13.8009 7.68939 13.7104 7.47264 13.5493 7.31283C13.3882 7.15301 13.1698 7.06323 12.9419 7.06323Z" fill="#ADD4D6"/>
<path fill-rule="evenodd" clip-rule="evenodd" d="M10.3328 8.83447C10.1348 8.83447 9.9412 8.89273 9.77654 9.00189C9.61188 9.11104 9.48355 9.26619 9.40776 9.4477C9.33198 9.62922 9.31215 9.82896 9.35078 10.0217C9.38942 10.2144 9.48478 10.3914 9.62481 10.5303C9.76484 10.6692 9.94325 10.7638 10.1375 10.8021C10.3317 10.8405 10.533 10.8208 10.716 10.7456C10.899 10.6704 11.0553 10.5431 11.1654 10.3797C11.2754 10.2164 11.3341 10.0243 11.3341 9.82785C11.3338 9.56449 11.2282 9.31201 11.0405 9.12578C10.8528 8.93956 10.5983 8.83479 10.3328 8.83447Z" fill="#231F20"/>
<path fill-rule="evenodd" clip-rule="evenodd" d="M10.3331 8.97583C10.1632 8.97583 9.99711 9.02581 9.85586 9.11944C9.71461 9.21308 9.60452 9.34617 9.5395 9.50189C9.47449 9.6576 9.45748 9.82894 9.49063 9.99424C9.52377 10.1595 9.60558 10.3114 9.7257 10.4306C9.84583 10.5497 9.99887 10.6309 10.1655 10.6638C10.3321 10.6967 10.5048 10.6798 10.6618 10.6153C10.8187 10.5508 10.9529 10.4416 11.0472 10.3014C11.1416 10.1613 11.192 9.99654 11.192 9.828C11.192 9.60199 11.1015 9.38523 10.9404 9.22542C10.7793 9.06561 10.5609 8.97583 10.3331 8.97583Z" fill="#ADD4D6"/>
<path fill-rule="evenodd" clip-rule="evenodd" d="M8.79669 11.6589C8.59866 11.6589 8.40507 11.7172 8.24041 11.8264C8.07575 11.9355 7.94741 12.0907 7.87163 12.2722C7.79584 12.4537 7.77602 12.6534 7.81465 12.8461C7.85328 13.0388 7.94865 13.2158 8.08868 13.3547C8.22871 13.4937 8.40712 13.5883 8.60135 13.6266C8.79558 13.6649 8.9969 13.6453 9.17986 13.5701C9.36282 13.4949 9.5192 13.3676 9.62922 13.2042C9.73924 13.0408 9.79797 12.8488 9.79797 12.6523C9.79764 12.389 9.69205 12.1365 9.50434 11.9502C9.31664 11.764 9.06215 11.6593 8.79669 11.6589Z" fill="#231F20"/>
<path d="M8.79669 13.5056C9.27175 13.5056 9.65686 13.1235 9.65686 12.6522C9.65686 12.1809 9.27175 11.7988 8.79669 11.7988C8.32163 11.7988 7.93652 12.1809 7.93652 12.6522C7.93652 13.1235 8.32163 13.5056 8.79669 13.5056Z" fill="#ADD4D6"/>
<path fill-rule="evenodd" clip-rule="evenodd" d="M8.51349 14.9678C8.31545 14.9678 8.12186 15.026 7.9572 15.1352C7.79255 15.2443 7.66421 15.3995 7.58842 15.581C7.51264 15.7625 7.49281 15.9623 7.53145 16.155C7.57008 16.3477 7.66544 16.5247 7.80548 16.6636C7.94551 16.8025 8.12392 16.8971 8.31815 16.9354C8.51238 16.9738 8.7137 16.9541 8.89666 16.8789C9.07962 16.8037 9.236 16.6764 9.34602 16.513C9.45604 16.3497 9.51477 16.1576 9.51477 15.9612C9.51444 15.6978 9.40884 15.4453 9.22114 15.2591C9.03343 15.0729 8.77894 14.9681 8.51349 14.9678Z" fill="#231F20"/>
<path fill-rule="evenodd" clip-rule="evenodd" d="M8.51324 15.1077C8.34336 15.1077 8.17729 15.1576 8.03604 15.2513C7.89478 15.3449 7.78469 15.478 7.71968 15.6337C7.65467 15.7894 7.63766 15.9608 7.6708 16.1261C7.70394 16.2914 7.78575 16.4432 7.90587 16.5624C8.026 16.6816 8.17905 16.7627 8.34567 16.7956C8.51229 16.8285 8.68499 16.8116 8.84194 16.7471C8.99889 16.6826 9.13304 16.5734 9.22742 16.4333C9.3218 16.2931 9.37218 16.1284 9.37218 15.9598C9.37218 15.7338 9.28168 15.5171 9.1206 15.3573C8.95952 15.1974 8.74104 15.1077 8.51324 15.1077Z" fill="#ADD4D6"/>
<path fill-rule="evenodd" clip-rule="evenodd" d="M9.33526 18.105C9.13723 18.105 8.94364 18.1632 8.77898 18.2724C8.61432 18.3816 8.48599 18.5367 8.4102 18.7182C8.33442 18.8997 8.31459 19.0995 8.35322 19.2922C8.39186 19.4849 8.48722 19.6619 8.62725 19.8008C8.76728 19.9397 8.9457 20.0343 9.13992 20.0727C9.33415 20.111 9.53548 20.0913 9.71844 20.0161C9.9014 19.9409 10.0578 19.8136 10.1678 19.6503C10.2778 19.4869 10.3365 19.2948 10.3365 19.0984C10.3362 18.835 10.2306 18.5825 10.0429 18.3963C9.85521 18.2101 9.60072 18.1053 9.33526 18.105Z" fill="#231F20"/>
<path fill-rule="evenodd" clip-rule="evenodd" d="M9.3355 18.2461C9.16562 18.2461 8.99955 18.2961 8.8583 18.3897C8.71705 18.4833 8.60696 18.6164 8.54194 18.7721C8.47693 18.9279 8.45993 19.0992 8.49307 19.2645C8.52621 19.4298 8.60802 19.5817 8.72814 19.7008C8.84826 19.82 9.00131 19.9012 9.16793 19.934C9.33455 19.9669 9.50726 19.9501 9.66421 19.8856C9.82116 19.8211 9.9553 19.7118 10.0497 19.5717C10.1441 19.4316 10.1944 19.2668 10.1944 19.0983C10.1944 18.8723 10.1039 18.6555 9.94287 18.4957C9.78178 18.3359 9.56331 18.2461 9.3355 18.2461Z" fill="#ADD4D6"/>
<path fill-rule="evenodd" clip-rule="evenodd" d="M23.4943 7.79008C23.7477 7.79008 23.9954 7.86465 24.2061 8.00436C24.4168 8.14407 24.581 8.34263 24.6779 8.57494C24.7749 8.80724 24.8002 9.06285 24.7506 9.30942C24.7011 9.556 24.579 9.78245 24.3997 9.96015C24.2204 10.1378 23.992 10.2588 23.7435 10.3077C23.4949 10.3566 23.2373 10.3313 23.0032 10.2349C22.7691 10.1385 22.5692 9.97541 22.4285 9.76624C22.2879 9.55707 22.213 9.31123 22.2132 9.05981C22.2132 8.89297 22.2464 8.72775 22.3108 8.57362C22.3752 8.41949 22.4696 8.27947 22.5885 8.16155C22.7075 8.04363 22.8487 7.95012 23.0042 7.88639C23.1596 7.82265 23.3261 7.78992 23.4943 7.79008ZM23.5556 6.37549C23.9937 6.38479 24.423 6.49942 24.8067 6.70955C25.1903 6.91968 25.5168 7.21902 25.7581 7.58189C25.9994 7.94476 26.1484 8.36031 26.1923 8.79287C26.2361 9.22544 26.1735 9.6621 26.0098 10.0654C26.0828 9.887 26.0819 9.68725 26.0073 9.50954C25.9326 9.33183 25.7903 9.19054 25.6112 9.11639C25.4321 9.04224 25.2308 9.04123 25.051 9.11358C24.8711 9.18593 24.7274 9.32579 24.651 9.50274C24.5745 9.67969 24.5716 9.87943 24.6428 10.0585C24.714 10.2376 24.8536 10.3816 25.0312 10.4591C25.2088 10.5366 25.4101 10.5414 25.5913 10.4725C25.7725 10.4035 25.9189 10.2664 25.9987 10.0909C25.7932 10.5808 25.4461 10.9992 25.0011 11.2936C24.5562 11.588 24.0334 11.7451 23.4986 11.7451C22.9638 11.7451 22.441 11.588 21.996 11.2936C21.5511 10.9992 21.204 10.5808 20.9985 10.0909C21.0681 10.2522 21.1956 10.3822 21.3562 10.4556C21.5169 10.529 21.6993 10.5406 21.8681 10.4882C22.0369 10.4358 22.1801 10.3232 22.27 10.172C22.3599 10.0209 22.39 9.84207 22.3546 9.67014C22.3192 9.49822 22.2208 9.34545 22.0783 9.24142C21.9359 9.13739 21.7596 9.0895 21.5836 9.10702C21.4076 9.12455 21.2445 9.20624 21.1257 9.33628C21.0069 9.46632 20.9411 9.63546 20.9408 9.81093C20.9411 9.89781 20.9569 9.98395 20.9874 10.0654C20.8243 9.66207 20.7622 9.22557 20.8063 8.79324C20.8504 8.3609 20.9994 7.9456 21.2406 7.5829C21.4819 7.2202 21.8081 6.9209 22.1914 6.71062C22.5747 6.50034 23.0036 6.38535 23.4415 6.37549C23.2581 6.39118 23.0879 6.47653 22.9664 6.61373C22.8449 6.75093 22.7815 6.92938 22.7894 7.11185C22.7973 7.29431 22.8759 7.4667 23.0089 7.59304C23.1418 7.71937 23.3188 7.7899 23.5029 7.7899C23.687 7.7899 23.8639 7.71937 23.9969 7.59304C24.1298 7.4667 24.2085 7.29431 24.2164 7.11185C24.2243 6.92938 24.1609 6.75093 24.0394 6.61373C23.9179 6.47653 23.7476 6.39118 23.5642 6.37549H23.5556Z" fill="#D8A456"/>
<path fill-rule="evenodd" clip-rule="evenodd" d="M23.4943 12.7861C23.7814 12.7861 24.0621 12.8706 24.3008 13.0288C24.5395 13.1871 24.7256 13.412 24.8355 13.6752C24.9453 13.9383 24.9741 14.2279 24.9181 14.5072C24.862 14.7866 24.7238 15.0432 24.5208 15.2446C24.3178 15.446 24.0591 15.5832 23.7775 15.6388C23.4959 15.6943 23.2041 15.6658 22.9388 15.5568C22.6736 15.4478 22.4469 15.2632 22.2874 15.0264C22.1279 14.7896 22.0427 14.5111 22.0427 14.2263C22.0427 13.8443 22.1957 13.478 22.4679 13.2079C22.7401 12.9379 23.1093 12.7861 23.4943 12.7861ZM20.9678 10.3684L21.531 12.5414C21.4972 12.3558 21.5371 12.1645 21.6423 12.0074C21.7474 11.8503 21.9098 11.7396 22.0953 11.6986C22.2809 11.6576 22.4752 11.6893 22.6377 11.7872C22.8002 11.8851 22.9182 12.0415 22.967 12.2238C23.0159 12.406 22.9918 12.6 22.8998 12.765C22.8078 12.9301 22.655 13.0534 22.4735 13.1092C22.2919 13.165 22.0956 13.149 21.9257 13.0645C21.7557 12.98 21.6253 12.8336 21.5617 12.6559L22.4697 16.1023C22.7877 15.9561 23.134 15.8803 23.4845 15.8803C23.835 15.8803 24.1813 15.9561 24.4993 16.1023L25.4073 12.6546C25.3456 12.8301 25.2179 12.975 25.0509 13.0591C24.8839 13.1433 24.6906 13.16 24.5115 13.1059C24.3323 13.0518 24.1812 12.9311 24.0897 12.7689C23.9983 12.6068 23.9736 12.4158 24.0209 12.236C24.0682 12.0562 24.1837 11.9016 24.3433 11.8044C24.503 11.7072 24.6943 11.6751 24.8773 11.7147C25.0602 11.7543 25.2207 11.8626 25.325 12.017C25.4292 12.1713 25.4693 12.3597 25.4368 12.5426L26.0098 10.3672C25.7689 10.8252 25.406 11.2089 24.9607 11.4767C24.5154 11.7445 24.0046 11.886 23.4839 11.886C22.9632 11.886 22.4524 11.7445 22.0071 11.4767C21.5618 11.2089 21.1989 10.8252 20.958 10.3672L20.9678 10.3684Z" fill="#D8A456"/>
<path fill-rule="evenodd" clip-rule="evenodd" d="M9.72317 20.9098C10.3465 21.0583 11.3895 21.4223 12.4031 23.3543C13.2497 24.9673 13.8203 27.2097 14.4891 28.7266C14.8572 29.5556 15.5799 30.2751 18.1972 30.3749C21.7164 30.5088 25.2663 30.5088 28.7867 30.3749C31.4028 30.2751 32.1305 29.5556 32.4937 28.7266C33.1588 27.2097 33.7306 24.9673 34.5797 23.3543C35.5932 21.4223 36.6362 21.0583 37.2608 20.9098C38.2179 20.6834 37.4989 20.0576 36.9234 19.886C34.3196 19.1251 33.2029 20.8599 32.6483 22.0249C32.771 15.1784 28.7217 15.0652 26.9339 20.8234C26.2406 14.4212 20.7495 14.4212 20.0624 20.8234C18.2721 15.0652 14.2179 15.1784 14.348 22.0249C13.7933 20.8587 12.6767 19.1251 10.0729 19.886C9.49617 20.0552 8.77711 20.6834 9.73544 20.9098" fill="white"/>
<path fill-rule="evenodd" clip-rule="evenodd" d="M23.4943 26.5974C25.3741 26.5974 27.4932 26.7788 29.2995 27.3278C30.0627 27.5579 31.7609 28.163 31.7609 29.1612C31.7609 29.4607 31.6382 29.5337 31.3928 29.664C30.6566 30.0596 29.6087 30.1607 28.7767 30.1923C25.2534 30.3262 21.7285 30.3262 18.202 30.1923C17.37 30.1607 16.3258 30.0596 15.5846 29.664C15.3392 29.5337 15.2227 29.4607 15.2227 29.1612C15.2227 28.163 16.9209 27.5579 17.6768 27.3278C19.483 26.7837 21.6034 26.5974 23.4832 26.5974" fill="#231F20"/>
<path fill-rule="evenodd" clip-rule="evenodd" d="M21.7093 16.6002L19.9264 9.69763C18.4539 9.0719 16.833 8.72373 15.2353 8.93677C13.9312 9.09563 12.7188 9.68523 11.7934 10.6107C10.7688 11.6503 10.2216 13.0174 10.1111 14.4564C9.97494 16.2143 10.4891 17.9661 11.3247 19.5036C11.3443 19.5231 11.3615 19.5426 11.3799 19.5621C11.9808 19.5752 12.5633 19.7697 13.0499 20.1196C13.5219 20.4762 13.9118 20.9286 14.1936 21.4466C14.2107 20.3278 14.3519 19.0958 14.7838 18.1024C15.0893 17.4024 15.6133 16.6866 16.4256 16.5624C17.2379 16.4383 17.9606 16.9496 18.4748 17.5096C19.1509 18.2461 19.6429 19.2395 19.9914 20.2036C20.2736 18.4993 20.9178 17.2977 21.7093 16.6002ZM25.2678 16.6002L27.0531 9.69763C28.5256 9.0719 30.1465 8.72373 31.7442 8.93677C33.0482 9.09619 34.2603 9.6857 35.1861 10.6107C36.2094 11.6503 36.7579 13.0174 36.8684 14.4564C37.0033 16.2143 36.4892 17.9661 35.6536 19.5036L35.5996 19.5621C34.997 19.574 34.4126 19.7686 33.9247 20.1196C33.452 20.4755 33.0619 20.928 32.781 21.4466C32.7626 20.3278 32.6227 19.0958 32.1896 18.1024C31.8853 17.4024 31.3613 16.6866 30.549 16.5624C29.7367 16.4383 29.0127 16.9496 28.4986 17.5096C27.8237 18.2461 27.3317 19.2395 26.9832 20.2036C26.6997 18.4993 26.0568 17.2977 25.2653 16.6002M23.4947 26.691C28.0066 26.691 31.6669 27.7952 31.6669 29.1562C31.6669 29.4131 31.5699 29.4606 31.354 29.5762C30.6288 29.9633 29.5846 30.0632 28.7771 30.0936C25.2596 30.2275 21.7371 30.2275 18.2097 30.0936C17.4023 30.0632 16.3581 29.9633 15.6329 29.5762C15.4169 29.4545 15.32 29.4131 15.32 29.1562C15.32 27.7952 18.9791 26.691 23.4922 26.691" fill="#EC1C24"/>
<path d="M22.5482 18.7342C22.5217 18.7046 22.4895 18.6808 22.4534 18.6641C22.4174 18.6474 22.3783 18.6382 22.3385 18.637C22.2987 18.6359 22.2591 18.6428 22.2221 18.6573C22.1851 18.6719 22.1515 18.6938 22.1234 18.7218C22.0952 18.7497 22.0732 18.783 22.0585 18.8197C22.0438 18.8564 22.0368 18.8957 22.038 18.9352C22.0392 18.9746 22.0484 19.0134 22.0653 19.0492C22.0821 19.085 22.1061 19.117 22.1359 19.1432C22.1908 19.197 22.2649 19.2272 22.342 19.2272C22.4192 19.2272 22.4933 19.197 22.5482 19.1432C22.6024 19.0887 22.6329 19.0153 22.6329 18.9387C22.6329 18.8621 22.6024 18.7886 22.5482 18.7342ZM24.8403 18.7342C24.7926 18.6862 24.7296 18.6562 24.662 18.6493C24.5944 18.6423 24.5265 18.6588 24.4699 18.696C24.4132 18.7332 24.3714 18.7888 24.3514 18.8532C24.3314 18.9176 24.3346 18.9869 24.3605 19.0492C24.3863 19.1115 24.4331 19.1631 24.4929 19.195C24.5527 19.2269 24.6219 19.2372 24.6885 19.2241C24.7551 19.2111 24.8152 19.1755 24.8583 19.1234C24.9014 19.0714 24.925 19.0061 24.925 18.9387C24.9264 18.8626 24.8973 18.789 24.844 18.7342H24.8403ZM23.6943 17.7517C23.6678 17.7222 23.6356 17.6984 23.5995 17.6817C23.5635 17.665 23.5243 17.6558 23.4846 17.6546C23.4448 17.6534 23.4052 17.6603 23.3682 17.6749C23.3312 17.6895 23.2976 17.7114 23.2695 17.7393C23.2413 17.7672 23.2192 17.8006 23.2045 17.8373C23.1899 17.874 23.1829 17.9133 23.1841 17.9527C23.1852 17.9922 23.1945 18.031 23.2114 18.0668C23.2282 18.1026 23.2522 18.1345 23.282 18.1608C23.3376 18.2099 23.4101 18.236 23.4846 18.2338C23.559 18.2316 23.6298 18.2013 23.6825 18.1491C23.7351 18.0968 23.7657 18.0266 23.7679 17.9527C23.7701 17.8789 23.7437 17.807 23.6943 17.7517ZM22.3445 18.526C22.3991 18.5259 22.4531 18.5366 22.5035 18.5575C22.5539 18.5784 22.5995 18.6091 22.6378 18.6477C22.7025 18.7093 22.7456 18.79 22.7605 18.8778H23.4329V18.3653C23.3451 18.3523 23.2639 18.3117 23.201 18.2496C23.1231 18.1723 23.0794 18.0674 23.0794 17.9581C23.0794 17.8488 23.1231 17.7439 23.201 17.6665C23.279 17.5893 23.3847 17.5459 23.4949 17.5459C23.6051 17.5459 23.7108 17.5893 23.7887 17.6665C23.8666 17.7439 23.9103 17.8488 23.9103 17.9581C23.9103 18.0674 23.8666 18.1723 23.7887 18.2496C23.7263 18.3117 23.6455 18.3523 23.5581 18.3653V18.8815H24.2305C24.2436 18.7944 24.2845 18.7138 24.3471 18.6514C24.4253 18.5741 24.5311 18.5307 24.6415 18.5307C24.7519 18.5307 24.8578 18.5741 24.936 18.6514C25.0139 18.7288 25.0576 18.8336 25.0576 18.9429C25.0576 19.0523 25.0139 19.1571 24.936 19.2345C24.8975 19.2731 24.8516 19.3037 24.8011 19.3246C24.7505 19.3455 24.6963 19.3562 24.6415 19.3562C24.5868 19.3562 24.5326 19.3455 24.482 19.3246C24.4315 19.3037 24.3856 19.2731 24.3471 19.2345C24.2845 19.1726 24.2436 19.0924 24.2305 19.0056H23.6844L25.2281 21.6473L25.1176 21.7046L23.5581 19.0336V19.831L24.7557 21.8896L24.644 21.9468L23.5581 20.0855V22.2293H23.4353V20.0806L22.3469 21.9456L22.2341 21.8884L23.4353 19.8261V19.0288L21.8733 21.707L21.8439 21.6912L21.7653 21.6461L23.2979 19.0032H22.758C22.7431 19.0906 22.7001 19.1709 22.6353 19.2321C22.5969 19.2706 22.5511 19.3012 22.5006 19.3221C22.4502 19.343 22.3961 19.3537 22.3414 19.3537C22.2868 19.3537 22.2327 19.343 22.1822 19.3221C22.1318 19.3012 22.086 19.2706 22.0475 19.2321C22.0087 19.1939 21.9779 19.1485 21.9568 19.0985C21.9358 19.0484 21.9249 18.9947 21.9249 18.9405C21.9249 18.8863 21.9358 18.8326 21.9568 18.7825C21.9779 18.7325 22.0087 18.6871 22.0475 18.6489C22.0858 18.6099 22.1316 18.5789 22.1822 18.5578C22.2328 18.5367 22.2872 18.5259 22.342 18.526H22.3445ZM25.5802 22.9633C25.5295 22.9055 25.4578 22.87 25.3808 22.8645C25.3038 22.859 25.2277 22.8841 25.1692 22.9341C25.1109 22.9846 25.0751 23.056 25.0698 23.1326C25.0647 23.2088 25.0903 23.284 25.1408 23.3417C25.1914 23.3994 25.2629 23.4349 25.3397 23.4405C25.378 23.4436 25.4165 23.439 25.4529 23.4271C25.4894 23.4152 25.5231 23.3962 25.552 23.3712C25.5809 23.3463 25.6046 23.3159 25.6217 23.2819C25.6387 23.248 25.6489 23.211 25.6515 23.1731C25.6541 23.1352 25.6492 23.0971 25.6369 23.0612C25.6247 23.0252 25.6054 22.9919 25.5802 22.9633ZM27.8675 23.1216C27.8166 23.0637 27.7447 23.0283 27.6675 23.023C27.5906 23.018 27.5148 23.0433 27.4566 23.0935C27.3985 23.1436 27.3627 23.2146 27.357 23.2908C27.3514 23.3674 27.3765 23.4431 27.427 23.5014C27.4783 23.5587 27.55 23.594 27.627 23.6C27.6851 23.6055 27.7435 23.5936 27.7947 23.5657C27.8458 23.5378 27.8873 23.4953 27.9138 23.4437C27.9403 23.3921 27.9505 23.3337 27.9431 23.2763C27.9357 23.2189 27.9111 23.165 27.8724 23.1216H27.8675ZM26.7926 22.0625C26.7674 22.0339 26.7369 22.0104 26.7026 21.9935C26.6683 21.9766 26.6311 21.9666 26.5929 21.964C26.5547 21.9614 26.5164 21.9663 26.4801 21.9784C26.4439 21.9905 26.4104 22.0095 26.3815 22.0345C26.3527 22.0594 26.3291 22.0897 26.312 22.1237C26.295 22.1577 26.2849 22.1947 26.2823 22.2326C26.2796 22.2705 26.2846 22.3085 26.2968 22.3445C26.3089 22.3804 26.3282 22.4137 26.3533 22.4423C26.3784 22.471 26.4089 22.4945 26.4432 22.5114C26.4775 22.5283 26.5148 22.5384 26.553 22.541C26.5912 22.5436 26.6295 22.5387 26.6658 22.5265C26.702 22.5144 26.7355 22.4953 26.7644 22.4703C26.8227 22.4198 26.8584 22.3485 26.8637 22.2719C26.8671 22.2344 26.863 22.1965 26.8517 22.1606C26.8403 22.1247 26.8219 22.0913 26.7975 22.0625H26.7926ZM25.3888 22.7406C25.4991 22.7485 25.6018 22.7993 25.6747 22.8818C25.7325 22.9485 25.7677 23.0315 25.7753 23.1192L26.4465 23.1654L26.4821 22.6553C26.3953 22.636 26.317 22.5894 26.2588 22.5226C26.1866 22.44 26.1504 22.3322 26.1583 22.2231C26.1661 22.114 26.2173 22.0124 26.3005 21.9407C26.3416 21.905 26.3895 21.8777 26.4413 21.8606C26.4931 21.8434 26.5479 21.8367 26.6024 21.8409C26.6568 21.8445 26.71 21.8587 26.7588 21.8827C26.8077 21.9067 26.8513 21.9401 26.8871 21.9809C26.9231 22.0217 26.9506 22.0691 26.9679 22.1206C26.9851 22.172 26.9919 22.2263 26.9877 22.2804C26.9841 22.3344 26.9698 22.3871 26.9456 22.4356C26.9213 22.4841 26.8877 22.5273 26.8466 22.5628C26.7779 22.6217 26.6917 22.6567 26.6012 22.6626L26.5656 23.1727L27.2368 23.2202C27.2561 23.1342 27.3025 23.0566 27.3693 22.9986C27.4528 22.9271 27.5614 22.8912 27.6715 22.8987C27.7816 22.9062 27.8842 22.9566 27.9571 23.0388C27.9931 23.0796 28.0206 23.127 28.0379 23.1785C28.0551 23.2299 28.0619 23.2842 28.0577 23.3383C28.0539 23.3923 28.0393 23.4451 28.0149 23.4936C27.9905 23.5421 27.9566 23.5853 27.9153 23.6207C27.832 23.6924 27.7234 23.7282 27.6134 23.7205C27.5035 23.7127 27.4011 23.6619 27.3288 23.5793C27.2689 23.5115 27.2335 23.4259 27.2282 23.3359L26.6846 23.2981L28.0344 26.0409L27.919 26.0896L26.5619 23.3261L26.5067 24.1223L27.557 26.2576L27.4417 26.3075L26.4883 24.3767L26.3373 26.5193L26.2146 26.5108L26.3668 24.3682L25.1495 26.1517L25.0416 26.0871L26.384 24.1162L26.4404 23.3225L24.6943 25.879L24.6649 25.8619L24.59 25.8108L26.3165 23.2811L25.7729 23.2433C25.7537 23.3293 25.7067 23.4066 25.6391 23.4637C25.598 23.4994 25.5502 23.5267 25.4984 23.544C25.4467 23.5613 25.392 23.5682 25.3375 23.5645C25.283 23.5608 25.2297 23.5464 25.1809 23.5222C25.132 23.498 25.0884 23.4645 25.0526 23.4235C24.9806 23.3408 24.9444 23.2333 24.952 23.1243C24.9596 23.0153 25.0103 22.9136 25.0931 22.8416C25.1758 22.7697 25.284 22.7334 25.3937 22.7406H25.3888ZM21.3898 22.9633C21.4149 22.9346 21.4455 22.9111 21.4799 22.8941C21.5142 22.8772 21.5516 22.8672 21.5899 22.8647C21.6279 22.8616 21.6663 22.8661 21.7025 22.878C21.7388 22.89 21.7723 22.909 21.8009 22.9341C21.83 22.9589 21.8538 22.9893 21.8708 23.0234C21.8879 23.0574 21.8979 23.0946 21.9003 23.1326C21.9035 23.1703 21.8989 23.2084 21.8869 23.2443C21.8749 23.2803 21.8556 23.3135 21.8304 23.3419C21.8053 23.3706 21.7748 23.3942 21.7406 23.4112C21.7064 23.4282 21.6691 23.4383 21.6309 23.441C21.5928 23.4437 21.5544 23.439 21.5181 23.427C21.4818 23.415 21.4482 23.396 21.4193 23.3712C21.3904 23.3463 21.3667 23.316 21.3495 23.2821C21.3324 23.2481 21.3222 23.2112 21.3194 23.1733C21.3167 23.1354 21.3215 23.0974 21.3336 23.0614C21.3457 23.0253 21.3648 22.992 21.3898 22.9633ZM19.1026 23.1216C19.1536 23.0639 19.2255 23.0285 19.3026 23.023C19.341 23.0201 19.3795 23.0249 19.4159 23.037C19.4524 23.0491 19.486 23.0684 19.5149 23.0936C19.558 23.1312 19.5889 23.1807 19.6037 23.2357C19.6185 23.2907 19.6166 23.3488 19.5981 23.4028C19.5797 23.4567 19.5456 23.504 19.5002 23.5387C19.4547 23.5735 19.3998 23.5941 19.3426 23.598C19.2853 23.6019 19.2282 23.5889 19.1784 23.5606C19.1285 23.5323 19.0883 23.4901 19.0626 23.4391C19.0369 23.3882 19.027 23.3309 19.0342 23.2744C19.0413 23.2178 19.0651 23.1647 19.1026 23.1216ZM20.1775 22.0625C20.2284 22.0046 20.3003 21.9691 20.3775 21.9639C20.4157 21.9612 20.454 21.966 20.4902 21.9781C20.5264 21.9903 20.5599 22.0094 20.5886 22.0345C20.6177 22.059 20.6415 22.0891 20.6586 22.123C20.6756 22.1569 20.6856 22.1939 20.688 22.2317C20.6936 22.3083 20.6684 22.384 20.618 22.4423C20.5667 22.4995 20.495 22.5349 20.418 22.5409C20.3601 22.5458 20.3021 22.5334 20.2513 22.5054C20.2006 22.4774 20.1594 22.435 20.133 22.3836C20.1067 22.3323 20.0964 22.2743 20.1034 22.2171C20.1105 22.1599 20.1346 22.106 20.1726 22.0625H20.1775ZM21.5813 22.7406C21.4714 22.7488 21.3692 22.7995 21.2966 22.8818C21.2379 22.9479 21.2025 23.0313 21.196 23.1192L20.5248 23.1654L20.4892 22.6553C20.5758 22.6363 20.6538 22.5897 20.7113 22.5226C20.7473 22.4818 20.7748 22.4343 20.7922 22.383C20.8097 22.3316 20.8168 22.2773 20.8131 22.2232C20.8048 22.1142 20.7537 22.0128 20.6708 21.9407C20.5875 21.8693 20.4791 21.8334 20.3692 21.8409C20.2593 21.8484 20.1569 21.8988 20.0843 21.9809C20.0124 22.0638 19.9763 22.1713 19.9836 22.2804C19.9874 22.3344 20.002 22.3872 20.0264 22.4357C20.0508 22.4842 20.0847 22.5274 20.126 22.5628C20.1931 22.6203 20.2769 22.6552 20.3652 22.6626L20.4008 23.1727L19.7309 23.2202C19.7116 23.1339 19.6647 23.0562 19.5971 22.9986C19.5138 22.9272 19.4054 22.8913 19.2955 22.8988C19.1856 22.9063 19.0832 22.9567 19.0106 23.0388C18.9746 23.0796 18.9471 23.1271 18.9296 23.1785C18.9121 23.2299 18.905 23.2842 18.9087 23.3383C18.9171 23.4473 18.9682 23.5487 19.0511 23.6207C19.1344 23.6924 19.243 23.7282 19.353 23.7205C19.463 23.7127 19.5653 23.6619 19.6376 23.5793C19.6969 23.5112 19.7323 23.4257 19.7382 23.3359L20.2818 23.2981L18.932 26.0409L19.0462 26.0896L20.4143 23.3176L20.4708 24.1138L19.4192 26.249L19.5358 26.299L20.488 24.3682L20.6389 26.5108L20.7616 26.5023L20.6107 24.3597L21.8279 26.1431L21.9359 26.0786L20.5861 24.104L20.5309 23.3103L22.277 25.8668L22.3052 25.8497L22.3801 25.7986L20.6597 23.2811L21.2046 23.2433C21.2238 23.329 21.2703 23.4062 21.3371 23.4637C21.4204 23.5354 21.5288 23.5717 21.6389 23.5647C21.6935 23.5611 21.7467 23.5467 21.7956 23.5225C21.8444 23.4982 21.888 23.4646 21.9236 23.4235C21.9958 23.3408 22.032 23.2331 22.0242 23.124C22.0163 23.0149 21.9652 22.9133 21.8819 22.8416C21.7989 22.7702 21.6909 22.7339 21.5813 22.7406ZM30.7339 23.6974C30.7172 23.6633 30.6939 23.6328 30.6652 23.6078C30.6366 23.5827 30.6032 23.5635 30.567 23.5513C30.531 23.5386 30.4927 23.5332 30.4546 23.5355C30.4164 23.5378 30.3791 23.5477 30.3449 23.5647C30.3103 23.5812 30.2794 23.6043 30.2539 23.6327C30.2284 23.6612 30.2089 23.6943 30.1964 23.7303C30.1721 23.8025 30.1774 23.8812 30.2112 23.9496C30.2449 24.0179 30.3044 24.0703 30.3768 24.0955C30.4502 24.12 30.5303 24.1152 30.6001 24.0821C30.6696 24.0483 30.7226 23.9885 30.7477 23.916C30.7728 23.8434 30.7678 23.7639 30.7339 23.695M32.9021 24.4351C32.8658 24.3701 32.8058 24.3214 32.7343 24.299C32.6628 24.2767 32.5854 24.2825 32.5182 24.3151C32.4509 24.3478 32.3988 24.4049 32.3727 24.4746C32.3467 24.5443 32.3486 24.6213 32.3781 24.6896C32.3948 24.7237 32.4182 24.7542 32.4468 24.7792C32.4755 24.8043 32.5088 24.8235 32.545 24.8357C32.5813 24.8481 32.6197 24.8533 32.658 24.851C32.6964 24.8487 32.7338 24.839 32.7683 24.8223C32.8378 24.7885 32.8908 24.7287 32.9159 24.6561C32.941 24.5836 32.936 24.5041 32.9021 24.4351ZM32.1426 23.1423C32.1258 23.1082 32.1024 23.0778 32.0738 23.0527C32.0452 23.0276 32.0119 23.0083 31.9758 22.996C31.9396 22.9837 31.9014 22.9785 31.8633 22.9809C31.8252 22.9832 31.7879 22.993 31.7536 23.0096C31.684 23.0432 31.6306 23.1027 31.6051 23.1752C31.5804 23.248 31.5853 23.3274 31.6186 23.3967C31.6441 23.4479 31.6842 23.4904 31.734 23.519C31.7838 23.5476 31.8409 23.561 31.8983 23.5574C31.9557 23.5539 32.0108 23.5337 32.0566 23.4993C32.1025 23.4648 32.1371 23.4177 32.156 23.3639C32.1689 23.3279 32.1743 23.2898 32.1719 23.2517C32.1696 23.2137 32.1596 23.1764 32.1426 23.1423ZM30.6112 23.4345C30.6628 23.4517 30.7105 23.4789 30.7514 23.5147C30.7923 23.5504 30.8256 23.5939 30.8492 23.6426C30.8881 23.7215 30.9005 23.8107 30.8848 23.8971L31.5192 24.1162L31.6873 23.6292C31.6088 23.5883 31.5456 23.5234 31.5069 23.4442C31.4829 23.3955 31.4687 23.3427 31.4653 23.2886C31.462 23.2345 31.4694 23.1802 31.4871 23.129C31.5049 23.0778 31.5327 23.0305 31.569 22.99C31.6052 22.9494 31.6492 22.9164 31.6984 22.8927C31.7474 22.8689 31.8007 22.8548 31.8552 22.8515C31.9098 22.8481 31.9644 22.8555 32.0161 22.8731C32.0677 22.8907 32.1153 22.9183 32.1562 22.9543C32.1971 22.9903 32.2304 23.0339 32.2542 23.0826C32.2787 23.1312 32.2931 23.1841 32.2965 23.2383C32.2998 23.2925 32.2921 23.3468 32.2738 23.3979C32.2561 23.4492 32.2284 23.4964 32.1921 23.537C32.1559 23.5775 32.1119 23.6105 32.0628 23.6341C31.9834 23.6731 31.8934 23.6855 31.8063 23.6694L31.6382 24.1564L32.2738 24.3731C32.3151 24.2952 32.3805 24.2324 32.4604 24.1941C32.5094 24.1702 32.5627 24.1562 32.6172 24.1528C32.6718 24.1495 32.7264 24.1568 32.7781 24.1745C32.8297 24.1921 32.8773 24.2197 32.9182 24.2557C32.9591 24.2916 32.9924 24.3353 33.0162 24.384C33.0403 24.4327 33.0544 24.4856 33.0578 24.5397C33.0612 24.5937 33.0538 24.648 33.036 24.6992C33.0182 24.7505 32.9904 24.7977 32.9542 24.8383C32.9179 24.8788 32.874 24.9118 32.8248 24.9355C32.7758 24.9594 32.7224 24.9734 32.6679 24.9767C32.6134 24.9801 32.5587 24.9728 32.5071 24.9551C32.4554 24.9375 32.4078 24.9099 32.3669 24.8739C32.3261 24.838 32.2928 24.7943 32.2689 24.7456C32.2296 24.6668 32.2171 24.5775 32.2334 24.4911L31.718 24.3146L32.3094 27.3118L32.1867 27.3289L31.5928 24.3L31.3315 25.0536L31.7892 27.3873L31.6665 27.4056L31.2505 25.2946L30.5449 27.3264L30.4222 27.2863L31.1265 25.2544L29.486 26.6654L29.3988 26.5753L31.2112 25.0134L31.4726 24.2598L29.1179 26.2843L29.0945 26.26L29.0356 26.1918L31.3609 24.1917L30.8456 24.0152C30.8049 24.0934 30.7399 24.1565 30.6603 24.1953C30.6112 24.2192 30.5579 24.2332 30.5034 24.2366C30.4489 24.24 30.3942 24.2326 30.3426 24.215C30.2909 24.1973 30.2433 24.1697 30.2024 24.1338C30.1615 24.0978 30.1282 24.0542 30.1044 24.0054C30.0803 23.9568 30.0662 23.9039 30.0628 23.8498C30.0594 23.7957 30.0668 23.7415 30.0846 23.6902C30.1024 23.639 30.1302 23.5917 30.1665 23.5512C30.2027 23.5106 30.2467 23.4776 30.2958 23.4539C30.3445 23.4303 30.3974 23.4164 30.4516 23.413C30.5057 23.4097 30.5599 23.417 30.6112 23.4345ZM16.2387 23.6974C16.2727 23.6288 16.3327 23.5763 16.4055 23.5513C16.46 23.5325 16.5188 23.5301 16.5747 23.5445C16.6305 23.5589 16.6807 23.5894 16.719 23.6322C16.7573 23.675 16.7818 23.7282 16.7896 23.7848C16.7974 23.8415 16.788 23.8992 16.7626 23.9506C16.746 23.9849 16.7227 24.0156 16.6941 24.0409C16.6654 24.0662 16.632 24.0856 16.5957 24.0979C16.523 24.122 16.4436 24.1168 16.3747 24.0833C16.3058 24.0498 16.253 23.9908 16.2276 23.919C16.203 23.8462 16.2078 23.7667 16.2411 23.6974M14.0741 24.4376C14.0909 24.4035 14.1142 24.3731 14.1428 24.348C14.1715 24.3229 14.2048 24.3036 14.2409 24.2913C14.277 24.279 14.3152 24.2738 14.3534 24.2762C14.3915 24.2785 14.4288 24.2883 14.4631 24.3049C14.5327 24.3385 14.586 24.398 14.6116 24.4705C14.6362 24.5432 14.6314 24.6227 14.5981 24.692C14.5636 24.7607 14.5032 24.8132 14.43 24.8381C14.3755 24.8568 14.3165 24.859 14.2608 24.8445C14.205 24.8299 14.1548 24.7992 14.1166 24.7562C14.0785 24.7133 14.0541 24.6601 14.0465 24.6033C14.0389 24.5466 14.0485 24.4889 14.0741 24.4376ZM14.8349 23.1386C14.8604 23.0875 14.9005 23.045 14.9503 23.0164C15.0001 22.9878 15.0572 22.9744 15.1146 22.9779C15.172 22.9814 15.2271 23.0017 15.273 23.0361C15.3188 23.0705 15.3534 23.1177 15.3723 23.1715C15.3914 23.2255 15.3938 23.2839 15.3793 23.3393C15.3647 23.3947 15.3339 23.4445 15.2908 23.4825C15.2477 23.5205 15.1941 23.5448 15.137 23.5526C15.0798 23.5603 15.0217 23.5509 14.9699 23.5258C14.9003 23.4922 14.8469 23.4327 14.8214 23.3602C14.797 23.2888 14.8009 23.2109 14.8324 23.1423L14.8349 23.1386ZM16.3675 23.4345C16.3159 23.4518 16.2683 23.4792 16.2275 23.5149C16.1866 23.5506 16.1533 23.5941 16.1294 23.6426C16.0906 23.7215 16.0781 23.8107 16.0939 23.8971L15.4558 24.1162L15.2877 23.6292C15.3665 23.5886 15.4298 23.5237 15.4681 23.4442C15.5135 23.346 15.5185 23.2341 15.4821 23.1322C15.4457 23.0304 15.3706 22.9466 15.273 22.8988C15.2239 22.8749 15.1706 22.8609 15.1161 22.8576C15.0616 22.8542 15.0069 22.8615 14.9553 22.8792C14.9036 22.8968 14.856 22.9244 14.8151 22.9604C14.7742 22.9963 14.7409 23.04 14.7171 23.0887C14.693 23.1374 14.6789 23.1903 14.6755 23.2444C14.6721 23.2985 14.6795 23.3527 14.6973 23.4039C14.7151 23.4552 14.7429 23.5024 14.7792 23.543C14.8154 23.5835 14.8594 23.6166 14.9085 23.6402C14.9883 23.6792 15.0787 23.6916 15.1662 23.6755L15.3343 24.1625L14.6987 24.3791C14.6567 24.3017 14.5916 24.2392 14.5122 24.2002C14.4129 24.1523 14.2985 24.1453 14.1941 24.1809C14.0897 24.2165 14.0037 24.2918 13.9551 24.3901C13.931 24.4388 13.9169 24.4917 13.9135 24.5457C13.9101 24.5998 13.9175 24.6541 13.9353 24.7053C13.9531 24.7565 13.9809 24.8038 14.0172 24.8443C14.0534 24.8849 14.0974 24.9179 14.1465 24.9416C14.1956 24.9654 14.2489 24.9795 14.3034 24.9828C14.3579 24.9862 14.4126 24.9789 14.4642 24.9612C14.5159 24.9436 14.5635 24.916 14.6044 24.88C14.6452 24.844 14.6785 24.8004 14.7024 24.7517C14.7411 24.6727 14.7535 24.5836 14.738 24.4972L15.2533 24.3207L14.6607 27.3179L14.7834 27.3349L15.3809 24.3061L15.6435 25.0597L15.1858 27.3934L15.3085 27.4116L15.7257 25.3007L16.4301 27.3325L16.5528 27.2923L15.8472 25.2605L17.489 26.6715L17.5761 26.5814L15.7638 25.0134L15.5024 24.2598L17.8571 26.2843L17.8792 26.26L17.9394 26.1918L15.6079 24.1917L16.1233 24.0152C16.1642 24.0937 16.2296 24.1569 16.3098 24.1953C16.3589 24.2192 16.4122 24.2332 16.4667 24.2366C16.5212 24.24 16.5759 24.2326 16.6275 24.215C16.6792 24.1973 16.7268 24.1697 16.7677 24.1338C16.8085 24.0978 16.8418 24.0542 16.8657 24.0054C16.8897 23.9568 16.9039 23.9039 16.9073 23.8498C16.9107 23.7957 16.9033 23.7415 16.8855 23.6902C16.8677 23.639 16.8399 23.5917 16.8036 23.5512C16.7674 23.5106 16.7234 23.4776 16.6743 23.4539C16.5777 23.4078 16.4667 23.4008 16.365 23.4345H16.3675ZM29.2798 19.2893C29.2375 19.2269 29.1724 19.1832 29.0982 19.1675C29.0248 19.1551 28.9493 19.171 28.8872 19.2119C28.8252 19.2529 28.7813 19.3159 28.7645 19.3879C28.7477 19.4599 28.7593 19.5356 28.797 19.5995C28.8346 19.6633 28.8954 19.7104 28.9669 19.7312C29.0421 19.748 29.121 19.7349 29.1866 19.6947C29.2192 19.6747 29.2475 19.6485 29.2698 19.6175C29.2921 19.5866 29.3081 19.5516 29.3166 19.5145C29.3335 19.4395 29.3203 19.3609 29.2798 19.2954M31.5131 19.8079C31.4929 19.7755 31.4665 19.7474 31.4353 19.7253C31.4041 19.7031 31.3688 19.6874 31.3315 19.6788C31.2561 19.6617 31.177 19.6749 31.1115 19.7155C31.0459 19.7561 30.9993 19.8209 30.9818 19.8955C30.973 19.9326 30.9718 19.9709 30.978 20.0084C30.9843 20.0459 30.998 20.0818 31.0183 20.1141C31.0386 20.1463 31.0651 20.1742 31.0963 20.1963C31.1275 20.2183 31.1628 20.234 31.2002 20.2425C31.2375 20.2511 31.2761 20.2524 31.3139 20.2462C31.3517 20.24 31.3879 20.2264 31.4204 20.2063C31.4529 20.1861 31.4811 20.1598 31.5033 20.1288C31.5255 20.0979 31.5413 20.0629 31.5499 20.0258C31.5595 19.9879 31.5612 19.9485 31.5548 19.91C31.5485 19.8715 31.5343 19.8347 31.5131 19.8018V19.8079ZM30.6198 18.5905C30.5784 18.5257 30.5128 18.4798 30.4375 18.4627C30.3621 18.4456 30.283 18.4587 30.2173 18.4992C30.1521 18.54 30.1057 18.6048 30.0885 18.6794C30.0794 18.7163 30.0781 18.7546 30.0844 18.7921C30.0907 18.8295 30.1046 18.8653 30.1253 18.8973C30.1557 18.9457 30.1999 18.9841 30.2524 19.0076C30.3048 19.0311 30.3631 19.0386 30.4198 19.0292C30.4766 19.0198 30.5292 18.994 30.5712 18.9549C30.6131 18.9158 30.6424 18.8652 30.6554 18.8096C30.6646 18.7722 30.6662 18.7333 30.6601 18.6953C30.6539 18.6573 30.6403 18.6208 30.6198 18.5881V18.5905ZM29.1264 19.0434C29.1797 19.0555 29.23 19.078 29.2744 19.1096C29.3189 19.1411 29.3566 19.1811 29.3854 19.2272C29.432 19.3018 29.4539 19.3891 29.4479 19.4768L30.1032 19.6265L30.2185 19.1286C30.1362 19.0958 30.0665 19.0378 30.0197 18.963C29.9621 18.8698 29.9436 18.7579 29.9682 18.6514C29.9929 18.545 30.0591 18.4526 30.1523 18.3945C30.2458 18.3366 30.3588 18.3179 30.4662 18.3425C30.5737 18.3672 30.6669 18.4332 30.7253 18.526C30.7544 18.5719 30.774 18.6231 30.7831 18.6765C30.7922 18.73 30.7905 18.7848 30.7782 18.8376C30.7659 18.8904 30.7431 18.9403 30.7113 18.9844C30.6795 19.0285 30.6392 19.0659 30.5928 19.0945C30.5171 19.1408 30.4287 19.1625 30.34 19.1566L30.2247 19.6545L30.8787 19.8055C30.912 19.7236 30.9704 19.6542 31.0456 19.607C31.0918 19.5782 31.1434 19.5587 31.1973 19.5497C31.2512 19.5407 31.3064 19.5423 31.3596 19.5546C31.4129 19.5668 31.4632 19.5893 31.5076 19.6209C31.5521 19.6524 31.5898 19.6924 31.6186 19.7385C31.6771 19.8312 31.6961 19.9431 31.6715 20.0497C31.6469 20.1563 31.5806 20.2488 31.4873 20.307C31.3937 20.3649 31.2808 20.3836 31.1733 20.359C31.0659 20.3343 30.9727 20.2683 30.9143 20.1755C30.8675 20.101 30.846 20.0135 30.8529 19.926L30.3216 19.8042L31.2259 22.7259L31.1032 22.7564L30.1891 19.8055L30.0087 20.5821L30.7093 22.8562L30.5866 22.8866L29.951 20.8293L29.4602 22.9232L29.3375 22.8952L29.8283 20.8025L28.3448 22.3753L28.2479 22.295L29.8872 20.5493L30.0676 19.7738L27.9399 22.0308L27.9141 22.0089L27.8478 21.9468L29.9498 19.7166L29.4197 19.5948C29.3868 19.6769 29.3283 19.7464 29.2528 19.7933C29.2065 19.8221 29.155 19.8416 29.1011 19.8506C29.0472 19.8596 28.992 19.858 28.9388 19.8457C28.8855 19.8335 28.8352 19.811 28.7908 19.7794C28.7463 19.7479 28.7086 19.7079 28.6798 19.6618C28.6507 19.6159 28.6311 19.5647 28.622 19.5112C28.6129 19.4578 28.6146 19.403 28.6269 19.3502C28.6392 19.2974 28.6619 19.2475 28.6938 19.2034C28.7256 19.1593 28.7659 19.1219 28.8123 19.0933C28.8586 19.0645 28.9102 19.0451 28.9641 19.0361C29.018 19.0271 29.0732 19.0288 29.1264 19.0409V19.0434ZM17.6964 19.2893C17.7387 19.2269 17.8038 19.1832 17.878 19.1675C17.9341 19.155 17.9926 19.1591 18.0463 19.1795C18.1 19.1998 18.1465 19.2354 18.1799 19.2818C18.2133 19.3282 18.2322 19.3833 18.2341 19.4403C18.2361 19.4973 18.221 19.5536 18.1909 19.6022C18.1706 19.6345 18.1441 19.6625 18.1129 19.6846C18.0817 19.7067 18.0464 19.7226 18.009 19.7311C17.9716 19.7397 17.9329 19.7409 17.895 19.7347C17.8572 19.7284 17.821 19.7148 17.7884 19.6947C17.7231 19.6536 17.6768 19.5886 17.6596 19.5138C17.6424 19.439 17.6556 19.3605 17.6964 19.2954M15.4619 19.8079C15.4812 19.7746 15.507 19.7456 15.5377 19.7224C15.5685 19.6991 15.6036 19.6823 15.6411 19.6728C15.7167 19.656 15.7959 19.6691 15.8619 19.7093C15.9106 19.7398 15.9491 19.7839 15.9726 19.836C15.9961 19.8882 16.0035 19.9461 15.994 20.0024C15.9844 20.0588 15.9583 20.111 15.9188 20.1527C15.8794 20.1943 15.8284 20.2234 15.7724 20.2364C15.697 20.2535 15.6179 20.2404 15.5524 20.1997C15.4868 20.1591 15.4402 20.0944 15.4227 20.0197C15.4064 19.9448 15.4205 19.8665 15.4619 19.8018V19.8079ZM16.3565 18.5905C16.3976 18.5258 16.4629 18.4798 16.5381 18.4627C16.6134 18.4455 16.6925 18.4587 16.758 18.4993C16.8236 18.54 16.8702 18.6047 16.8878 18.6794C16.9047 18.754 16.8915 18.8322 16.851 18.8973C16.8203 18.9456 16.7759 18.9838 16.7234 19.0072C16.671 19.0306 16.6127 19.0381 16.5559 19.0287C16.4992 19.0194 16.4465 18.9936 16.4044 18.9546C16.3624 18.9156 16.3329 18.8652 16.3196 18.8096C16.3107 18.7721 16.3093 18.7332 16.3156 18.6952C16.322 18.6572 16.3358 18.6207 16.3565 18.5881V18.5905ZM17.8498 19.0409C17.7965 19.0531 17.7462 19.0756 17.7018 19.1071C17.6573 19.1387 17.6196 19.1787 17.5909 19.2248C17.5441 19.2993 17.5226 19.3868 17.5295 19.4743L16.8681 19.6241L16.7516 19.1262C16.8341 19.0931 16.904 19.0352 16.9516 18.9606C16.9806 18.9147 17.0003 18.8635 17.0094 18.81C17.0184 18.7566 17.0168 18.7018 17.0045 18.649C16.9921 18.5962 16.9694 18.5463 16.9376 18.5022C16.9058 18.4581 16.8655 18.4207 16.8191 18.3921C16.7728 18.3632 16.7212 18.3437 16.6673 18.3347C16.6134 18.3257 16.5582 18.3274 16.505 18.3396C16.4517 18.3518 16.4014 18.3744 16.357 18.4059C16.3125 18.4375 16.2748 18.4775 16.246 18.5236C16.2169 18.5695 16.1973 18.6206 16.1882 18.6741C16.1791 18.7276 16.1808 18.7823 16.1931 18.8351C16.2054 18.888 16.2282 18.9379 16.26 18.982C16.2918 19.0261 16.3321 19.0635 16.3785 19.0921C16.4521 19.137 16.5377 19.1586 16.6239 19.1542L16.7467 19.6521L16.0914 19.803C16.0585 19.7209 16 19.6514 15.9245 19.6046C15.8782 19.5757 15.8267 19.5563 15.7728 19.5473C15.7189 19.5382 15.6637 19.5399 15.6105 19.5521C15.5572 19.5643 15.5069 19.5869 15.4625 19.6184C15.418 19.65 15.3803 19.69 15.3515 19.7361C15.3224 19.782 15.3028 19.8331 15.2937 19.8866C15.2846 19.9401 15.2863 19.9948 15.2986 20.0477C15.3109 20.1005 15.3336 20.1504 15.3655 20.1945C15.3973 20.2386 15.4376 20.276 15.484 20.3046C15.5303 20.3334 15.5819 20.3529 15.6358 20.3619C15.6897 20.3709 15.7448 20.3693 15.7981 20.357C15.8513 20.3448 15.9016 20.3223 15.9461 20.2907C15.9905 20.2592 16.0282 20.2192 16.057 20.1731C16.1048 20.0989 16.1268 20.0113 16.1196 19.9235L16.6509 19.8018L15.7466 22.7235L15.8693 22.7539L16.7835 19.803L16.9638 20.5797L16.2632 22.8538L16.3859 22.8842L17.024 20.8293L17.5148 22.9232L17.6375 22.8952L17.1467 20.8025L18.6302 22.3753L18.7259 22.295L17.0878 20.5493L16.9074 19.7738L19.0363 22.0308L19.0621 22.0089L19.1284 21.9468L17.0252 19.7166L17.5565 19.5948C17.589 19.6768 17.647 19.7464 17.7222 19.7933C17.7683 19.8221 17.8196 19.8415 17.8733 19.8505C17.927 19.8595 17.982 19.8578 18.0351 19.8456C18.1428 19.8208 18.2363 19.7547 18.2952 19.6618C18.3243 19.6159 18.3439 19.5647 18.353 19.5112C18.3621 19.4578 18.3604 19.403 18.3481 19.3502C18.3358 19.2974 18.313 19.2475 18.2812 19.2034C18.2494 19.1593 18.2091 19.1219 18.1627 19.0933C18.0694 19.0355 17.957 19.0167 17.8498 19.0409ZM34.9697 21.2359C34.9469 21.1623 34.8957 21.1006 34.8274 21.0642C34.7594 21.0286 34.68 21.0212 34.6065 21.0435C34.5699 21.055 34.536 21.0736 34.5066 21.0981C34.4773 21.1226 34.4531 21.1526 34.4354 21.1864C34.4177 21.2202 34.407 21.2572 34.4037 21.2951C34.4004 21.333 34.4047 21.3712 34.4163 21.4075C34.4279 21.4438 34.4466 21.4775 34.4713 21.5066C34.496 21.5357 34.5263 21.5597 34.5603 21.5773C34.5944 21.5948 34.6316 21.6055 34.6699 21.6087C34.7081 21.612 34.7466 21.6077 34.7832 21.5962C34.8202 21.5851 34.8547 21.5668 34.8845 21.5424C34.9143 21.5179 34.9389 21.4878 34.9569 21.4538C34.9748 21.4198 34.9857 21.3825 34.989 21.3443C34.9922 21.306 34.9878 21.2675 34.9758 21.231M36.4483 20.8974C36.4255 20.8242 36.3743 20.7629 36.306 20.727C36.2723 20.7089 36.2353 20.6976 36.1971 20.6939C36.159 20.6901 36.1205 20.6939 36.0839 20.7051C36.01 20.7278 35.9482 20.7785 35.9121 20.8463C35.8762 20.9143 35.869 20.9936 35.892 21.0669C35.915 21.1401 35.9663 21.2014 36.0348 21.2371C36.0857 21.2637 36.1434 21.2749 36.2007 21.2691C36.2579 21.2633 36.3122 21.2408 36.3567 21.2046C36.4011 21.1683 36.4337 21.1198 36.4505 21.0651C36.4672 21.0105 36.4673 20.9521 36.4508 20.8974H36.4483ZM34.7832 23.0327L33.2616 23.9725L33.188 23.8727L34.9267 22.7953C34.8813 22.8696 34.8335 22.9487 34.7832 23.0327ZM34.8838 20.9559C34.9323 20.9809 34.9752 21.0154 35.01 21.0572C35.0448 21.099 35.0707 21.1474 35.0863 21.1994C35.1144 21.2831 35.1144 21.3737 35.0863 21.4574L35.6802 21.7703L35.9256 21.3187C35.8547 21.266 35.8027 21.1922 35.7771 21.108C35.745 21.0034 35.756 20.8905 35.8077 20.7939C35.8595 20.6973 35.9478 20.6251 36.0532 20.5931C36.1586 20.5612 36.2725 20.5721 36.3698 20.6235C36.4672 20.6749 36.54 20.7624 36.5722 20.867C36.6044 20.972 36.5934 21.0854 36.5416 21.1823C36.4193 21.2455 36.3016 21.3171 36.1894 21.3966C36.1376 21.3991 36.0859 21.3912 36.0372 21.3734L35.9047 21.6169C35.809 21.7009 35.7108 21.7947 35.6127 21.8993L32.9684 23.5331L32.9426 23.5075L32.8947 23.4308L35.5071 21.8166L35.0286 21.5658C34.9762 21.6371 34.9016 21.6893 34.8163 21.7143C34.7636 21.7308 34.7082 21.7367 34.6532 21.7317C34.5982 21.7267 34.5447 21.7108 34.4959 21.6851C34.4472 21.6594 34.404 21.6243 34.3691 21.5819C34.3341 21.5394 34.308 21.4905 34.2924 21.438C34.2764 21.3862 34.2709 21.3318 34.2761 21.2779C34.2814 21.224 34.2973 21.1717 34.323 21.1239C34.3484 21.0759 34.3832 21.0334 34.4254 20.9989C34.4675 20.9644 34.5161 20.9386 34.5684 20.923C34.6206 20.9064 34.6756 20.9003 34.7302 20.9051C34.7848 20.9099 34.8379 20.9255 34.8863 20.951L34.8838 20.9559ZM11.9967 21.2359C12.0133 21.1809 12.046 21.1321 12.0907 21.0957C12.1353 21.0593 12.1899 21.0369 12.2475 21.0314C12.305 21.0259 12.3629 21.0376 12.4138 21.0649C12.4646 21.0922 12.5061 21.1339 12.5329 21.1847C12.5692 21.252 12.5772 21.3308 12.555 21.4039C12.544 21.4407 12.5256 21.475 12.501 21.5048C12.4764 21.5345 12.4461 21.559 12.4118 21.5769C12.3775 21.5949 12.3399 21.6058 12.3013 21.6091C12.2627 21.6124 12.2238 21.608 12.1869 21.5962C12.1499 21.585 12.1156 21.5666 12.0858 21.5421C12.056 21.5176 12.0314 21.4876 12.0134 21.4536C11.9954 21.4197 11.9843 21.3825 11.9808 21.3443C11.9773 21.3061 11.9815 21.2676 11.993 21.231M10.5206 20.8974C10.5433 20.8245 10.594 20.7633 10.6617 20.727C10.7126 20.7004 10.7703 20.6892 10.8276 20.695C10.8848 20.7008 10.9391 20.7233 10.9835 20.7595C11.028 20.7958 11.0606 20.8444 11.0774 20.899C11.0941 20.9536 11.0942 21.012 11.0776 21.0667C11.0611 21.1216 11.0284 21.1704 10.9837 21.2068C10.939 21.2433 10.8844 21.2656 10.8269 21.2711C10.7693 21.2766 10.7114 21.265 10.6606 21.2376C10.6097 21.2103 10.5682 21.1686 10.5414 21.1178C10.5063 21.0514 10.4988 20.9741 10.5206 20.9023V20.8974ZM12.1808 23.0279L13.7036 23.9677L13.7747 23.8654L12.0372 22.788C12.0826 22.8696 12.1329 22.9499 12.1808 23.0327V23.0279ZM12.0826 20.951C11.9853 21.0023 11.9124 21.0899 11.8801 21.1945C11.8526 21.2783 11.8526 21.3687 11.8801 21.4526L11.2862 21.7654L11.0408 21.3138C11.1121 21.2612 11.1646 21.1874 11.1905 21.1032C11.2068 21.0514 11.2124 20.997 11.2072 20.9431C11.2019 20.8891 11.1858 20.8368 11.1599 20.7891C11.1078 20.6928 11.0197 20.6206 10.9144 20.5882C10.8623 20.5724 10.8074 20.5669 10.7531 20.5721C10.6988 20.5774 10.646 20.5932 10.5979 20.6187C10.5495 20.6439 10.5067 20.6784 10.4719 20.7202C10.4372 20.762 10.4112 20.8102 10.3954 20.8621C10.379 20.914 10.3732 20.9686 10.3782 21.0227C10.3833 21.0768 10.3991 21.1294 10.4249 21.1774C10.547 21.2409 10.6646 21.3125 10.777 21.3917C10.8284 21.3943 10.8797 21.3864 10.9279 21.3686L11.0605 21.612C11.1562 21.696 11.2543 21.7898 11.3537 21.8945L13.998 23.5294L14.0177 23.5014L14.0655 23.4247L11.4519 21.8105L11.9329 21.556C11.9856 21.6271 12.0601 21.6792 12.1452 21.7046C12.1973 21.7206 12.2522 21.7262 12.3066 21.721C12.3609 21.7157 12.4137 21.6998 12.4618 21.6741C12.5591 21.6228 12.6319 21.5352 12.6642 21.4307C12.6802 21.3789 12.6857 21.3245 12.6804 21.2706C12.6752 21.2167 12.6592 21.1643 12.6336 21.1166C12.6082 21.0686 12.5734 21.0261 12.5312 20.9916C12.4891 20.9571 12.4405 20.9313 12.3881 20.9157C12.2855 20.8881 12.1761 20.9007 12.0826 20.951Z" fill="#231F20"/>
<path d="M23.4882 10.2127C24.13 10.2127 24.6502 9.69655 24.6502 9.05984C24.6502 8.42313 24.13 7.90698 23.4882 7.90698C22.8464 7.90698 22.3262 8.42313 22.3262 9.05984C22.3262 9.69655 22.8464 10.2127 23.4882 10.2127Z" fill="#EC1C24"/>
<path d="M23.4883 15.5484C24.2243 15.5484 24.8209 14.9565 24.8209 14.2264C24.8209 13.4962 24.2243 12.9043 23.4883 12.9043C22.7524 12.9043 22.1558 13.4962 22.1558 14.2264C22.1558 14.9565 22.7524 15.5484 23.4883 15.5484Z" fill="#EC1C24"/>
<path d="M23.4882 7.6706C23.8169 7.6706 24.0833 7.40626 24.0833 7.08017C24.0833 6.75409 23.8169 6.48975 23.4882 6.48975C23.1595 6.48975 22.8931 6.75409 22.8931 7.08017C22.8931 7.40626 23.1595 7.6706 23.4882 7.6706Z" fill="#ADD4D6"/>
<path fill-rule="evenodd" clip-rule="evenodd" d="M25.3351 9.22046C25.4529 9.22022 25.568 9.25464 25.6661 9.31937C25.7641 9.3841 25.8406 9.47623 25.8858 9.5841C25.931 9.69196 25.943 9.81072 25.9202 9.92533C25.8973 10.0399 25.8408 10.1453 25.7576 10.228C25.6744 10.3106 25.5684 10.367 25.4529 10.3899C25.3374 10.4128 25.2177 10.4011 25.1089 10.3565C25.0001 10.3118 24.907 10.2362 24.8416 10.139C24.7761 10.0419 24.7412 9.92772 24.7412 9.81089C24.7412 9.65451 24.8037 9.50451 24.9151 9.39382C25.0264 9.28313 25.1775 9.22078 25.3351 9.22046Z" fill="#BDD9D4"/>
<path fill-rule="evenodd" clip-rule="evenodd" d="M21.643 9.22046C21.7607 9.22046 21.8757 9.25509 21.9736 9.31996C22.0715 9.38484 22.1478 9.47705 22.1928 9.58494C22.2378 9.69283 22.2496 9.81154 22.2267 9.92607C22.2037 10.0406 22.147 10.1458 22.0638 10.2284C21.9806 10.311 21.8745 10.3672 21.7591 10.39C21.6436 10.4128 21.524 10.4011 21.4152 10.3564C21.3065 10.3117 21.2135 10.236 21.1481 10.1389C21.0828 10.0418 21.0479 9.92766 21.0479 9.81089C21.0479 9.73335 21.0632 9.65657 21.0932 9.58494C21.1231 9.51331 21.1669 9.44822 21.2222 9.39339C21.2774 9.33857 21.343 9.29507 21.4152 9.2654C21.4874 9.23573 21.5648 9.22046 21.643 9.22046Z" fill="#ADD4D6"/>
<path d="M25.3272 12.5146C25.3813 12.1841 25.1551 11.8726 24.8219 11.819C24.4888 11.7653 24.1749 11.9898 24.1209 12.3203C24.0668 12.6508 24.293 12.9622 24.6261 13.0158C24.9593 13.0695 25.2731 12.8451 25.3272 12.5146Z" fill="#ADD4D6"/>
<path fill-rule="evenodd" clip-rule="evenodd" d="M22.2542 11.8098C22.3755 11.8098 22.4941 11.8455 22.595 11.9124C22.6959 11.9793 22.7745 12.0743 22.821 12.1856C22.8674 12.2968 22.8796 12.4192 22.8559 12.5373C22.8322 12.6553 22.7738 12.7638 22.688 12.8489C22.6022 12.934 22.4929 12.992 22.3738 13.0155C22.2548 13.039 22.1315 13.0269 22.0194 12.9809C21.9073 12.9348 21.8114 12.8568 21.744 12.7567C21.6766 12.6566 21.6406 12.5389 21.6406 12.4185C21.6406 12.2571 21.7053 12.1022 21.8203 11.9881C21.9354 11.8739 22.0914 11.8098 22.2542 11.8098Z" fill="#ADD4D6"/>
<path fill-rule="evenodd" clip-rule="evenodd" d="M26.8236 2.30317H26.2825L25.3695 3.7056H24.0824V1.92944L25.8469 0.798494V0.139893H21.1301V0.798494L22.8933 1.92944V3.7056H21.6062L20.6932 2.30317H20.1533V6.28887H20.6932L21.6062 4.88158H22.8933V6.29253C23.2853 6.20975 23.6904 6.20975 24.0824 6.29253V4.88158H25.3695L26.2825 6.28522H26.8236V2.30317Z" fill="#D8A456"/>
</g>
<defs>
<clipPath id="clip0_2009_2">
<rect width="47" height="87" fill="white"/>
</clipPath>
</defs>
</svg>
