<svg xmlns="http://www.w3.org/2000/svg" width="480" height="248" viewBox="0 0 480 248" fill="none">
<rect width="480" height="248" fill="#C9DDDE"/>
<circle cx="267.918" cy="156.49" r="72" fill="#D2EAEC"/>
<g filter="url(#filter0_d_1520_423)">
<rect x="176.939" y="49.5918" width="182.449" height="143.265" rx="6.53333" fill="white"/>
</g>
<rect width="168.98" height="129.796" rx="3.26667" transform="matrix(1 0 0 -1 183.673 186.123)" fill="#C9DDDE"/>
<rect x="208.163" y="74.175" width="21.7603" height="22.3484" rx="3.26667" fill="white"/>
<rect x="208.163" y="110.05" width="21.7603" height="22.3484" rx="3.26667" fill="white"/>
<rect x="208.163" y="145.925" width="21.7603" height="22.3484" rx="3.26667" fill="white"/>
<rect x="234.628" y="75.9392" width="92.9225" height="2.94058" rx="1.47029" fill="white"/>
<rect x="234.628" y="111.814" width="92.9225" height="2.94058" rx="1.47029" fill="white"/>
<rect x="234.628" y="147.69" width="92.9225" height="2.94058" rx="1.47029" fill="white"/>
<rect x="234.628" y="84.1731" width="92.9225" height="2.94058" rx="1.47029" fill="white"/>
<rect x="234.628" y="120.048" width="92.9225" height="2.94058" rx="1.47029" fill="white"/>
<rect x="234.628" y="155.923" width="92.9225" height="2.94058" rx="1.47029" fill="white"/>
<rect x="234.628" y="92.4067" width="45.285" height="2.94058" rx="1.47029" fill="white"/>
<rect x="234.628" y="128.282" width="45.285" height="2.94058" rx="1.47029" fill="white"/>
<rect x="234.628" y="164.157" width="45.285" height="2.94058" rx="1.47029" fill="white"/>
<rect x="337.959" y="123.061" width="36.7347" height="36.7347" rx="3.26667" fill="#99C4C7"/>
<rect x="337.959" y="80.2041" width="36.7347" height="36.7347" rx="3.26667" fill="#99C4C7"/>
<path d="M360.926 137.242C360.926 139.878 358.839 141.964 356.327 141.964C353.814 141.964 351.727 139.878 351.727 137.242C351.727 134.606 353.814 132.521 356.327 132.521C358.839 132.521 360.926 134.606 360.926 137.242Z" stroke="white" stroke-width="3" stroke-linejoin="round"/>
<path d="M365.51 151.837C365.51 146.663 361.399 142.469 356.327 142.469C351.255 142.469 347.143 146.663 347.143 151.837" stroke="white" stroke-width="3" stroke-linejoin="round"/>
<circle cx="354.576" cy="97.4334" r="6.5457" stroke="white" stroke-width="3" stroke-linejoin="round"/>
<path d="M359.734 102.591L365.51 107.955" stroke="white" stroke-width="3" stroke-linejoin="round"/>
<g filter="url(#filter1_d_1520_423)">
<rect x="105.918" y="60" width="86.9388" height="122.449" rx="6.53333" fill="white"/>
</g>
<rect width="74.6939" height="110.204" rx="3.26667" transform="matrix(1 0 0 -1 112.041 176.326)" fill="#D2EAEC"/>
<path d="M152.274 169.967C151.225 168.94 149.459 169.712 149.499 171.18L150.069 191.771C150.108 193.179 151.793 193.881 152.82 192.916L154.378 191.454C155.202 190.68 156.543 190.957 156.994 191.993L159.874 198.623C160.237 199.459 161.214 199.836 162.045 199.46L164.399 198.396C165.212 198.028 165.58 197.075 165.224 196.257L162.299 189.523C161.856 188.504 162.539 187.349 163.645 187.246L165.876 187.038C167.261 186.909 167.861 185.217 166.867 184.244L152.274 169.967Z" fill="#699598"/>
<path d="M116.327 95.4634V95.3079C116.464 94.6777 116.605 94.0475 116.74 93.4163C116.923 92.5497 117.102 91.6816 117.285 90.783L121.086 91.5992L121.665 89.3655L124.658 89.9807C124.831 89.1919 125 88.4223 125.175 87.634L129.578 88.498C129.416 89.3142 129.261 90.0963 129.101 90.896L132.699 91.6293C132.877 90.8415 133.05 90.0745 133.225 89.2971L142.08 91.1877C142.275 90.401 142.462 89.6516 142.648 88.8918L143.84 89.0903C144.035 88.2989 144.224 87.5324 144.417 86.7467L148.137 87.5734C148.37 86.7773 148.595 86.0129 148.825 85.2282L152.572 86.087C152.611 85.5117 152.854 85.0121 152.841 84.4094C152.825 83.7165 153.109 83.0168 153.268 82.2954L154.806 82.6229C154.895 82.2322 154.98 81.8585 155.068 81.4781L155.367 81.5247C155.419 81.3294 155.465 81.1423 155.507 80.9764L159.003 81.8362C158.931 81.3345 159.25 81.4346 159.499 81.4346C161.014 81.4346 162.528 81.4359 164.041 81.4387C166.467 81.4429 168.893 81.448 171.319 81.4543C171.893 81.4543 172.467 81.4543 173.041 81.4543C173.092 80.9997 173.515 80.8365 173.99 81.0127L174.748 80.7458C174.88 80.5634 175.103 80.311 175.26 80.0233C175.4 79.7642 175.385 79.389 175.831 79.4491C175.989 79.1998 176.136 79.4061 176.31 79.4693C176.427 79.3408 176.531 79.1775 176.678 79.0796C176.811 79.0033 176.964 78.9693 177.116 78.9821C177.162 78.9821 177.183 79.1863 177.241 79.2812C177.293 79.3713 177.367 79.4466 177.456 79.4999C177.619 79.588 177.727 79.8062 177.681 79.9606C177.645 80.1014 177.624 80.2456 177.618 80.3908C177.601 80.5307 177.601 80.6722 177.618 80.8121C177.632 80.9023 177.689 81.0334 177.757 81.0578C177.919 81.1148 177.964 81.205 177.916 81.3501C177.838 81.5854 177.749 81.8165 177.658 82.0575C177.719 82.1928 177.813 82.3622 177.874 82.5426C177.954 82.7748 177.81 83.035 177.566 83.0546C177.238 83.0811 177.126 83.3656 176.923 83.5397C176.876 83.5807 176.862 83.7045 176.883 83.774C176.956 84.002 176.832 84.1119 176.661 84.2016C176.571 84.2487 176.475 84.2834 176.395 84.3177C176.409 84.5213 176.478 84.726 176.418 84.8815C176.33 85.1101 176.389 85.3443 176.491 85.4635C176.646 85.6444 176.589 85.8315 176.644 86.0093C176.716 86.2482 176.562 86.5498 176.842 86.7348C176.865 86.7493 176.864 86.7986 176.876 86.8307C176.949 87.0323 177.041 87.2293 177.091 87.4366C177.143 87.6537 177.156 87.8807 177.191 88.1414L177.095 88.245C177.33 88.5042 177.442 88.8452 177.356 89.109C177.241 89.4614 177.432 89.6646 177.503 89.8625L178.148 89.9429C178.148 90.3539 178.148 90.6964 178.148 91.0395C178.148 91.1831 178.163 91.3261 178.163 91.4697C178.164 91.6132 178.155 91.7475 178.151 91.8843C178.138 92.3025 177.718 92.6461 177.927 93.1063C177.932 93.1183 177.92 93.139 177.913 93.1545C177.727 93.5692 177.717 94.0003 177.806 94.4429C177.823 94.5311 177.763 94.6368 177.732 94.7327C177.582 95.1991 177.414 95.6655 177.29 96.1397C177.25 96.2911 177.197 96.3787 177.069 96.4507C176.914 96.5398 176.743 96.6238 176.629 96.7544C176.28 97.1514 176.223 97.6753 176.071 98.1579C175.968 98.489 175.932 98.8518 175.616 99.0819C175.493 99.1716 175.507 99.2851 175.651 99.3353C175.909 99.4255 175.883 99.566 175.748 99.7432C175.72 99.7752 175.701 99.8142 175.692 99.8562C175.663 100.172 175.658 100.492 175.607 100.805C175.581 100.965 175.481 101.116 175.406 101.266C175.369 101.342 175.281 101.403 175.27 101.478C175.21 101.905 175.063 102.315 174.969 102.732C174.817 103.388 174.804 104.147 174.182 104.517C174.224 104.924 174.261 105.282 174.301 105.676L173.113 105.332C172.995 105.79 172.885 106.22 172.77 106.669L171.952 106.483C171.686 107.286 171.43 108.06 171.168 108.851L170.186 108.592C169.861 109.896 169.548 111.15 169.216 112.479L169.947 112.441C170.076 112.53 170.205 112.614 170.33 112.709C170.407 112.769 170.495 112.832 170.536 112.916C170.724 113.279 170.91 113.648 171.073 114.024C171.174 114.257 171.232 114.509 171.309 114.753C171.324 114.8 171.32 114.865 171.351 114.895C171.793 115.323 172.242 115.739 172.916 115.738C173.26 115.738 173.605 115.729 173.949 115.758C174.064 115.768 174.246 115.866 174.264 115.952C174.305 116.159 174.447 116.227 174.588 116.315L175.434 116.86L175.956 117.197L175.151 119.352L175.525 119.66C175.644 119.758 175.771 119.849 175.883 119.956C175.937 120.008 176.011 120.106 175.994 120.156C175.925 120.363 175.853 120.583 175.725 120.754C175.662 120.837 175.473 120.826 175.341 120.857C175.252 120.878 175.162 120.897 175.024 120.928C175.082 121.581 175.139 122.224 175.196 122.863L175.546 122.893C175.561 123.042 175.576 123.186 175.589 123.33C175.606 123.524 175.673 123.675 175.903 123.636C176.216 123.584 176.471 123.665 176.711 123.879C176.79 123.949 177.065 123.949 177.096 123.894C177.241 123.635 177.416 123.79 177.609 123.796C177.641 124.178 177.753 124.563 177.687 124.914C177.572 125.516 177.605 126.074 177.856 126.624C177.867 126.647 177.868 126.676 177.879 126.698C178.069 127.143 178.046 127.53 177.699 127.921C177.501 128.143 177.324 128.265 177.031 128.253C176.691 128.24 176.618 128.335 176.622 128.687C176.623 128.832 176.61 128.976 176.582 129.117C176.554 129.263 176.503 129.404 176.462 129.547C176.169 129.769 175.888 130.018 175.924 130.48L175.305 130.369L175.566 130.813L173.795 130.363C173.75 130.585 173.708 130.793 173.664 131.014L173.378 130.936C173.35 131.118 173.324 131.286 173.296 131.47L172.931 131.399C172.845 131.612 172.947 131.914 172.631 132.009C172.604 132.017 172.6 132.102 172.585 132.151C172.552 132.254 172.518 132.362 172.497 132.427C172.37 132.468 172.253 132.471 172.194 132.531C171.939 132.79 171.588 133.004 171.772 133.478C171.83 133.63 171.608 133.834 171.473 133.841C171.363 133.846 171.179 133.893 171.164 133.953C171.137 134.063 171.174 134.251 171.254 134.311C171.485 134.483 171.526 134.729 171.616 134.968C171.728 135.256 171.588 135.615 171.869 135.849C171.884 135.861 171.877 135.898 171.883 135.922C171.916 136.05 171.95 136.178 171.977 136.282L172.38 136.21C172.381 136.311 172.375 136.412 172.36 136.512C172.312 136.706 172.386 136.79 172.577 136.83C172.841 136.886 173.1 136.972 173.382 137.051C173.266 137.683 173.154 138.282 173.047 138.865C172.949 138.885 172.751 138.865 172.675 138.951C172.049 139.663 171.45 140.397 170.836 141.119C170.743 141.229 170.615 141.309 170.539 141.374C170.417 141.291 170.355 141.225 170.281 141.202C170.105 141.146 170.007 141.054 170.006 140.854C170.006 140.571 170.082 140.28 169.898 140.012C169.84 139.928 169.852 139.795 169.827 139.653C169.683 139.633 169.488 139.598 169.292 139.579C169.103 139.558 168.913 139.55 168.724 139.556C168.594 139.561 168.465 139.639 168.338 139.631C168.124 139.612 167.913 139.577 167.704 139.528C167.612 139.503 167.521 139.471 167.433 139.434C167.374 139.583 167.306 139.758 167.234 139.941C167.367 140.036 167.375 140.26 167.263 140.48C167.312 140.636 167.397 140.77 167.361 140.829C167.328 140.881 167.284 140.926 167.233 140.96C167.181 140.994 167.123 141.017 167.062 141.027C166.982 141.033 166.887 140.905 166.81 140.825C166.776 140.776 166.749 140.722 166.732 140.665C166.709 140.68 166.689 140.7 166.675 140.723C166.66 140.746 166.651 140.772 166.647 140.799C166.619 141.04 166.674 141.317 166.332 141.407C166.281 141.421 166.248 141.555 166.232 141.638C166.209 141.753 166.215 141.873 166.2 141.99C166.182 142.13 166.154 142.27 166.131 142.405L166.473 142.48L165.908 144.994L166.231 145.114L165.947 145.321C166.102 145.404 166.26 145.479 166.422 145.546C166.728 145.655 166.347 145.87 166.507 145.998L166.803 146.082C166.606 146.286 166.719 146.688 166.299 146.652C166.312 146.719 166.32 146.777 166.334 146.833C166.343 146.87 166.349 146.926 166.373 146.936C166.415 146.947 166.459 146.944 166.499 146.929C166.555 146.91 166.61 146.888 166.664 146.864C166.677 146.927 166.706 146.993 166.699 147.054C166.681 147.215 166.647 147.373 166.616 147.546L167.323 147.717C167.299 147.835 167.28 147.933 167.257 148.046C167.055 148.027 166.836 147.846 166.686 148.142L167.024 148.375C166.914 148.618 166.975 148.951 166.799 149.269C166.735 149.165 166.707 149.121 166.66 149.044L166.562 149.326C166.407 149.332 166.28 149.119 166.123 149.289C166.123 149.289 166.032 149.237 166.023 149.203C166.013 149.156 166.023 149.07 166.055 149.054C166.162 149.005 166.271 148.964 166.383 148.931C166.351 148.776 166.08 148.683 165.932 148.788V149.025C165.835 149.018 165.747 148.992 165.669 149.009C165.537 149.039 165.351 149.061 165.297 149.15C165.162 149.375 165.09 149.637 164.993 149.886C164.983 149.914 165.004 149.953 165.004 149.989C165.004 150.14 165.004 150.29 165.004 150.44L164.906 150.467C164.865 150.408 164.827 150.347 164.792 150.284C164.758 150.212 164.737 150.133 164.71 150.058L164.655 150.078C164.666 150.13 164.676 150.186 164.686 150.24L164.518 150.271L164.582 150.323C164.505 150.47 164.427 150.616 164.345 150.773C164.206 150.686 164.121 150.594 164.03 150.587C163.921 150.587 163.815 150.625 163.729 150.694C163.705 150.723 163.689 150.759 163.683 150.797C163.676 150.834 163.68 150.873 163.693 150.909C163.793 151.058 163.776 151.188 163.627 151.25C163.548 151.283 163.427 151.213 163.324 151.19C163.086 151.138 162.946 151.257 162.916 151.519C162.69 151.428 162.489 151.295 162.277 151.273C161.964 151.24 161.908 151.014 161.818 150.8C161.8 150.736 161.788 150.67 161.784 150.603C161.396 150.897 161.396 150.897 161.239 150.661C161.247 150.868 161.155 150.962 160.962 150.949C160.938 150.945 160.914 150.951 160.894 150.965C160.694 151.203 160.472 151.427 160.31 151.69C160.224 151.829 160.066 152.138 160.275 152.185C160.623 152.263 160.55 152.583 160.536 152.676C160.5 152.939 160.652 153.075 160.783 153.206C160.969 153.393 161.102 153.569 161.144 153.85C161.182 154.118 161.182 154.337 160.986 154.532C160.98 154.538 160.993 154.563 161.001 154.59L161.905 154.65C161.779 154.9 161.71 155.122 161.573 155.286C161.436 155.451 161.232 155.553 161.056 155.684L161.098 155.792H161.732C161.663 156.114 161.599 156.443 161.521 156.768C161.5 156.857 161.432 156.935 161.404 157.024C161.311 157.312 161.129 157.615 161.161 157.891C161.213 158.305 161.093 158.646 160.955 159.006C160.917 159.102 160.922 159.213 160.903 159.344C161.273 159.237 161.346 159.266 161.488 159.479C161.643 159.716 161.608 159.909 161.385 160.058C161.289 160.058 161.127 160.074 161.124 160.104C161.089 160.47 160.898 160.306 160.674 160.207V160.951C160.275 160.767 160.185 161.235 159.896 161.332C159.935 161.459 160.401 161.518 159.94 161.733L160.154 162.072L159.896 162.399C159.669 162.517 159.423 162.593 159.17 162.623C158.68 162.665 158.653 162.672 158.682 163.112L158.342 162.972L157.722 163.469H157.671C157.626 163.429 157.585 163.358 157.537 163.354C157.19 163.325 157.072 163.11 157.01 162.797C156.989 162.693 156.827 162.606 156.717 162.53C156.572 162.43 156.366 162.435 156.369 162.151C156.371 161.822 156.088 161.563 155.824 161.557C155.415 161.548 155.321 161.425 155.438 161.025L155.086 160.999L154.262 159.877C154.373 159.814 154.475 159.791 154.513 159.729C154.616 159.561 154.688 159.376 154.779 159.184L154.651 159.132C154.464 159.258 154.29 159.339 154.162 159.469C153.938 159.702 153.795 159.405 153.649 159.429C153.624 159.279 153.602 159.15 153.576 158.997L153.222 159.198C153.265 159.333 153.301 159.443 153.335 159.548L152.98 159.585L152.515 160.493C151.902 160.018 151.388 160.382 150.869 160.721C150.773 160.484 150.709 160.292 150.618 160.115C150.574 160.029 150.478 159.969 150.407 159.895C150.181 159.657 149.875 159.481 149.803 159.122C149.749 158.845 149.7 158.568 149.63 158.295C149.614 158.235 149.527 158.192 149.469 158.14C149.432 158.203 149.375 158.263 149.365 158.331C149.331 158.524 149.068 158.726 148.916 158.645C148.756 158.549 148.601 158.445 148.451 158.334L148.201 158.541C148.051 158.365 147.94 158.42 147.865 158.608C147.751 158.892 147.555 159.034 147.239 159.001C147.193 158.997 147.143 159.041 147.093 159.048C146.634 159.107 146.438 159.514 146.127 159.769C145.909 159.948 145.647 160.075 145.404 160.223C145.392 160.229 145.38 160.231 145.368 160.231C145.355 160.231 145.343 160.229 145.332 160.223C145.138 160.052 145.007 160.244 144.907 160.278C144.684 160.168 144.469 160.106 144.312 159.974C144.154 159.841 144.053 159.639 143.925 159.467L143.869 159.47V160.359C143.387 160.339 143.391 160.338 143.324 159.926C143.309 159.836 143.247 159.754 143.199 159.65L142.789 159.89L142.535 159.825L142.401 160.13C142.061 159.983 141.72 159.893 141.717 159.425C141.717 159.302 141.634 159.085 141.379 159.149C141.318 159.164 141.209 159.075 141.155 159.008C140.901 158.692 140.631 158.417 140.177 158.46C140.154 158.459 140.13 158.452 140.11 158.441C140.089 158.429 140.071 158.413 140.057 158.394C139.932 158.168 139.772 157.948 139.709 157.704C139.646 157.46 139.477 157.393 139.305 157.362C139.118 157.329 139.044 157.287 139.086 157.088C139.123 156.913 138.963 156.875 138.887 156.949C138.763 157.07 138.57 157.142 138.564 157.382C138.56 157.563 138.469 157.745 138.409 157.92C138.353 158.087 138.283 158.248 138.228 158.415C138.18 158.561 138.151 158.714 138.099 158.859C138.075 158.925 138.007 158.973 137.978 159.038C137.938 159.14 137.904 159.244 137.875 159.349L137.918 159.355C137.904 159.47 137.889 159.585 137.875 159.7C137.789 159.646 137.688 159.603 137.617 159.532C137.532 159.445 137.488 159.267 137.4 159.248C137.142 159.19 137.073 159.003 137.034 158.798C136.965 158.438 136.918 158.072 136.858 157.682L136.456 157.916C136.223 158.052 136.068 157.996 135.978 157.731C135.889 157.466 135.809 157.185 135.72 156.898C135.705 156.891 135.688 156.888 135.671 156.889C135.316 156.958 135.168 156.85 135.091 156.478C135.07 156.374 135.043 156.213 134.978 156.188C134.842 156.136 134.678 156.156 134.473 156.144C134.554 155.964 134.637 155.796 134.704 155.622C134.771 155.448 134.82 155.27 134.875 155.097C134.677 155.026 134.4 155.18 134.301 154.838C134.244 155.02 134.187 155.201 134.123 155.405L133.942 155.445L133.967 155.393L133.525 155.169C133.431 155.405 133.014 155.565 133.365 155.915L133.257 156.035C133.014 155.96 132.973 155.782 133.003 155.593C133.041 155.35 132.941 155.04 133.297 154.926C133.341 154.912 133.368 154.782 133.366 154.707C133.366 154.609 133.314 154.513 133.303 154.414C133.285 154.268 133.296 154.118 133.096 154.074C133.061 154.065 133.028 153.965 133.026 153.907C133.022 153.78 133.039 153.653 133.047 153.526L132.989 153.56L132.627 153.208L132.803 152.932L132.528 152.854C132.597 152.733 132.646 152.562 132.709 152.557C132.88 152.544 133.114 152.54 133.22 152.642C133.431 152.843 133.581 153.112 133.736 153.367C133.791 153.461 133.878 153.533 133.981 153.569C134.083 153.605 134.195 153.604 134.297 153.565C134.452 153.509 134.58 153.309 134.672 153.146C134.759 152.991 134.756 152.787 134.842 152.633C135.002 152.344 135.088 152.049 135.056 151.719C135.043 151.586 135.045 151.482 135.181 151.368C135.269 151.298 135.338 151.207 135.379 151.102C135.421 150.998 135.436 150.884 135.42 150.772C135.397 150.588 135.434 150.395 135.459 150.207C135.464 150.176 135.475 150.146 135.492 150.119C135.509 150.092 135.531 150.07 135.558 150.052C135.796 149.937 136.04 149.8 136.272 150.075C136.319 150.127 136.38 150.163 136.448 150.178C137.053 150.303 137.584 149.941 137.696 149.316C137.481 149.29 137.271 149.249 137.307 148.945C137.311 148.909 137.18 148.851 137.108 148.814C137.065 148.792 136.989 148.807 136.967 148.777C136.798 148.547 136.638 148.31 136.474 148.076L136.526 148.03L136.72 148.097C136.772 147.871 136.824 147.657 136.879 147.414C136.873 147.332 136.91 147.168 136.847 147.108C136.616 146.885 136.796 146.712 136.877 146.518C136.86 146.492 136.848 146.451 136.822 146.436C136.518 146.272 136.552 146.073 136.743 145.839C136.785 145.768 136.797 145.684 136.778 145.604C136.754 145.503 136.692 145.41 136.619 145.258C136.447 145.258 136.21 145.262 135.973 145.258C135.891 145.253 135.809 145.234 135.734 145.201C135.639 145.161 135.557 145.083 135.461 145.054C135.239 144.989 135.108 144.711 135.219 144.506C135.267 144.418 135.322 144.335 135.374 144.246L135.171 144.122C135.242 144.011 135.298 143.911 135.367 143.821C135.4 143.779 135.471 143.718 135.505 143.73C135.829 143.811 136.011 143.484 136.299 143.458C136.376 143.45 136.446 143.36 136.493 143.325C136.441 143.157 136.405 143.03 136.39 142.974L135.345 142.526C135.43 142.382 135.504 142.294 135.535 142.192C135.561 142.103 135.555 141.92 135.535 141.916C135.299 141.864 135.057 141.843 134.827 141.812C134.791 141.916 134.766 141.986 134.741 142.059C134.482 141.904 134.488 141.904 134.586 141.634C134.625 141.527 134.62 141.403 134.634 141.298L134.183 141.377C134.162 141.183 134.146 141.034 134.127 140.859L134.325 140.733L134.58 140.863L134.644 140.604L135.165 140.492C135.117 140.195 134.86 140.143 134.673 140.103C134.564 139.602 134.853 139.33 135.207 139.086L135.442 139.131C135.321 138.924 135.223 138.751 135.125 138.58C135.425 138.373 135.492 138.003 135.291 137.714C135.253 137.659 135.184 137.562 135.2 137.54C135.348 137.353 135.31 137.139 135.299 136.934C135.289 136.767 135.295 136.558 135.201 136.446C134.928 136.115 134.923 135.807 135.174 135.481C135.294 135.326 135.253 135.202 135.129 135.074C135.031 134.979 134.944 134.872 134.87 134.758C134.776 134.602 134.719 134.421 134.617 134.27C134.478 134.063 134.314 133.873 134.156 133.68C134.118 133.626 134.069 133.581 134.012 133.549C133.743 133.435 133.621 133.174 133.721 132.901C133.807 132.666 133.715 132.364 133.541 132.304C133.221 132.193 133.22 132.189 133.424 131.886C133.361 131.834 133.304 131.768 133.231 131.735C132.965 131.616 132.693 131.5 132.547 131.229C132.496 131.137 132.461 130.974 132.508 130.908C132.637 130.737 132.789 130.584 132.959 130.455C133.203 130.262 133.276 129.819 133.068 129.595C132.996 129.517 132.89 129.47 132.799 129.408L132.908 129.212L132.838 129.226C132.77 129.089 132.703 128.951 132.631 128.815C132.613 128.786 132.592 128.76 132.567 128.736C132.389 128.536 132.339 128.319 132.409 128.048C132.468 127.844 132.479 127.629 132.442 127.421C132.355 127.029 132.214 126.649 132.092 126.265C132.067 126.193 132.034 126.123 131.994 126.058C131.755 125.649 131.775 125.468 132.092 125.125C132.263 124.942 132.369 124.747 132.162 124.519C132.047 124.392 132.081 124.286 132.176 124.156C132.286 124.009 132.366 123.84 132.467 123.667C132.582 123.633 132.736 123.608 132.868 123.54C133.071 123.437 133.264 123.316 133.445 123.177C133.535 123.104 133.596 123.002 133.619 122.888C133.635 122.789 133.573 122.68 133.539 122.549C133.346 122.425 133.092 122.32 132.922 122.135C132.753 121.949 132.647 121.703 132.561 121.465C132.495 121.279 132.523 121.061 132.478 120.866C132.42 120.614 132.323 120.373 132.256 120.123C132.16 119.757 132.448 119.256 132.801 119.126C132.905 119.087 133.034 119.017 133.081 118.926C133.277 118.55 133.461 118.161 133.157 117.718C132.84 117.972 132.679 117.731 132.517 117.497C132.362 117.273 132.207 117.049 132.065 116.84C131.53 117.099 131.988 117.416 132.025 117.745C131.449 117.57 130.913 117.422 130.388 117.242C130.179 117.17 130.013 117.154 129.872 117.341C129.804 117.308 129.75 117.26 129.696 117.26C129.294 117.256 129.137 116.976 129 116.662C128.77 116.134 128.53 115.61 128.302 115.08C128.17 114.785 128.054 114.483 127.955 114.175C127.924 114.071 127.967 113.916 128.029 113.823C128.305 113.396 128.606 112.985 128.888 112.563C128.965 112.45 129.021 112.325 129.056 112.192C129.157 111.782 129.239 111.368 129.331 110.956C129.489 110.243 129.648 109.53 129.813 108.791L131.013 109.038C131.042 108.921 131.072 108.831 131.085 108.739C131.24 107.702 131.337 106.65 131.56 105.629C131.759 104.724 131.7 103.88 131.36 103.038C131.318 102.934 131.301 102.822 131.265 102.715C131.247 102.649 131.218 102.587 131.18 102.53C130.893 102.16 130.657 101.745 130.23 101.5C130.131 101.434 130.057 101.336 130.023 101.222C129.961 101.011 129.816 100.929 129.622 100.866C129.501 101.169 129.396 101.461 129.268 101.741C129.233 101.816 129.127 101.903 129.052 101.905C127.994 101.932 126.934 102.003 125.881 101.947C124.827 101.89 123.784 101.688 122.733 101.58C122.089 101.513 121.493 101.375 120.972 100.952C120.803 100.815 120.727 100.715 120.779 100.491C120.903 99.9562 120.995 99.4146 121.099 98.8782C120.807 98.7995 120.771 98.7399 120.824 98.4502C120.875 98.1812 120.927 97.9127 120.979 97.6287L119.134 97.2125C119.222 96.8161 119.305 96.4429 119.392 96.0573C119.114 96.0008 118.872 95.949 118.628 95.9019C117.861 95.755 117.094 95.6089 116.327 95.4634Z" fill="#99C4C7"/>
<defs>
<filter id="filter0_d_1520_423" x="163.872" y="39.7918" width="208.582" height="169.399" filterUnits="userSpaceOnUse" color-interpolation-filters="sRGB">
<feFlood flood-opacity="0" result="BackgroundImageFix"/>
<feColorMatrix in="SourceAlpha" type="matrix" values="0 0 0 0 0 0 0 0 0 0 0 0 0 0 0 0 0 0 127 0" result="hardAlpha"/>
<feOffset dy="3.26667"/>
<feGaussianBlur stdDeviation="6.53333"/>
<feComposite in2="hardAlpha" operator="out"/>
<feColorMatrix type="matrix" values="0 0 0 0 0 0 0 0 0 0 0 0 0 0 0 0 0 0 0.05 0"/>
<feBlend mode="normal" in2="BackgroundImageFix" result="effect1_dropShadow_1520_423"/>
<feBlend mode="normal" in="SourceGraphic" in2="effect1_dropShadow_1520_423" result="shape"/>
</filter>
<filter id="filter1_d_1520_423" x="92.8518" y="50.2" width="113.072" height="148.582" filterUnits="userSpaceOnUse" color-interpolation-filters="sRGB">
<feFlood flood-opacity="0" result="BackgroundImageFix"/>
<feColorMatrix in="SourceAlpha" type="matrix" values="0 0 0 0 0 0 0 0 0 0 0 0 0 0 0 0 0 0 127 0" result="hardAlpha"/>
<feOffset dy="3.26667"/>
<feGaussianBlur stdDeviation="6.53333"/>
<feComposite in2="hardAlpha" operator="out"/>
<feColorMatrix type="matrix" values="0 0 0 0 0 0 0 0 0 0 0 0 0 0 0 0 0 0 0.05 0"/>
<feBlend mode="normal" in2="BackgroundImageFix" result="effect1_dropShadow_1520_423"/>
<feBlend mode="normal" in="SourceGraphic" in2="effect1_dropShadow_1520_423" result="shape"/>
</filter>
</defs>
</svg>