<svg xmlns="http://www.w3.org/2000/svg" width="480" height="248" viewBox="0 0 480 248" fill="none">
<rect width="480" height="248" fill="#EDEDED"/>
<g filter="url(#filter0_d_1520_545)">
<rect x="118.146" y="43.4766" width="251.45" height="151.862" rx="4.23195" fill="white"/>
</g>
<rect x="351.497" y="98.6401" width="39.0642" height="39.2201" rx="2.11598" fill="#6F787F"/>
<rect x="369.229" y="127.26" width="18.0201" height="3.16737" rx="1.05799" transform="rotate(-90 369.229 127.26)" fill="white"/>
<rect x="379.787" y="119.84" width="17.9484" height="3.18001" rx="1.05799" transform="rotate(180 379.787 119.84)" fill="white"/>
<rect x="151.759" y="67.4888" width="184.871" height="103.188" rx="2.11598" fill="#ECECEC"/>
<rect x="213.168" y="88.9041" width="62.0518" height="60.3578" rx="1.2955" stroke="#99BFE5" stroke-width="1.2955"/>
<rect x="213.168" y="109.023" width="62.0518" height="20.1209" rx="1.2955" stroke="#99BFE5" stroke-width="1.2955"/>
<path d="M275.221 119.408H291.058" stroke="#99BFE5" stroke-width="1.2955" stroke-linejoin="round"/>
<rect x="289.442" y="112.269" width="28.4417" height="14.2776" rx="1.94324" fill="#99BFE6"/>
<path d="M213.167 119.408H197.33" stroke="#99BFE5" stroke-width="1.2955" stroke-linejoin="round"/>
<rect width="28.4417" height="14.2776" rx="1.94324" transform="matrix(-1 0 0 1 198.946 112.269)" fill="#99BFE6"/>
<rect x="233.852" y="139.526" width="18.7456" height="14.2776" rx="1.94324" fill="#99BFE6"/>
<rect x="233.852" y="121.354" width="18.7456" height="14.2776" rx="1.94324" fill="#99BFE6"/>
<rect x="233.852" y="103.183" width="18.7456" height="14.2776" rx="1.94324" fill="#99BFE6"/>
<rect x="233.852" y="85.0112" width="18.7456" height="14.2776" rx="1.94324" fill="#99BFE6"/>
<rect x="78.0684" y="88.2563" width="62.0545" height="62.3022" rx="2.11598" fill="#EB5A2D"/>
<path d="M-nan -nanL91.4175 104.654V125.406C91.4175 125.852 91.5939 126.28 91.9077 126.596C92.2214 126.911 92.6468 127.089 93.0905 127.089H95.7608C96.1186 127.089 96.4086 127.379 96.4086 127.736V131.326C96.4086 131.933 97.1675 132.207 97.5548 131.74L101.22 127.323C101.343 127.174 101.525 127.089 101.718 127.089H119.776C120.219 127.089 120.645 126.911 120.959 126.596C121.273 126.28 121.449 125.852 121.449 125.406V104.654C121.449 104.208 121.273 103.78 120.959 103.464C120.645 103.148 120.219 102.971 119.776 102.971H93.1331C92.9098 102.965 92.6878 103.005 92.4799 103.087C92.2719 103.169 92.0824 103.292 91.9225 103.449C91.7626 103.605 91.6354 103.793 91.5487 104C91.4619 104.207 91.4174 104.429 91.4175 104.654L-nan -nanL-nan -nanZ" stroke="white" stroke-width="2" stroke-linejoin="round"/>
<path d="M121.95 108.125H124.741C124.949 108.123 125.156 108.164 125.348 108.244C125.541 108.324 125.716 108.443 125.864 108.593C126.011 108.742 126.128 108.921 126.208 109.117C126.288 109.314 126.33 109.524 126.33 109.737V129.614C126.33 129.827 126.288 130.038 126.208 130.234C126.128 130.431 126.011 130.609 125.864 130.759C125.716 130.909 125.541 131.027 125.348 131.107C125.156 131.188 124.949 131.228 124.741 131.226H122.267C121.909 131.226 121.619 131.516 121.619 131.874V135.167C121.619 135.777 120.854 136.049 120.469 135.576L117.117 131.452C116.994 131.3 116.809 131.213 116.614 131.213H105.314C104.896 131.213 104.496 131.043 104.201 130.74C103.905 130.438 103.739 130.028 103.739 129.601V126.407" stroke="white" stroke-width="2" stroke-linejoin="round"/>
<path d="M97.8179 109.396H115.541" stroke="white" stroke-width="2" stroke-linejoin="round"/>
<path d="M97.8179 114.833H115.541" stroke="white" stroke-width="2" stroke-linejoin="round"/>
<path d="M97.8179 120.765H109.633" stroke="white" stroke-width="2" stroke-linejoin="round"/>
<defs>
<filter id="filter0_d_1520_545" x="109.682" y="37.1286" width="268.378" height="168.79" filterUnits="userSpaceOnUse" color-interpolation-filters="sRGB">
<feFlood flood-opacity="0" result="BackgroundImageFix"/>
<feColorMatrix in="SourceAlpha" type="matrix" values="0 0 0 0 0 0 0 0 0 0 0 0 0 0 0 0 0 0 127 0" result="hardAlpha"/>
<feOffset dy="2.11598"/>
<feGaussianBlur stdDeviation="4.23195"/>
<feComposite in2="hardAlpha" operator="out"/>
<feColorMatrix type="matrix" values="0 0 0 0 0 0 0 0 0 0 0 0 0 0 0 0 0 0 0.05 0"/>
<feBlend mode="normal" in2="BackgroundImageFix" result="effect1_dropShadow_1520_545"/>
<feBlend mode="normal" in="SourceGraphic" in2="effect1_dropShadow_1520_545" result="shape"/>
</filter>
</defs>
</svg>